<?xml version="1.0" encoding="utf-8"?>
<!-- Generator: Adobe Illustrator 17.1.0, SVG Export Plug-In . SVG Version: 6.00 Build 0)  -->
<!DOCTYPE svg PUBLIC "-//W3C//DTD SVG 1.1//EN" "http://www.w3.org/Graphics/SVG/1.1/DTD/svg11.dtd">
<svg version="1.1" id="Layer_1" xmlns="http://www.w3.org/2000/svg" xmlns:xlink="http://www.w3.org/1999/xlink" x="0px" y="0px"
	 viewBox="0 0 595.3 793.7" enable-background="new 0 0 595.3 793.7" xml:space="preserve">
<path fill="#FFFFFF" d="M100.2,318.6c0,0-8.8-13,5.4-21.2c0,0,7.3-4.1,11.7-2.9l-0.3,1.6c0,0-8.2-1.9-15.4,4.6c0,0-7.9,7.2-1,17.6
	L100.2,318.6z"/>
<path fill="#FFFFFF" d="M117.3,293.4c0,0-0.1,0.1-0.1,0.1c-0.5,0.3-1.2,0.7-1.8,0.8c-1.5,0.1-3.8,0.6-5.2,1.2
	c-2.8,1.2-3.4,2.6-5,5.2c-0.8,1.3-1,2.5-1.5,3.9c-0.6,1.4-1.5,2.7-1.8,4.2c-0.3,1.2-0.6,2.6-0.3,3.8c1.1-2,2.1-4,3.2-6
	c1.1-2,2.5-3.2,4.5-4.3c0.9-0.5,3.5-0.4,3.5-0.3l12.7,27.7c1.7,1.5,3.3,2.8,4.7,4.6c0.6,0.9,1,1.1,1.7,2.6c0.2,0.4,0.6,1.4,0.6,2.3
	c0.1-0.4,0.4-1.1,0.3-1.6c0.5,0.3,0.6,1.3,0.6,1.9c1.1-0.8,0.6-2.1,1.9-2.8c1.1-0.6,2.4-0.7,3.5-1.3c1.1-0.6,1.6-1.8,2.9-2.4
	c1.5-0.7,1.8-1.6,3.3-2.6c2.4-1.5,1.7-8.1,4.3-9.3c0.6-0.3,0.9-1,1.1-1.6c0.3-0.7,0.2-1.3,0.3-2c0-0.1,0-0.2,0.1-0.3
	C136.9,314,125.5,304.8,117.3,293.4z"/>
<path fill="#FFFFFF" d="M120.5,294.6c-1.2,0-2.8-1-6.6-0.3c-3.1,0.5-2.7,1-3.9,1.4c-2.9,1-7.9,5-9.8,7.5c-3.6,4.9-1.3,9.7-0.1,14.7
	c0-1,0.7-0.9,0.4-1.9c-0.5-1.5-0.5-3.8-0.6-5.2c-0.4-6.7,3.8-9.6,5.1-10.6c-3.9,3.3-4.7,7.4-4.8,10.5c-0.1,2.2-0.2,5.2,0.1,6.4
	c0.2-1.5,1.5-2.6,1.9-4c0.2-0.6,0.1-1.3,0.2-2c0.3-1.7,1.3-2.4,2.3-3.7c1.6-2,2.2-4.4,4-6.2c1.8-1.8,3.4-3.8,5-5.6
	c1.2-1.3,3.9-1.4,5.7-1.6"/>
<g>
	<path fill="none" stroke="#FFFFFF" stroke-miterlimit="10" enable-background="new    " d="M110.5,301.8c-3,0.2-5.5,3.8-7,6.4
		c-1,1.8-1.1,2.1-1.9,3.2c-0.6,0.9-1,2.6-1.2,4.9l-0.5,1.6c-4.2,6-2.5,11.4-2.4,15.5c0.1,2.3,0.3,4.9,1,8c0.6,2.4,5.8,2.8,7.8,2.7
		c3.5-0.2,5.8-0.4,8.9-1.3c3.4-1,4.5-1.3,7.8-4.4c0,0,1.2-1.2,2.2-2c0,0,0.2,1.7,2.8,0.9c0,0,4.3-1.1,5.4-6.9c0,0,0.6-3.3-3.5-3.1
		C129.8,327,140.9,299.9,110.5,301.8z"/>
	<path fill="none" stroke="#FFFFFF" stroke-miterlimit="10" d="M125.1,336.1c-1,0.8-2.2,2-2.2,2c-3.2,3-5.3,3.5-8,4.2
		c0,0-4.1,1.2-8.8,1.4c-2.4,0.1-6.7-0.6-7.4-2.5c-0.5-1.4-1.1-5.5-1.2-7.9c0-0.8-0.1-1.6-0.2-2.4c-0.4-3.6-0.8-8.1,2.5-13l0,0
		l0.5-1.6c0.2-2.5,0.6-4,1.2-4.8c0.5-0.7,0.7-1.1,1.1-1.7l0.8-1.5c2.4-4.1,4.6-6.2,6.9-6.3c2.1-0.1,4-0.1,5.8,0c0-0.1,0-0.2,0-0.3
		c-1.8-0.1-3.7-0.1-5.8,0c-2.3,0.1-4.7,2.3-7.1,6.4l-0.8,1.5c-0.4,0.7-0.6,1-1.1,1.7c-0.6,0.8-0.9,2.5-1.1,4.9c0,0-0.5,1.6-0.5,1.6
		c-2.3,3.3-3.1,5.9-3,8.6c0.1,1.4,0.2,3.2,0.3,4.4c0.1,0.8,0.1,1.6,0.2,2.4c0.2,2.6,0.3,4.8,1.4,8.2c0.8,2.7,7.7,2.5,9.2,2.4
		c3.5-0.2,7.9-1.3,7.9-1.3c3.2-1,4.1-1.3,7.3-4.3c0,0,1.1-1.1,2-1.9c0,0.1,0.1,0.3,0.3,0.5C125.3,336.6,125.2,336.4,125.1,336.1
		L125.1,336.1z"/>
	<path fill="none" stroke="#FFFFFF" stroke-miterlimit="10" d="M132.9,327.9c-0.6-0.7-1.6-1-2.9-1c0.3-0.9,1.9-5.3,1.9-10.1
		c0-3.1-0.6-6.4-2.6-9.1c-2.6-3.6-6.9-5.6-13.1-6c0,0.1,0,0.2,0,0.3c6,0.5,10.3,2.5,12.8,5.9c5.3,7.4,0.6,19,0.6,19.1l-0.1,0.2
		l0.2,0c1.3-0.1,2.3,0.2,2.9,0.9c0.7,0.9,0.5,2.1,0.5,2.1c-1.1,5.6-4.8,6.6-4.9,6.6c-1,0.3-1.8,0-2.2-0.2c-0.9-0.4-0.8-1.9-0.8-1.9
		s-0.8,1.5,0.1,2.3c0.1,0.1,0.9,0.7,2.5,0.3c0,0,4.4-1.2,5.5-7C133.5,330.1,133.8,328.8,132.9,327.9z"/>
</g>
<g>
	
		<linearGradient id="SVGID_1_" gradientUnits="userSpaceOnUse" x1="112.6924" y1="381.9744" x2="114.6726" y2="375.9362" gradientTransform="matrix(0.9995 -3.120000e-02 3.120000e-02 0.9995 -13.6573 -59.4591)">
		<stop  offset="1.123600e-02" style="stop-color:#908186"/>
		<stop  offset="0.141" style="stop-color:#807177"/>
		<stop  offset="0.5225" style="stop-color:#53474E"/>
		<stop  offset="0.627" style="stop-color:#655A5F"/>
		<stop  offset="0.8138" style="stop-color:#817679"/>
		<stop  offset="0.9213" style="stop-color:#8B8183"/>
	</linearGradient>
	<path opacity="0.72" fill="url(#SVGID_1_)" stroke="#FFFFFF" d="M111.7,317.7c0.2,0,0.4,0,0.5-0.1c-0.2,0-0.5,0-0.7,0
		c-0.1,0-0.3-0.1-0.4-0.2c-0.1-0.1-0.2-0.1-0.2-0.2c0.1,0.1,0.3,0.4,0.5,0.4c-0.4-0.1-0.8-0.4-0.9-0.6c0.2,0.2,0.4,0.4,0.6,0.5
		C111.3,317.6,111.5,317.7,111.7,317.7"/>
	
		<linearGradient id="SVGID_2_" gradientUnits="userSpaceOnUse" x1="117.6973" y1="383.6158" x2="119.6775" y2="377.5776" gradientTransform="matrix(0.9995 -3.120000e-02 3.120000e-02 0.9995 -13.6573 -59.4591)">
		<stop  offset="1.123600e-02" style="stop-color:#908186"/>
		<stop  offset="0.141" style="stop-color:#807177"/>
		<stop  offset="0.5225" style="stop-color:#53474E"/>
		<stop  offset="0.627" style="stop-color:#655A5F"/>
		<stop  offset="0.8138" style="stop-color:#817679"/>
		<stop  offset="0.9213" style="stop-color:#8B8183"/>
	</linearGradient>
	<path fill="url(#SVGID_2_)" stroke="#FFFFFF" d="M111,317.1c3.4-0.6,4.4-0.3,6.2,0.1c2.3,0.6,4,2,5,3c-0.6-0.6-2.2-1.9-4.7-2.3
		c-1.2-0.2-2-0.3-3.2-0.4c-0.5,0-0.8,0.1-2,0.2c-0.6,0-1.1-0.1-1.6-0.6C110.7,317,110.8,317.1,111,317.1z"/>
	
		<linearGradient id="SVGID_3_" gradientUnits="userSpaceOnUse" x1="113.8672" y1="382.3613" x2="115.8486" y2="376.3195" gradientTransform="matrix(0.9995 -3.120000e-02 3.120000e-02 0.9995 -13.6573 -59.4591)">
		<stop  offset="1.123600e-02" style="stop-color:#908186"/>
		<stop  offset="0.141" style="stop-color:#807177"/>
		<stop  offset="0.5225" style="stop-color:#53474E"/>
		<stop  offset="0.627" style="stop-color:#655A5F"/>
		<stop  offset="0.8138" style="stop-color:#817679"/>
		<stop  offset="0.9213" style="stop-color:#8B8183"/>
	</linearGradient>
	<path fill="url(#SVGID_3_)" stroke="#FFFFFF" d="M112.2,317c-0.1-0.1-0.4-0.2-0.5-0.3c0.1,0.1,0.5,0.2,0.7,0.2
		c-0.1-0.1-0.2-0.2-0.3-0.2c0.2,0.1,0.4,0.3,0.7,0.2c-0.1-0.1-0.2-0.2-0.3-0.2c0.4,0.2,1,0.1,1.4,0.2c-0.3,0.1-1,0.3-1.2,0.2"/>
	
		<linearGradient id="SVGID_4_" gradientUnits="userSpaceOnUse" x1="119.6857" y1="384.1775" x2="121.6663" y2="378.1385" gradientTransform="matrix(0.9995 -3.120000e-02 3.120000e-02 0.9995 -13.6573 -59.4591)">
		<stop  offset="1.123600e-02" style="stop-color:#908186"/>
		<stop  offset="0.141" style="stop-color:#807177"/>
		<stop  offset="0.5225" style="stop-color:#53474E"/>
		<stop  offset="0.627" style="stop-color:#655A5F"/>
		<stop  offset="0.8138" style="stop-color:#817679"/>
		<stop  offset="0.9213" style="stop-color:#8B8183"/>
	</linearGradient>
	<path fill="url(#SVGID_4_)" stroke="#FFFFFF" d="M118.8,317.9c-0.3-0.1-0.9,0.1-1.2,0.2c0.2-0.1,0.5-0.1,0.7-0.1
		c-0.1,0-0.2,0-0.3,0.1c0.1,0,0.2,0,0.4,0c-0.2,0.1-0.4,0.1-0.6,0.2c0.3-0.1,0.6-0.1,0.9-0.1c-0.1,0-0.1,0.1-0.2,0.1
		c0.1,0,0.2,0,0.2,0c0,0-0.2,0.1-0.3,0.1c0.4-0.1,0.9,0,1.3,0C119.5,318.1,119.2,318,118.8,317.9"/>
	
		<linearGradient id="SVGID_5_" gradientUnits="userSpaceOnUse" x1="118.5676" y1="383.8999" x2="120.5469" y2="377.8646" gradientTransform="matrix(0.9995 -3.120000e-02 3.120000e-02 0.9995 -13.6573 -59.4591)">
		<stop  offset="1.123600e-02" style="stop-color:#908186"/>
		<stop  offset="0.141" style="stop-color:#807177"/>
		<stop  offset="0.5225" style="stop-color:#53474E"/>
		<stop  offset="0.627" style="stop-color:#655A5F"/>
		<stop  offset="0.8138" style="stop-color:#817679"/>
		<stop  offset="0.9213" style="stop-color:#8B8183"/>
	</linearGradient>
	<path fill="url(#SVGID_5_)" stroke="#FFFFFF" d="M117.7,317.6c-0.3-0.1-0.9,0.1-1.2,0.2c0.2-0.1,0.5-0.1,0.7-0.1
		c-0.1,0-0.2,0-0.3,0.1c0.1,0,0.2,0,0.4,0c-0.2,0.1-0.4,0.1-0.6,0.2c0.3-0.1,0.6-0.1,0.9-0.1c-0.1,0-0.1,0.1-0.2,0.1
		c0.1,0,0.2,0,0.2,0c0,0-0.2,0.1-0.3,0.1c0.4-0.1,0.9,0,1.3,0.1C118.4,317.8,118,317.7,117.7,317.6"/>
	
		<linearGradient id="SVGID_6_" gradientUnits="userSpaceOnUse" x1="114.589" y1="382.5964" x2="116.5691" y2="376.5587" gradientTransform="matrix(0.9995 -3.120000e-02 3.120000e-02 0.9995 -13.6573 -59.4591)">
		<stop  offset="1.123600e-02" style="stop-color:#908186"/>
		<stop  offset="0.141" style="stop-color:#807177"/>
		<stop  offset="0.5225" style="stop-color:#53474E"/>
		<stop  offset="0.627" style="stop-color:#655A5F"/>
		<stop  offset="0.8138" style="stop-color:#817679"/>
		<stop  offset="0.9213" style="stop-color:#8B8183"/>
	</linearGradient>
	<path fill="url(#SVGID_6_)" stroke="#FFFFFF" d="M113.3,317.4c0.3-0.1,0.9,0.2,1.1,0.4c-0.2-0.1-0.5-0.2-0.7-0.2
		c0.1,0,0.2,0.1,0.3,0.1c-0.1,0-0.2-0.1-0.4-0.1c0.2,0.1,0.4,0.2,0.5,0.3c-0.3-0.1-0.5-0.2-0.8-0.2c0.1,0,0.1,0.1,0.2,0.1
		c-0.1,0-0.2,0-0.2-0.1c0,0,0.2,0.1,0.3,0.2c-0.4-0.2-0.9-0.2-1.3-0.2C112.5,317.4,112.9,317.4,113.3,317.4"/>
	
		<linearGradient id="SVGID_7_" gradientUnits="userSpaceOnUse" x1="120.8167" y1="384.64" x2="122.7978" y2="378.5993" gradientTransform="matrix(0.9995 -3.120000e-02 3.120000e-02 0.9995 -13.6573 -59.4591)">
		<stop  offset="1.123600e-02" style="stop-color:#908186"/>
		<stop  offset="0.141" style="stop-color:#807177"/>
		<stop  offset="0.5225" style="stop-color:#53474E"/>
		<stop  offset="0.627" style="stop-color:#655A5F"/>
		<stop  offset="0.8138" style="stop-color:#817679"/>
		<stop  offset="0.9213" style="stop-color:#8B8183"/>
	</linearGradient>
	<path fill="url(#SVGID_7_)" stroke="#FFFFFF" d="M121.1,319.2c-0.4-0.3-1.1-0.6-1.5-0.5c0,0,0.1,0,0.4,0.1c0.6,0.1,1,0.4,1.2,0.6
		c-0.9-0.7-2-0.9-2.1-0.8c0.4-0.1,0.9,0.1,1.1,0.1c-0.7-0.3-1.1-0.3-1.7-0.3c0.4-0.1,0.9-0.2,1.4,0
		C120.3,318.4,120.7,318.9,121.1,319.2"/>
	
		<linearGradient id="SVGID_8_" gradientUnits="userSpaceOnUse" x1="118.2111" y1="383.7849" x2="120.1917" y2="377.7458" gradientTransform="matrix(0.9995 -3.120000e-02 3.120000e-02 0.9995 -13.6573 -59.4591)">
		<stop  offset="1.123600e-02" style="stop-color:#908186"/>
		<stop  offset="0.141" style="stop-color:#807177"/>
		<stop  offset="0.5225" style="stop-color:#53474E"/>
		<stop  offset="0.627" style="stop-color:#655A5F"/>
		<stop  offset="0.8138" style="stop-color:#817679"/>
		<stop  offset="0.9213" style="stop-color:#8B8183"/>
	</linearGradient>
	<path fill="url(#SVGID_8_)" stroke="#FFFFFF" d="M118.2,317.8c-0.8-0.3-1.2-0.2-1.8,0C116.8,317.7,117.3,317.5,118.2,317.8"/>
	
		<linearGradient id="SVGID_9_" gradientUnits="userSpaceOnUse" x1="118.0418" y1="383.7292" x2="120.0222" y2="377.6906" gradientTransform="matrix(0.9995 -3.120000e-02 3.120000e-02 0.9995 -13.6573 -59.4591)">
		<stop  offset="1.123600e-02" style="stop-color:#908186"/>
		<stop  offset="0.141" style="stop-color:#807177"/>
		<stop  offset="0.5225" style="stop-color:#53474E"/>
		<stop  offset="0.627" style="stop-color:#655A5F"/>
		<stop  offset="0.8138" style="stop-color:#817679"/>
		<stop  offset="0.9213" style="stop-color:#8B8183"/>
	</linearGradient>
	<path fill="url(#SVGID_9_)" stroke="#FFFFFF" d="M118,317.6c-0.8-0.2-1.3-0.1-1.9,0.1C116.6,317.7,117.2,317.4,118,317.6"/>
	
		<linearGradient id="SVGID_10_" gradientUnits="userSpaceOnUse" x1="118.0947" y1="383.7473" x2="120.0756" y2="377.7073" gradientTransform="matrix(0.9995 -3.120000e-02 3.120000e-02 0.9995 -13.6573 -59.4591)">
		<stop  offset="1.123600e-02" style="stop-color:#908186"/>
		<stop  offset="0.141" style="stop-color:#807177"/>
		<stop  offset="0.5225" style="stop-color:#53474E"/>
		<stop  offset="0.627" style="stop-color:#655A5F"/>
		<stop  offset="0.8138" style="stop-color:#817679"/>
		<stop  offset="0.9213" style="stop-color:#8B8183"/>
	</linearGradient>
	<path fill="url(#SVGID_10_)" stroke="#FFFFFF" d="M118.4,317.4c-0.9-0.3-1.5-0.2-2.3,0.1C116.7,317.4,117.4,317,118.4,317.4"/>
	
		<linearGradient id="SVGID_11_" gradientUnits="userSpaceOnUse" x1="328.5244" y1="-358.6839" x2="327.3013" y2="-360.3214" gradientTransform="matrix(-0.8713 -0.4907 -0.4907 0.8713 227.828 792.1306)">
		<stop  offset="5.618000e-03" style="stop-color:#000000"/>
		<stop  offset="0.1327" style="stop-color:#211D1A"/>
		<stop  offset="0.2669" style="stop-color:#3D3430"/>
		<stop  offset="0.4027" style="stop-color:#504540"/>
		<stop  offset="0.5397" style="stop-color:#5C5049"/>
		<stop  offset="0.6798" style="stop-color:#60534C"/>
	</linearGradient>
	<path fill="url(#SVGID_11_)" stroke="#FFFFFF" d="M119.3,318.1c-0.1,0-0.1,0.1-0.2,0.1c-0.1,0-0.2,0-0.3,0c-0.2,0-0.4-0.1-0.7,0
		c0.1-0.1,0.3-0.1,0.4-0.1c-0.2,0-0.5-0.1-0.7,0.1c0.1-0.1,0.2-0.2,0.4-0.2c-0.1,0-0.2,0-0.3,0c-0.1,0-0.2,0.1-0.3,0.1
		c0.1-0.1,0.2-0.1,0.3-0.2c0.1,0,0.2-0.1,0.3-0.1c0.2,0,0.6,0,0.9,0c-0.1,0-0.3,0.1-0.6,0c-0.1,0-0.2,0-0.4,0.1
		c0.2-0.1,0.4,0,0.6,0.1C118.9,318.1,119.1,318.2,119.3,318.1"/>
	
		<linearGradient id="SVGID_12_" gradientUnits="userSpaceOnUse" x1="110.07" y1="577.2537" x2="108.2176" y2="579.433" gradientTransform="matrix(0.9917 -0.1285 0.1285 0.9917 -66.6311 -243.2015)">
		<stop  offset="8.988800e-02" style="stop-color:#908186"/>
		<stop  offset="0.2838" style="stop-color:#807177"/>
		<stop  offset="0.8539" style="stop-color:#53474E"/>
	</linearGradient>
	<path fill="url(#SVGID_12_)" stroke="#FFFFFF" d="M116,317c-0.3,0.1-0.4,0.3-0.6,0.4c-0.2,0.1-0.5,0.3-0.8,0.3
		c0.2-0.1,0.3-0.1,0.5-0.3c0.1-0.1,0.2-0.2,0.3-0.2c-0.1,0.1-0.3,0.1-0.4,0.2c0.1-0.1,0.3-0.1,0.4-0.2c0.1-0.1,0.3-0.2,0.4-0.2
		c-0.1,0.1-0.1,0.1-0.2,0.1c-0.1,0-0.1,0.1-0.2,0.2C115.5,317.2,115.7,317,116,317"/>
	
		<linearGradient id="SVGID_13_" gradientUnits="userSpaceOnUse" x1="117.5715" y1="383.5736" x2="119.5512" y2="377.5374" gradientTransform="matrix(0.9995 -3.120000e-02 3.120000e-02 0.9995 -13.6573 -59.4591)">
		<stop  offset="1.123600e-02" style="stop-color:#908186"/>
		<stop  offset="0.141" style="stop-color:#807177"/>
		<stop  offset="0.5225" style="stop-color:#53474E"/>
		<stop  offset="0.627" style="stop-color:#655A5F"/>
		<stop  offset="0.8138" style="stop-color:#817679"/>
		<stop  offset="0.9213" style="stop-color:#8B8183"/>
	</linearGradient>
	<path fill="url(#SVGID_13_)" stroke="#FFFFFF" d="M117.2,317.4c0.2,0,0.4,0.2,0.6,0.3c-0.3-0.1-0.6-0.1-0.8-0.2c-0.3,0-0.7,0-1,0.1
		c0.2-0.2,0.7-0.2,0.9-0.2c-0.6,0-1.2,0.1-1.5,0.3c0.3-0.2,0.6-0.3,1-0.4C116.6,317.3,116.9,317.3,117.2,317.4"/>
	
		<linearGradient id="SVGID_14_" gradientUnits="userSpaceOnUse" x1="-17.6419" y1="1131.0728" x2="-15.1913" y2="1129.1902" gradientTransform="matrix(0.9173 -0.3982 0.3982 0.9173 -315.2719 -725.5539)">
		<stop  offset="5.618000e-03" style="stop-color:#000000"/>
		<stop  offset="0.1327" style="stop-color:#211D1A"/>
		<stop  offset="0.2669" style="stop-color:#3D3430"/>
		<stop  offset="0.4027" style="stop-color:#504540"/>
		<stop  offset="0.5397" style="stop-color:#5C5049"/>
		<stop  offset="0.6798" style="stop-color:#60534C"/>
	</linearGradient>
	<path opacity="0.72" fill="url(#SVGID_14_)" stroke="#FFFFFF" d="M118.7,318.1c-0.2,0-0.3,0.1-0.5,0.2c0.2-0.1,0.4-0.1,0.7-0.1
		c0.3,0,0.5,0.2,0.8,0.3c-0.2-0.1-0.5-0.3-0.7-0.3c0.4,0,0.9,0.3,1.2,0.4c-0.3-0.2-0.6-0.3-0.8-0.4C119.2,318,119,318,118.7,318.1"
		/>
	
		<linearGradient id="SVGID_15_" gradientUnits="userSpaceOnUse" x1="116.6276" y1="383.2643" x2="118.6073" y2="377.2278" gradientTransform="matrix(0.9995 -3.120000e-02 3.120000e-02 0.9995 -13.6573 -59.4591)">
		<stop  offset="1.123600e-02" style="stop-color:#908186"/>
		<stop  offset="0.141" style="stop-color:#807177"/>
		<stop  offset="0.5225" style="stop-color:#53474E"/>
		<stop  offset="0.627" style="stop-color:#655A5F"/>
		<stop  offset="0.8138" style="stop-color:#817679"/>
		<stop  offset="0.9213" style="stop-color:#8B8183"/>
	</linearGradient>
	<path fill="url(#SVGID_15_)" stroke="#FFFFFF" d="M114.7,316.8c0.2,0,0.4,0,0.6-0.1c0.2,0,0.6-0.1,0.8,0c-0.2-0.1-0.7,0-0.8,0.1
		c0.2-0.1,0.7-0.1,0.9-0.1c0.3,0,0.5,0.1,0.7,0.2c-0.3-0.2-0.8-0.1-1.2-0.1c-0.2,0-0.4,0.1-0.6,0.1
		C115,316.9,114.8,316.8,114.7,316.8"/>
	
		<linearGradient id="SVGID_16_" gradientUnits="userSpaceOnUse" x1="117.4615" y1="383.5387" x2="119.4417" y2="377.5006" gradientTransform="matrix(0.9995 -3.120000e-02 3.120000e-02 0.9995 -13.6573 -59.4591)">
		<stop  offset="1.123600e-02" style="stop-color:#908186"/>
		<stop  offset="0.141" style="stop-color:#807177"/>
		<stop  offset="0.5225" style="stop-color:#53474E"/>
		<stop  offset="0.627" style="stop-color:#655A5F"/>
		<stop  offset="0.8138" style="stop-color:#817679"/>
		<stop  offset="0.9213" style="stop-color:#8B8183"/>
	</linearGradient>
	<path fill="url(#SVGID_16_)" stroke="#FFFFFF" d="M115.5,316.9c0.2,0.1,0.4,0,0.6,0c0.2,0,0.6,0,0.8,0.1c-0.2-0.1-0.7-0.1-0.8,0
		c0.2-0.1,0.7,0,0.9,0c0.3,0,0.5,0.1,0.7,0.2c-0.3-0.2-0.8-0.2-1.2-0.1c-0.2,0-0.4,0.1-0.6,0C115.9,317,115.7,317,115.5,316.9"/>
	
		<linearGradient id="SVGID_17_" gradientUnits="userSpaceOnUse" x1="114.7419" y1="382.6446" x2="116.7207" y2="376.611" gradientTransform="matrix(0.9995 -3.120000e-02 3.120000e-02 0.9995 -13.6573 -59.4591)">
		<stop  offset="1.123600e-02" style="stop-color:#908186"/>
		<stop  offset="0.141" style="stop-color:#807177"/>
		<stop  offset="0.5225" style="stop-color:#53474E"/>
		<stop  offset="0.627" style="stop-color:#655A5F"/>
		<stop  offset="0.8138" style="stop-color:#817679"/>
		<stop  offset="0.9213" style="stop-color:#8B8183"/>
	</linearGradient>
	<path fill="url(#SVGID_17_)" stroke="#FFFFFF" d="M114.8,316.9c-0.2,0-0.4-0.1-0.6-0.2c-0.2-0.1-0.6-0.2-0.8-0.1
		c0.2,0,0.7,0.1,0.8,0.2c-0.2-0.1-0.6-0.2-0.9-0.2c-0.3,0-0.5,0-0.7,0c0.3-0.1,0.8,0,1.2,0.2c0.2,0.1,0.3,0.2,0.5,0.2
		C114.5,317,114.7,316.9,114.8,316.9"/>
	
		<linearGradient id="SVGID_18_" gradientUnits="userSpaceOnUse" x1="115.3931" y1="382.8601" x2="117.3732" y2="376.8222" gradientTransform="matrix(0.9995 -3.120000e-02 3.120000e-02 0.9995 -13.6573 -59.4591)">
		<stop  offset="1.123600e-02" style="stop-color:#908186"/>
		<stop  offset="0.141" style="stop-color:#807177"/>
		<stop  offset="0.5225" style="stop-color:#53474E"/>
		<stop  offset="0.627" style="stop-color:#655A5F"/>
		<stop  offset="0.8138" style="stop-color:#817679"/>
		<stop  offset="0.9213" style="stop-color:#8B8183"/>
	</linearGradient>
	<path fill="url(#SVGID_18_)" stroke="#FFFFFF" d="M115.2,316.8c-0.1,0-0.3-0.1-0.4-0.2c-0.2-0.1-0.4-0.1-0.6-0.1
		c0.1,0,0.5,0.1,0.5,0.2c-0.1-0.1-0.4-0.2-0.6-0.2c-0.2,0-0.3,0-0.6,0c0.3-0.1,0.6,0,0.8,0.1c0.1,0.1,0.2,0.1,0.4,0.1
		C115,316.9,115.1,316.9,115.2,316.8"/>
	
		<linearGradient id="SVGID_19_" gradientUnits="userSpaceOnUse" x1="119.299" y1="384.142" x2="121.2798" y2="378.1023" gradientTransform="matrix(0.9995 -3.120000e-02 3.120000e-02 0.9995 -13.6573 -59.4591)">
		<stop  offset="1.123600e-02" style="stop-color:#908186"/>
		<stop  offset="0.141" style="stop-color:#807177"/>
		<stop  offset="0.5225" style="stop-color:#53474E"/>
		<stop  offset="0.627" style="stop-color:#655A5F"/>
		<stop  offset="0.8138" style="stop-color:#817679"/>
		<stop  offset="0.9213" style="stop-color:#8B8183"/>
	</linearGradient>
	<path fill="url(#SVGID_19_)" stroke="#FFFFFF" d="M117.4,317.3c0.2,0.1,0.4,0.1,0.6,0.1c0.2,0,0.6,0.1,0.8,0.2
		c-0.1-0.1-0.6-0.2-0.8-0.1c0.2,0,0.7,0.1,0.9,0.2c0.3,0.1,0.5,0.2,0.7,0.3c-0.3-0.2-0.8-0.3-1.1-0.3c-0.2,0-0.4,0-0.6-0.1
		C117.7,317.5,117.6,317.4,117.4,317.3"/>
	
		<linearGradient id="SVGID_20_" gradientUnits="userSpaceOnUse" x1="112.6229" y1="381.9513" x2="114.6027" y2="375.9146" gradientTransform="matrix(0.9995 -3.120000e-02 3.120000e-02 0.9995 -13.6573 -59.4591)">
		<stop  offset="1.123600e-02" style="stop-color:#908186"/>
		<stop  offset="0.141" style="stop-color:#807177"/>
		<stop  offset="0.5225" style="stop-color:#53474E"/>
		<stop  offset="0.627" style="stop-color:#655A5F"/>
		<stop  offset="0.8138" style="stop-color:#817679"/>
		<stop  offset="0.9213" style="stop-color:#8B8183"/>
	</linearGradient>
	<path fill="url(#SVGID_20_)" stroke="#FFFFFF" d="M111.7,317c-0.3,0.1-0.6,0.2-1,0c0.1,0.1,0.3,0.1,0.6,0c-0.1,0-0.3-0.1-0.4-0.1
		c0.1,0.1,0.5,0.1,0.6,0.1c0.2,0,0.2,0,0.4,0C111.9,316.9,111.8,317,111.7,317"/>
	
		<linearGradient id="SVGID_21_" gradientUnits="userSpaceOnUse" x1="112.8982" y1="382.0436" x2="114.8798" y2="376.0012" gradientTransform="matrix(0.9995 -3.120000e-02 3.120000e-02 0.9995 -13.6573 -59.4591)">
		<stop  offset="1.123600e-02" style="stop-color:#908186"/>
		<stop  offset="0.141" style="stop-color:#807177"/>
		<stop  offset="0.5225" style="stop-color:#53474E"/>
		<stop  offset="0.627" style="stop-color:#655A5F"/>
		<stop  offset="0.8138" style="stop-color:#817679"/>
		<stop  offset="0.9213" style="stop-color:#8B8183"/>
	</linearGradient>
	<path fill="url(#SVGID_21_)" stroke="#FFFFFF" d="M112.1,316.8c-0.3,0-0.6,0-0.9-0.1c0.2,0.1,0.3,0.1,0.5,0.2c-0.2,0-0.4,0-0.5-0.1
		c0.2,0.2,0.4,0.2,0.5,0.2C111.6,317,112.4,317,112.1,316.8"/>
	
		<linearGradient id="SVGID_22_" gradientUnits="userSpaceOnUse" x1="113.5903" y1="382.269" x2="115.5707" y2="376.2303" gradientTransform="matrix(0.9995 -3.120000e-02 3.120000e-02 0.9995 -13.6573 -59.4591)">
		<stop  offset="1.123600e-02" style="stop-color:#908186"/>
		<stop  offset="0.141" style="stop-color:#807177"/>
		<stop  offset="0.5225" style="stop-color:#53474E"/>
		<stop  offset="0.627" style="stop-color:#655A5F"/>
		<stop  offset="0.8138" style="stop-color:#817679"/>
		<stop  offset="0.9213" style="stop-color:#8B8183"/>
	</linearGradient>
	<path fill="url(#SVGID_22_)" stroke="#FFFFFF" d="M111.4,317.4c0.2,0.3,0.8,0.3,1.1,0.3c-0.1,0-0.2,0-0.3-0.1
		c0.2,0,0.5,0.1,0.7,0.1c-0.1,0-0.4-0.1-0.6-0.2c0.1,0,0.7,0.1,0.8,0.2c-0.5-0.2-1.4-0.4-1.9-0.5"/>
	
		<linearGradient id="SVGID_23_" gradientUnits="userSpaceOnUse" x1="115.3099" y1="383.2353" x2="117.665" y2="376.0542" gradientTransform="matrix(0.9995 -3.120000e-02 3.120000e-02 0.9995 -13.6573 -59.4591)">
		<stop  offset="1.123600e-02" style="stop-color:#908186"/>
		<stop  offset="0.141" style="stop-color:#807177"/>
		<stop  offset="0.5225" style="stop-color:#53474E"/>
		<stop  offset="0.627" style="stop-color:#655A5F"/>
		<stop  offset="0.8138" style="stop-color:#817679"/>
		<stop  offset="0.9213" style="stop-color:#8B8183"/>
	</linearGradient>
	<path fill="url(#SVGID_23_)" stroke="#FFFFFF" d="M113.7,317.5c0.2,0,0.4,0.1,0.6,0.2c0,0,0,0,0,0c0,0-0.1-0.1-0.1-0.1
		c0.1,0,0.2,0.1,0.3,0.2c-0.1-0.1-0.1-0.2,0-0.3c0,0.1,0.1,0.1,0,0.2c0.1-0.1,0.4-0.2,0.5-0.4C114.6,317.2,114,317.3,113.7,317.5"/>
	
		<linearGradient id="SVGID_24_" gradientUnits="userSpaceOnUse" x1="317.7296" y1="384.5186" x2="315.7201" y2="386.8827" gradientTransform="matrix(0.9104 -3.140000e-02 2.570000e-02 0.9181 -181.9396 -27.682)">
		<stop  offset="8.988800e-02" style="stop-color:#908186"/>
		<stop  offset="0.2838" style="stop-color:#807177"/>
		<stop  offset="0.8539" style="stop-color:#53474E"/>
	</linearGradient>
	<path fill="url(#SVGID_24_)" stroke="#FFFFFF" d="M116.2,317.2c-0.2,0.1-0.3,0.1-0.5,0.3c-0.2,0.1-0.4,0.2-0.6,0.2
		c0.2-0.1,0.4-0.2,0.5-0.3c-0.2,0-0.3,0.1-0.4,0.1c-0.2,0-0.3,0.1-0.5,0.1c0.8-0.1,1.2-0.8,1.9-0.7c-0.3-0.1-0.8,0.2-1,0.4
		c0.1-0.1,0.7-0.3,0.8-0.3c-0.1,0.1-0.5,0.2-0.6,0.3C115.8,317.3,116.1,317.2,116.2,317.2"/>
	
		<linearGradient id="SVGID_25_" gradientUnits="userSpaceOnUse" x1="119.5641" y1="378.927" x2="117.5545" y2="381.2913" gradientTransform="matrix(0.9995 -3.120000e-02 3.120000e-02 0.9995 -13.6573 -59.4591)">
		<stop  offset="8.988800e-02" style="stop-color:#908186"/>
		<stop  offset="0.2838" style="stop-color:#807177"/>
		<stop  offset="0.8539" style="stop-color:#53474E"/>
	</linearGradient>
	<path opacity="0.85" fill="url(#SVGID_25_)" stroke="#FFFFFF" d="M117.1,317.2c-0.6,0-1.3,0.2-1.8,0.5
		C115.8,317.6,116.4,317.1,117.1,317.2"/>
	
		<linearGradient id="SVGID_26_" gradientUnits="userSpaceOnUse" x1="198.6707" y1="-124.4829" x2="197.4363" y2="-126.1354" gradientTransform="matrix(-0.9264 -0.3765 -0.3765 0.9264 253.7218 508.3213)">
		<stop  offset="5.618000e-03" style="stop-color:#000000"/>
		<stop  offset="0.1327" style="stop-color:#211D1A"/>
		<stop  offset="0.2669" style="stop-color:#3D3430"/>
		<stop  offset="0.4027" style="stop-color:#504540"/>
		<stop  offset="0.5397" style="stop-color:#5C5049"/>
		<stop  offset="0.6798" style="stop-color:#60534C"/>
	</linearGradient>
	<path fill="url(#SVGID_26_)" stroke="#FFFFFF" d="M118.2,317.6c-0.1,0-0.1,0.1-0.2,0.1c-0.1,0-0.2,0-0.3,0c-0.2,0-0.5,0-0.7,0.1
		c0.1,0,0.2-0.1,0.3-0.1c-0.2,0-0.5,0-0.7,0.2c0.1-0.1,0.2-0.2,0.3-0.2c-0.1,0-0.2,0-0.3,0.1c-0.1,0-0.2,0.1-0.3,0.1
		c0.1-0.1,0.2-0.1,0.3-0.2c0.1,0,0.2-0.1,0.3-0.1c0.2-0.1,0.6-0.1,0.9-0.1c-0.1,0-0.3,0.1-0.6,0.1c-0.1,0-0.2,0.1-0.4,0.1
		c0.1-0.1,0.4,0,0.6,0C117.8,317.7,118,317.7,118.2,317.6"/>
	
		<linearGradient id="SVGID_27_" gradientUnits="userSpaceOnUse" x1="117.3664" y1="382.2113" x2="120.0117" y2="379.0305" gradientTransform="matrix(0.9995 -3.120000e-02 3.120000e-02 0.9995 -13.6573 -59.4591)">
		<stop  offset="5.618000e-03" style="stop-color:#000000"/>
		<stop  offset="0.1327" style="stop-color:#211D1A"/>
		<stop  offset="0.2669" style="stop-color:#3D3430"/>
		<stop  offset="0.4027" style="stop-color:#504540"/>
		<stop  offset="0.5397" style="stop-color:#5C5049"/>
		<stop  offset="0.6798" style="stop-color:#60534C"/>
	</linearGradient>
	<path fill="url(#SVGID_27_)" stroke="#FFFFFF" d="M117.7,317.3c-0.1,0.1-0.1,0.1-0.3,0.1c-0.1,0-0.2,0-0.3,0.1
		c-0.2,0-0.5,0-0.7,0.1c0.1-0.1,0.3-0.1,0.4-0.1c-0.2,0-0.6,0.1-0.8,0.3c0.1-0.1,0.2-0.2,0.4-0.2c-0.1,0-0.2,0-0.3,0.1
		c-0.1,0-0.2,0.1-0.3,0.1c0.1-0.1,0.2-0.2,0.3-0.2c0.1-0.1,0.2-0.1,0.3-0.1c0.2-0.1,0.6-0.1,1-0.2c-0.1,0-0.4,0.1-0.6,0.1
		c-0.1,0-0.3,0.1-0.4,0.2c0.2-0.1,0.5-0.1,0.7-0.1C117.2,317.4,117.5,317.4,117.7,317.3"/>
	
		<linearGradient id="SVGID_28_" gradientUnits="userSpaceOnUse" x1="-3577.3916" y1="1605.7136" x2="-3574.7461" y2="1602.5327" gradientTransform="matrix(-0.8263 -0.5632 0.5632 -0.8263 -3746.48 -371.1543)">
		<stop  offset="5.618000e-03" style="stop-color:#000000"/>
		<stop  offset="0.1327" style="stop-color:#211D1A"/>
		<stop  offset="0.2669" style="stop-color:#3D3430"/>
		<stop  offset="0.4027" style="stop-color:#504540"/>
		<stop  offset="0.5397" style="stop-color:#5C5049"/>
		<stop  offset="0.6798" style="stop-color:#60534C"/>
	</linearGradient>
	<path fill="url(#SVGID_28_)" stroke="#FFFFFF" d="M111.2,316.9c0.1,0,0.2,0,0.3,0.1c0.1,0,0.2,0.1,0.3,0.1c0.2,0.1,0.4,0.3,0.7,0.3
		c-0.1,0-0.3,0-0.4-0.1c0.2,0.1,0.5,0.3,0.8,0.3c-0.1,0-0.3,0-0.4,0c0.1,0,0.2,0.1,0.3,0.1c0.1,0,0.2,0,0.3,0.1c-0.1,0-0.3,0-0.4,0
		c-0.1,0-0.3-0.1-0.3-0.1c-0.2-0.1-0.6-0.3-0.9-0.4c0.1,0.1,0.4,0.1,0.6,0.2c0.1,0.1,0.3,0.1,0.4,0.1c-0.2,0-0.4-0.2-0.6-0.3
		C111.7,317.1,111.4,316.9,111.2,316.9"/>
	
		<linearGradient id="SVGID_29_" gradientUnits="userSpaceOnUse" x1="-210.4428" y1="337.8109" x2="-212.2607" y2="335.7333" gradientTransform="matrix(1.192 -2.400000e-03 7.490000e-02 1.2801 339.7225 -114.5705)">
		<stop  offset="5.618000e-03" style="stop-color:#000000"/>
		<stop  offset="0.1327" style="stop-color:#211D1A"/>
		<stop  offset="0.2669" style="stop-color:#3D3430"/>
		<stop  offset="0.4027" style="stop-color:#504540"/>
		<stop  offset="0.5397" style="stop-color:#5C5049"/>
		<stop  offset="0.6798" style="stop-color:#60534C"/>
	</linearGradient>
	<path fill="url(#SVGID_29_)" stroke="#FFFFFF" d="M113.7,317.6c-0.1,0-0.2,0-0.4-0.1c-0.1,0-0.3-0.1-0.4-0.1
		c-0.1-0.1-0.3-0.3-0.5-0.5c0.2,0.1,0.3,0.2,0.4,0.3c-0.2-0.1-0.4-0.4-0.5-0.6c0.2,0.2,0.4,0.5,0.7,0.6c0.3,0.1,0.6,0.1,0.8,0.3
		c0,0,0.3,0.2,0.3,0.3c-0.1-0.1-0.3-0.2-0.5-0.3c-0.2-0.1-0.4-0.1-0.5-0.2c0.1,0,0.4,0.2,0.4,0.2c-0.2,0-0.4-0.1-0.7-0.2
		c0,0,0,0,0,0C113.1,317.4,113.4,317.5,113.7,317.6"/>
	
		<linearGradient id="SVGID_30_" gradientUnits="userSpaceOnUse" x1="-246.1275" y1="411.5668" x2="-247.9449" y2="409.4898" gradientTransform="matrix(1.2148 -5.800000e-02 1.700000e-02 1.1855 406.3048 -184.0742)">
		<stop  offset="5.618000e-03" style="stop-color:#000000"/>
		<stop  offset="0.1327" style="stop-color:#211D1A"/>
		<stop  offset="0.2669" style="stop-color:#3D3430"/>
		<stop  offset="0.4027" style="stop-color:#504540"/>
		<stop  offset="0.5397" style="stop-color:#5C5049"/>
		<stop  offset="0.6798" style="stop-color:#60534C"/>
	</linearGradient>
	<path fill="url(#SVGID_30_)" stroke="#FFFFFF" d="M114.3,317.8c-0.1-0.1-0.3-0.2-0.4-0.3c-0.2-0.1-0.4-0.1-0.5-0.2
		c-0.3-0.1-0.6-0.3-0.7-0.5c0,0.2,0.4,0.3,0.6,0.4c-0.1,0-0.3-0.1-0.4-0.2c0.1,0.1,0.3,0.1,0.4,0.2c-0.2-0.1-0.3-0.1-0.4-0.2
		c-0.1-0.1-0.4-0.4-0.4-0.4c0,0.1,0.3,0.3,0.4,0.3c0.1,0.1,0.2,0.1,0.3,0.2c0.2,0.1,0.4,0.1,0.6,0.2c-0.2,0-0.3,0-0.4-0.1
		c0.1,0.1,0.5,0.1,0.6,0.1c-0.1,0-0.6,0-0.6,0c0,0.1,0.3,0.1,0.5,0.2c0.1,0,0.2,0.1,0.3,0.1C114.2,317.7,114.3,317.7,114.3,317.8"/>
	
		<linearGradient id="SVGID_31_" gradientUnits="userSpaceOnUse" x1="113.9362" y1="378.7986" x2="116.0513" y2="380.8476" gradientTransform="matrix(0.9995 -3.120000e-02 3.120000e-02 0.9995 -13.6573 -59.4591)">
		<stop  offset="8.988800e-02" style="stop-color:#908186"/>
		<stop  offset="0.2838" style="stop-color:#807177"/>
		<stop  offset="0.8539" style="stop-color:#53474E"/>
	</linearGradient>
	<path fill="url(#SVGID_31_)" stroke="#FFFFFF" d="M113.2,316.7c0.1,0.2,0.4,0.3,0.6,0.3c0.1,0,0.2,0.1,0.3,0.2
		c0.1,0.1,0.2,0.2,0.2,0.3c0-0.1-0.3-0.3-0.5-0.4c0.1,0,0.1,0.1,0.2,0.1c-0.1-0.1-0.1-0.1-0.2-0.1c0.2,0.1,0.5,0.4,0.6,0.6
		c-0.2-0.2-0.2-0.2-0.4-0.3c-0.1,0-0.2-0.1-0.3-0.1c-0.2-0.1-0.3-0.3-0.5-0.4c0.1,0.1,0.2,0.2,0.4,0.3c-0.1,0-0.2-0.1-0.2-0.2
		c0.1,0.1,0.3,0.2,0.5,0.3c-0.1-0.1-0.3-0.2-0.4-0.3c-0.1,0-0.2-0.1-0.3-0.1C113.3,316.8,113.2,316.8,113.2,316.7"/>
	
		<linearGradient id="SVGID_32_" gradientUnits="userSpaceOnUse" x1="114.132" y1="378.5963" x2="116.2472" y2="380.6454" gradientTransform="matrix(0.9995 -3.120000e-02 3.120000e-02 0.9995 -13.6573 -59.4591)">
		<stop  offset="8.988800e-02" style="stop-color:#908186"/>
		<stop  offset="0.2838" style="stop-color:#807177"/>
		<stop  offset="0.8539" style="stop-color:#53474E"/>
	</linearGradient>
	<path fill="url(#SVGID_32_)" stroke="#FFFFFF" d="M113.2,316.5c0.1,0.2,0.6,0.3,0.8,0.4c0.1,0,0.3,0.1,0.4,0.2
		c0.1,0.1,0.3,0.3,0.3,0.3c0-0.2-0.4-0.4-0.6-0.4c0.1,0,0.2,0.1,0.2,0.2c-0.1-0.1-0.1-0.1-0.2-0.1c0.3,0.1,0.6,0.4,0.7,0.7
		c-0.2-0.3-0.3-0.3-0.5-0.4c-0.1-0.1-0.3-0.1-0.4-0.1c-0.2-0.1-0.4-0.3-0.6-0.4c0.2,0.1,0.3,0.3,0.5,0.3c-0.1,0-0.2-0.1-0.2-0.2
		c0.1,0.1,0.5,0.3,0.7,0.3c-0.1-0.1-0.3-0.3-0.5-0.4c-0.1,0-0.3-0.1-0.4-0.1C113.4,316.7,113.3,316.6,113.2,316.5"/>
	
		<linearGradient id="SVGID_33_" gradientUnits="userSpaceOnUse" x1="117.6898" y1="382.4809" x2="120.3354" y2="379.2997" gradientTransform="matrix(0.9995 -3.120000e-02 3.120000e-02 0.9995 -13.6573 -59.4591)">
		<stop  offset="5.618000e-03" style="stop-color:#000000"/>
		<stop  offset="0.1327" style="stop-color:#211D1A"/>
		<stop  offset="0.2669" style="stop-color:#3D3430"/>
		<stop  offset="0.4027" style="stop-color:#504540"/>
		<stop  offset="0.5397" style="stop-color:#5C5049"/>
		<stop  offset="0.6798" style="stop-color:#60534C"/>
	</linearGradient>
	<path opacity="0.85" fill="url(#SVGID_33_)" stroke="#FFFFFF" d="M117.9,317.3c-0.4-0.1-1.1,0.2-1.6,0.4
		C116.9,317.7,117.4,317.3,117.9,317.3"/>
	
		<linearGradient id="SVGID_34_" gradientUnits="userSpaceOnUse" x1="119.786" y1="379.9035" x2="117.4061" y2="381.9589" gradientTransform="matrix(0.9995 -3.120000e-02 3.120000e-02 0.9995 -13.6573 -59.4591)">
		<stop  offset="5.618000e-03" style="stop-color:#000000"/>
		<stop  offset="0.1327" style="stop-color:#211D1A"/>
		<stop  offset="0.2669" style="stop-color:#3D3430"/>
		<stop  offset="0.4027" style="stop-color:#504540"/>
		<stop  offset="0.5397" style="stop-color:#5C5049"/>
		<stop  offset="0.6798" style="stop-color:#60534C"/>
	</linearGradient>
	<path fill="url(#SVGID_34_)" stroke="#FFFFFF" d="M117.4,317.3c-0.1,0-0.2,0-0.3,0c-0.1,0-0.2,0-0.3,0.1c-0.2,0-0.4,0.1-0.6,0.2
		c0.1,0,0.2,0,0.3-0.1c0.1,0,0.2-0.1,0.3-0.1c0.1,0,0.2-0.1,0.3-0.1C117.3,317.3,117.3,317.3,117.4,317.3"/>
	
		<linearGradient id="SVGID_35_" gradientUnits="userSpaceOnUse" x1="109.8021" y1="577.116" x2="107.9786" y2="579.2613" gradientTransform="matrix(0.9917 -0.1285 0.1285 0.9917 -66.6311 -243.2015)">
		<stop  offset="8.988800e-02" style="stop-color:#908186"/>
		<stop  offset="0.2838" style="stop-color:#807177"/>
		<stop  offset="0.8539" style="stop-color:#53474E"/>
	</linearGradient>
	<path fill="url(#SVGID_35_)" stroke="#FFFFFF" d="M115.4,317c-0.2,0.1-0.3,0.3-0.4,0.4c0,0.1-0.1,0.1-0.2,0.2
		c-0.1,0-0.2,0.1-0.3,0.1c0.1,0,0.3-0.2,0.4-0.3c0,0-0.1,0.1-0.1,0.1c0.1-0.1,0.1,0,0.1-0.1c-0.1,0.1-0.4,0.3-0.6,0.3
		c0.2-0.1,0.2-0.1,0.3-0.2c0.1-0.1,0.1-0.1,0.1-0.2c0.1-0.1,0.3-0.2,0.4-0.3c-0.1,0.1-0.2,0.1-0.3,0.2c0,0,0.1-0.1,0.2-0.1
		c-0.1,0-0.2,0.2-0.3,0.3c0.1-0.1,0.2-0.1,0.3-0.2c0,0,0.1-0.1,0.1-0.2C115.3,317,115.4,317,115.4,317"/>
	
		<linearGradient id="SVGID_36_" gradientUnits="userSpaceOnUse" x1="2940.5857" y1="2554.6426" x2="2938.9148" y2="2552.406" gradientTransform="matrix(0.4624 0.8867 0.8867 -0.4624 -3511.092 -1108.7247)">
		<stop  offset="5.618000e-03" style="stop-color:#000000"/>
		<stop  offset="0.1327" style="stop-color:#211D1A"/>
		<stop  offset="0.2669" style="stop-color:#3D3430"/>
		<stop  offset="0.4027" style="stop-color:#504540"/>
		<stop  offset="0.5397" style="stop-color:#5C5049"/>
		<stop  offset="0.6798" style="stop-color:#60534C"/>
	</linearGradient>
	<path opacity="0.85" fill="url(#SVGID_36_)" stroke="#FFFFFF" d="M113.7,317.7c-0.8-0.1-1.2-0.3-1.7-0.6c0.2,0.1,0.6,0.4,0.9,0.4
		c-0.4-0.1-0.9-0.4-1.3-0.6c0.4,0.2,0.7,0.3,1,0.4C113,317.4,113.1,317.5,113.7,317.7"/>
	
		<linearGradient id="SVGID_37_" gradientUnits="userSpaceOnUse" x1="2685.2332" y1="3087.8179" x2="2684.0752" y2="3086.2678" gradientTransform="matrix(0.4058 0.9139 0.9139 -0.4058 -3798.0398 -883.4315)">
		<stop  offset="5.618000e-03" style="stop-color:#000000"/>
		<stop  offset="0.1327" style="stop-color:#211D1A"/>
		<stop  offset="0.2669" style="stop-color:#3D3430"/>
		<stop  offset="0.4027" style="stop-color:#504540"/>
		<stop  offset="0.5397" style="stop-color:#5C5049"/>
		<stop  offset="0.6798" style="stop-color:#60534C"/>
	</linearGradient>
	<path fill="url(#SVGID_37_)" stroke="#FFFFFF" d="M112.1,317.1c0.5,0.4,0.9,0.5,1.5,0.6C113.1,317.6,112.6,317.5,112.1,317.1"/>
	
		<linearGradient id="SVGID_38_" gradientUnits="userSpaceOnUse" x1="-2555.4399" y1="1579.1283" x2="-2556.3984" y2="1579.9149" gradientTransform="matrix(-1.1436 -1.0147 0.7853 -0.8426 -4052.1501 -945.4479)">
		<stop  offset="5.618000e-03" style="stop-color:#000000"/>
		<stop  offset="0.1327" style="stop-color:#211D1A"/>
		<stop  offset="0.2669" style="stop-color:#3D3430"/>
		<stop  offset="0.4027" style="stop-color:#504540"/>
		<stop  offset="0.5397" style="stop-color:#5C5049"/>
		<stop  offset="0.6798" style="stop-color:#60534C"/>
	</linearGradient>
	<path opacity="0.72" fill="url(#SVGID_38_)" stroke="#FFFFFF" d="M113.4,317.6c0.2,0,0.3-0.1,0.4-0.1c-0.2,0-0.4,0-0.6,0
		c-0.1,0-0.3-0.1-0.4-0.1c-0.1,0-0.2-0.1-0.3-0.1c0.2,0.1,0.4,0.2,0.6,0.2c-0.4,0-0.8-0.2-1-0.4c0.2,0.1,0.5,0.3,0.7,0.3
		C112.9,317.6,113.2,317.6,113.4,317.6"/>
	
		<linearGradient id="SVGID_39_" gradientUnits="userSpaceOnUse" x1="111.3119" y1="378.1241" x2="114.0552" y2="380.981" gradientTransform="matrix(0.9995 -3.120000e-02 3.120000e-02 0.9995 -13.6573 -59.4591)">
		<stop  offset="5.618000e-03" style="stop-color:#000000"/>
		<stop  offset="0.1327" style="stop-color:#211D1A"/>
		<stop  offset="0.2669" style="stop-color:#3D3430"/>
		<stop  offset="0.4027" style="stop-color:#504540"/>
		<stop  offset="0.5397" style="stop-color:#5C5049"/>
		<stop  offset="0.6798" style="stop-color:#60534C"/>
	</linearGradient>
	<path opacity="0.72" fill="url(#SVGID_39_)" stroke="#FFFFFF" d="M112.1,317.6c0.2,0,0.4,0,0.5-0.1c-0.2,0-0.5,0-0.7,0
		c-0.1,0-0.3-0.1-0.4-0.2c-0.1-0.1-0.2-0.1-0.2-0.2c0.1,0.1,0.3,0.4,0.5,0.4c-0.4-0.1-0.8-0.4-0.9-0.6c0.2,0.2,0.4,0.4,0.6,0.5
		C111.6,317.6,111.8,317.6,112.1,317.6"/>
</g>
<image overflow="visible" opacity="0.31" width="6" height="13" xlink:href="AD97B0C21A12C85E.png"  transform="matrix(1 0 0 1 101 312.7)">
</image>
<path fill="#FFFFFF" d="M112.5,300.7c0,0-0.2,26.8,21.5,33.6c0,0-18-6.8-19.3-24.4c0,0,7.2,24.8,19.5,24.4c0.5,0,2.2,0.8,2.7,0.7
	c7.8-1.5,3.8-21.2-4.9-30.5c-5.9-6.3-17.5-4.8-19.3-4"/>
<linearGradient id="SVGID_40_" gradientUnits="userSpaceOnUse" x1="104.6119" y1="327.7521" x2="104.0276" y2="331.4201">
	<stop  offset="5.618000e-03" style="stop-color:#000000"/>
	<stop  offset="8.250293e-03" style="stop-color:#020202"/>
	<stop  offset="7.660516e-02" style="stop-color:#3D3D3D"/>
	<stop  offset="0.1466" style="stop-color:#717171"/>
	<stop  offset="0.2168" style="stop-color:#9C9C9C"/>
	<stop  offset="0.2871" style="stop-color:#C0C0C0"/>
	<stop  offset="0.3577" style="stop-color:#DCDCDC"/>
	<stop  offset="0.4286" style="stop-color:#EFEFEF"/>
	<stop  offset="0.5" style="stop-color:#FBFBFB"/>
	<stop  offset="0.573" style="stop-color:#FFFFFF"/>
</linearGradient>
<path opacity="0.42" fill="url(#SVGID_40_)" d="M103.6,328.6c-0.3,0-0.8-0.3-0.5-0.5c0.4-0.2,1.1,0,1.4,0.2c0.4,0.3,1.1,1.1,1.2,1.6
	c-0.1,0.1-0.7-0.5-1-0.7C104.6,328.9,104.1,328.7,103.6,328.6"/>
<path fill="#FFFFFF" d="M116,294.2c1-1.7,3.1-4.2,5-4.7c-1.1,0.4-1.9,1.7-2,2.8c2-1.9,4.3-3.6,7.1-3.6c-0.7,1.7,3.9,1.8,5,2.1
	c2.1,0.5,4,1.9,5.8,3c1.9,1.2,4,1.9,3.6,4.3c-0.3,2,0.3,3.9,1.7,5.4c1.1,1.2,2.8,2.1,4.2,3c1.7,1.1,3.3,1,5.4,1.1
	c0.1,0.1,0.4,0.5,0.5,0.6c-1.2,0.4-2.3,1-3.7,0.9c1.2,0.7,2.4,0.8,3.8,0.7c0,0-0.1,0.5-0.1,0.5c-1.3,0.1-2.7,0.8-3.8,1.2
	c0.7,0.2,1.4,0.1,2.1,0c-0.2,0.1-0.3,0.3-0.5,0.4c0.8,0.1,1.5-0.2,2.1-0.6c-1.7,1.6-4.2,1.1-6.3,1.5c2,0.8,4.9,0.6,6,0
	c-0.3,0.7-0.8,1.8-0.3,2.5c-0.5,0.3-1.5,1.1-1.7,1.7c-0.4,1.4,0.5,1.2-0.8,2.2c-0.8,0.7-1.8,1.7-2.7,2.2c-1.4,0.7-2.6-0.6-3.9-1.3
	c-1.1-0.6-2-1.5-3-2.2c-1.8-1.3-3.8-2.1-5.8-3c-3.1-1.4-5.9-3-8.7-4.9c-1.8-1.3-2.6-2.5-3.9-4.2c-1.4-2-1.6-3.8-2.4-6
	c-0.5-1.3-1.2-4.7-2.7-5.2c-0.2-0.2,0,0,0,0"/>
<image overflow="visible" opacity="0.57" width="9" height="7" xlink:href="AD97B0C21A12C862.png"  transform="matrix(1 0 0 1 99 324.7)">
</image>
<g>
	
		<linearGradient id="SVGID_41_" gradientUnits="userSpaceOnUse" x1="102.8742" y1="227.0871" x2="100.1248" y2="232.1736" gradientTransform="matrix(0.9992 4.080000e-02 -4.080000e-02 0.9992 14.5093 80.3613)">
		<stop  offset="1.123600e-02" style="stop-color:#908186"/>
		<stop  offset="0.141" style="stop-color:#807177"/>
		<stop  offset="0.5225" style="stop-color:#53474E"/>
		<stop  offset="0.9213" style="stop-color:#8B8183"/>
	</linearGradient>
	<path fill="url(#SVGID_41_)" stroke="#FFFFFF" d="M105.3,315.6c-0.1-0.1-0.2-0.2-0.2-0.2c0.1,0.1,0.2,0.2,0.3,0.2
		c0.1,0,0.2,0,0.3,0c0.1,0,0.1,0,0.2,0c-0.1,0-0.3,0-0.4,0c0.2,0.1,0.5,0.1,0.7,0.1c-0.2,0-0.3,0-0.5,0
		C105.5,315.8,105.4,315.7,105.3,315.6"/>
	
		<linearGradient id="SVGID_42_" gradientUnits="userSpaceOnUse" x1="99.2884" y1="225.3741" x2="96.6438" y2="230.2668" gradientTransform="matrix(0.9992 4.080000e-02 -4.080000e-02 0.9992 14.5093 80.3613)">
		<stop  offset="1.123600e-02" style="stop-color:#908186"/>
		<stop  offset="0.141" style="stop-color:#807177"/>
		<stop  offset="0.5225" style="stop-color:#53474E"/>
		<stop  offset="0.9213" style="stop-color:#8B8183"/>
	</linearGradient>
	<path fill="url(#SVGID_42_)" stroke="#FFFFFF" d="M101.9,312.2c0.3,0.1,0.7,0.5,0.8,0.7c0,0-0.1-0.1-0.2-0.2
		c-0.3-0.3-0.6-0.5-0.8-0.5c0.7,0.3,1.2,0.9,1.2,1c0-0.3-0.4-0.5-0.4-0.6c0.4,0.3,0.6,0.6,0.7,0.9c-0.1-0.3-0.2-0.6-0.5-0.8
		C102.7,312.4,102.3,312.3,101.9,312.2"/>
	
		<linearGradient id="SVGID_43_" gradientUnits="userSpaceOnUse" x1="100.2259" y1="225.8986" x2="97.5914" y2="230.7725" gradientTransform="matrix(0.9992 4.080000e-02 -4.080000e-02 0.9992 14.5093 80.3613)">
		<stop  offset="1.123600e-02" style="stop-color:#908186"/>
		<stop  offset="0.141" style="stop-color:#807177"/>
		<stop  offset="0.5225" style="stop-color:#53474E"/>
		<stop  offset="0.9213" style="stop-color:#8B8183"/>
	</linearGradient>
	<path fill="url(#SVGID_43_)" stroke="#FFFFFF" d="M102.8,312.8c0.3,0.2,0.6,0.7,0.7,0.9c0,0,0-0.1-0.1-0.2
		c-0.2-0.4-0.5-0.6-0.7-0.7c0.7,0.5,1,1.2,1,1.3c0-0.3-0.2-0.6-0.3-0.7c0.3,0.4,0.6,0.8,0.7,1.1c0-0.2-0.2-0.6-0.4-1
		C103.5,313.2,103.1,313,102.8,312.8"/>
	
		<linearGradient id="SVGID_44_" gradientUnits="userSpaceOnUse" x1="101.1222" y1="226.3738" x2="98.4963" y2="231.2317" gradientTransform="matrix(0.9992 4.080000e-02 -4.080000e-02 0.9992 14.5093 80.3613)">
		<stop  offset="1.123600e-02" style="stop-color:#908186"/>
		<stop  offset="0.141" style="stop-color:#807177"/>
		<stop  offset="0.5225" style="stop-color:#53474E"/>
		<stop  offset="0.9213" style="stop-color:#8B8183"/>
	</linearGradient>
	<path fill="url(#SVGID_44_)" stroke="#FFFFFF" d="M105.1,314.3c-0.1-0.1-0.1-0.3-0.2-0.4c-0.1-0.2-0.2-0.4-0.4-0.5
		c0.1,0.1,0.3,0.4,0.3,0.6c0-0.2-0.2-0.5-0.3-0.6c-0.1-0.2-0.2-0.3-0.5-0.4c0.3,0.2,0.4,0.5,0.5,0.7c0.1,0.1,0.1,0.3,0.2,0.4
		C104.9,314.1,105,314.2,105.1,314.3"/>
	
		<linearGradient id="SVGID_45_" gradientUnits="userSpaceOnUse" x1="101.7445" y1="226.663" x2="99.089" y2="231.5758" gradientTransform="matrix(0.9992 4.080000e-02 -4.080000e-02 0.9992 14.5093 80.3613)">
		<stop  offset="1.123600e-02" style="stop-color:#908186"/>
		<stop  offset="0.141" style="stop-color:#807177"/>
		<stop  offset="0.5225" style="stop-color:#53474E"/>
		<stop  offset="0.9213" style="stop-color:#8B8183"/>
	</linearGradient>
	<path fill="url(#SVGID_45_)" stroke="#FFFFFF" d="M105.6,315c-0.1-0.1,0.1,0.1-0.1-0.5c-0.1-0.2-0.3-0.6-0.4-0.7
		c0.1,0.1,0.3,0.4,0.3,0.6c0-0.2-0.2-0.5-0.3-0.6c-0.1-0.2-0.3-0.3-0.5-0.4c0.3,0.1,0.4,0.5,0.5,0.7c0.1,0.1,0.1,0.3,0.2,0.4
		c0.1,0.1,0.1,0.3,0.2,0.4"/>
	
		<linearGradient id="SVGID_46_" gradientUnits="userSpaceOnUse" x1="102.6197" y1="227.0888" x2="99.9373" y2="232.0512" gradientTransform="matrix(0.9992 4.080000e-02 -4.080000e-02 0.9992 14.5093 80.3613)">
		<stop  offset="1.123600e-02" style="stop-color:#908186"/>
		<stop  offset="0.141" style="stop-color:#807177"/>
		<stop  offset="0.5225" style="stop-color:#53474E"/>
		<stop  offset="0.9213" style="stop-color:#8B8183"/>
	</linearGradient>
	<path fill="url(#SVGID_46_)" stroke="#FFFFFF" d="M105.1,315.4c0-0.1,0.1,0.1,0.4,0.2c0.4,0.2,0.8,0.1,0.7,0c0-0.2-0.4-0.9-0.5-1
		c0.1,0.1,0.1,0.4,0.1,0.5c0-0.1-0.1-0.4-0.1-0.6c-0.1-0.2-0.2-0.3-0.3-0.4c0.2,0.2,0.3,0.5,0.3,0.7c0,0.1,0,0.2,0.1,0.4
		C105.7,315.4,105,315.3,105.1,315.4"/>
	
		<linearGradient id="SVGID_47_" gradientUnits="userSpaceOnUse" x1="-2636.344" y1="-1756.3809" x2="-2639.0808" y2="-1751.318" gradientTransform="matrix(-0.3605 0.9226 -0.8484 -0.263 -2332.1577 2288.9231)">
		<stop  offset="1.123600e-02" style="stop-color:#908186"/>
		<stop  offset="0.141" style="stop-color:#807177"/>
		<stop  offset="0.5225" style="stop-color:#53474E"/>
		<stop  offset="0.9213" style="stop-color:#8B8183"/>
	</linearGradient>
	<path opacity="0.72" fill="url(#SVGID_47_)" stroke="#FFFFFF" d="M105.4,315.8c-0.1-0.1-0.1-0.2-0.2-0.3c0.1,0.1,0.2,0.2,0.4,0.3
		c0.1,0,0.2,0,0.3,0c0.1,0,0.2,0,0.2,0c-0.2,0-0.4,0.1-0.5,0.1c0.2,0.1,0.6,0,0.9-0.1c-0.2,0.1-0.5,0.1-0.6,0.2
		C105.7,315.9,105.5,315.9,105.4,315.8"/>
	
		<linearGradient id="SVGID_48_" gradientUnits="userSpaceOnUse" x1="100.4626" y1="225.9937" x2="97.814" y2="230.8936" gradientTransform="matrix(0.9992 4.080000e-02 -4.080000e-02 0.9992 14.5093 80.3613)">
		<stop  offset="1.123600e-02" style="stop-color:#908186"/>
		<stop  offset="0.141" style="stop-color:#807177"/>
		<stop  offset="0.5225" style="stop-color:#53474E"/>
		<stop  offset="0.9213" style="stop-color:#8B8183"/>
	</linearGradient>
	<path fill="url(#SVGID_48_)" stroke="#FFFFFF" d="M101.3,312.2c1.1-0.9,2.3,0.3,3.3,1.3c0.4,0.5,0.9,1.3,1.4,1.9c0,0-0.2,0.4-0.9,0
		c-0.3-0.5-0.8-1.2-1.2-1.6c-0.7-0.7-1.8-2.3-2.9-1.4"/>
	
		<linearGradient id="SVGID_49_" gradientUnits="userSpaceOnUse" x1="-3881.9668" y1="-1499.1693" x2="-3879.9641" y2="-1505.2765" gradientTransform="matrix(-0.5559 -0.5025 -0.5063 0.5589 -2815.1243 -798.3168)">
		<stop  offset="1.123600e-02" style="stop-color:#908186"/>
		<stop  offset="0.141" style="stop-color:#807177"/>
		<stop  offset="0.5225" style="stop-color:#53474E"/>
		<stop  offset="0.627" style="stop-color:#655A5F"/>
		<stop  offset="0.8138" style="stop-color:#817679"/>
		<stop  offset="0.9213" style="stop-color:#8B8183"/>
	</linearGradient>
	<path fill="url(#SVGID_49_)" stroke="#FFFFFF" d="M103.7,312.7c-0.1-0.1-0.3-0.2-0.4-0.3c-0.1-0.1-0.4-0.3-0.5-0.4
		c0.1,0,0.4,0.3,0.5,0.4c-0.1-0.2-0.4-0.3-0.6-0.4c-0.2-0.1-0.3-0.2-0.5-0.2c0.3,0,0.6,0.3,0.8,0.5c0.1,0.1,0.2,0.2,0.3,0.3
		C103.4,312.6,103.6,312.6,103.7,312.7"/>
	
		<linearGradient id="SVGID_50_" gradientUnits="userSpaceOnUse" x1="98.8729" y1="226.8875" x2="99.4778" y2="230.4946" gradientTransform="matrix(0.9992 4.080000e-02 -4.080000e-02 0.9992 14.5093 80.3613)">
		<stop  offset="8.988800e-02" style="stop-color:#908186"/>
		<stop  offset="0.2539" style="stop-color:#807177"/>
		<stop  offset="0.736" style="stop-color:#53474E"/>
	</linearGradient>
	<path fill="url(#SVGID_50_)" stroke="#FFFFFF" d="M104,313.7c0.1,0.2,0.1,0.3,0.2,0.6c0.1,0.3,0.4,0.6,0.5,0.7
		c-0.1-0.2-0.3-0.4-0.4-0.7c0.1,0.2,0.1,0.2,0.2,0.4c0.1,0.2,0.1,0.4,0.3,0.5c-0.5-0.7-0.1-1.6-0.9-1.9c0.4,0.2,0.5,0.7,0.5,1
		c0-0.2-0.3-0.7-0.3-0.8c0,0.1,0.2,0.5,0.2,0.7C104.3,314.1,104.2,313.8,104,313.7"/>
	
		<linearGradient id="SVGID_51_" gradientUnits="userSpaceOnUse" x1="99.5104" y1="231.7605" x2="97.687" y2="226.4479" gradientTransform="matrix(0.9992 4.080000e-02 -4.080000e-02 0.9992 14.5093 80.3613)">
		<stop  offset="5.618000e-03" style="stop-color:#000000"/>
		<stop  offset="0.1327" style="stop-color:#211D1A"/>
		<stop  offset="0.2669" style="stop-color:#3D3430"/>
		<stop  offset="0.4027" style="stop-color:#504540"/>
		<stop  offset="0.5397" style="stop-color:#5C5049"/>
		<stop  offset="0.6798" style="stop-color:#60534C"/>
	</linearGradient>
	<path fill="url(#SVGID_51_)" stroke="#FFFFFF" d="M102.9,312.1c0,0.1,0.1,0.1,0.1,0.2c0.1,0.1,0.1,0.1,0.2,0.2
		c0.2,0.1,0.4,0.2,0.5,0.4c0-0.1-0.1-0.2-0.2-0.2c0.2,0.1,0.4,0.3,0.4,0.5c0-0.1-0.1-0.2-0.1-0.3c0.1,0.1,0.1,0.1,0.2,0.2
		c0.1,0.1,0.1,0.1,0.1,0.2c0-0.1-0.1-0.2-0.1-0.3c-0.1-0.1-0.1-0.2-0.2-0.2c-0.1-0.1-0.4-0.3-0.6-0.5c0.1,0.1,0.3,0.3,0.4,0.4
		c0.1,0.1,0.1,0.1,0.1,0.2c0-0.2-0.3-0.2-0.5-0.3C103.1,312.4,103,312.3,102.9,312.1"/>
	
		<linearGradient id="SVGID_52_" gradientUnits="userSpaceOnUse" x1="100.1872" y1="227.2976" x2="100.0307" y2="231.9243" gradientTransform="matrix(0.9992 4.080000e-02 -4.080000e-02 0.9992 14.5093 80.3613)">
		<stop  offset="8.988800e-02" style="stop-color:#908186"/>
		<stop  offset="0.2539" style="stop-color:#807177"/>
		<stop  offset="0.736" style="stop-color:#53474E"/>
	</linearGradient>
	<path fill="url(#SVGID_52_)" stroke="#FFFFFF" d="M104.7,314.3c0,0.1,0,0.3,0.1,0.4c0,0.1,0.1,0.3,0.1,0.4c0.1,0.2,0.3,0.3,0.5,0.6
		c-0.1-0.2-0.2-0.3-0.3-0.4c0.1,0.2,0.4,0.5,0.6,0.6c-0.2-0.2-0.5-0.5-0.6-0.8c-0.1-0.3-0.1-0.6-0.3-0.8c0,0-0.2-0.3-0.2-0.3
		c0.1,0.1,0.2,0.3,0.3,0.5c0.1,0.2,0.1,0.4,0.1,0.6c0-0.1-0.1-0.4-0.2-0.5c0,0.2,0.1,0.5,0.2,0.7c0,0,0,0,0,0
		C104.8,315,104.7,314.6,104.7,314.3"/>
	
		<linearGradient id="SVGID_53_" gradientUnits="userSpaceOnUse" x1="98.3096" y1="226.9797" x2="98.9148" y2="230.5887" gradientTransform="matrix(0.9992 4.080000e-02 -4.080000e-02 0.9992 14.5093 80.3613)">
		<stop  offset="8.988800e-02" style="stop-color:#908186"/>
		<stop  offset="0.2838" style="stop-color:#807177"/>
		<stop  offset="0.8539" style="stop-color:#53474E"/>
	</linearGradient>
	<path fill="url(#SVGID_53_)" stroke="#FFFFFF" d="M103.2,312.5c0,0.1,0,0.2,0.1,0.3c0,0.1,0.1,0.2,0.2,0.3c0.2,0.3,0.4,0.5,0.5,0.8
		c0-0.1-0.1-0.4-0.2-0.5c0.2,0.2,0.4,0.6,0.4,0.9c0-0.2,0-0.4,0-0.5c0,0.1,0.1,0.2,0.2,0.4c0,0.1,0.1,0.1,0.1,0.2
		c0-0.2,0-0.2-0.1-0.3c0-0.2-0.1-0.3-0.1-0.4c-0.1-0.3-0.4-0.7-0.6-1c0.1,0.1,0.2,0.4,0.4,0.7c0.1,0.1,0.1,0.3,0.2,0.5
		c0-0.3-0.3-0.5-0.5-0.6C103.4,313.1,103.2,312.7,103.2,312.5"/>
	
		<linearGradient id="SVGID_54_" gradientUnits="userSpaceOnUse" x1="97.5672" y1="225.788" x2="98.262" y2="230.9419" gradientTransform="matrix(0.9992 4.080000e-02 -4.080000e-02 0.9992 14.5093 80.3613)">
		<stop  offset="8.988800e-02" style="stop-color:#908186"/>
		<stop  offset="0.2339" style="stop-color:#807177"/>
		<stop  offset="0.6573" style="stop-color:#53474E"/>
	</linearGradient>
	<path fill="url(#SVGID_54_)" stroke="#FFFFFF" d="M102.5,312.2c0,0.1,0.1,0.2,0.1,0.3c0.1,0.1,0.1,0.2,0.2,0.3
		c0.2,0.2,0.4,0.3,0.5,0.6c0-0.1-0.1-0.3-0.2-0.4c0.2,0.2,0.4,0.5,0.4,0.7c0-0.1,0-0.3-0.1-0.4c0.1,0.1,0.1,0.2,0.2,0.3
		c0.1,0.1,0.1,0.2,0.1,0.3c0-0.1-0.1-0.3-0.1-0.4c-0.1-0.1-0.1-0.2-0.2-0.3c-0.1-0.2-0.4-0.5-0.6-0.8c0.1,0.1,0.2,0.3,0.4,0.5
		c0.1,0.1,0.2,0.2,0.2,0.4c0-0.2-0.3-0.4-0.5-0.5C102.7,312.6,102.5,312.4,102.5,312.2"/>
	
		<linearGradient id="SVGID_55_" gradientUnits="userSpaceOnUse" x1="-3221.6038" y1="-1186.0759" x2="-3224.5835" y2="-1183.5024" gradientTransform="matrix(-0.6664 -0.7456 -0.7456 0.6664 -2927.6558 -1300.1304)">
		<stop  offset="5.618000e-03" style="stop-color:#000000"/>
		<stop  offset="0.1549" style="stop-color:#161311"/>
		<stop  offset="0.6798" style="stop-color:#60534C"/>
	</linearGradient>
	<path fill="url(#SVGID_55_)" stroke="#FFFFFF" d="M103.3,312.6c0,0.1,0.1,0.2,0.2,0.3c0,0.1,0.1,0.2,0.1,0.3
		c0.1,0.2,0.2,0.5,0.2,0.7c-0.1-0.1-0.1-0.2-0.1-0.3c0-0.1-0.1-0.2-0.1-0.3c0-0.1-0.1-0.2-0.1-0.3
		C103.4,312.8,103.4,312.7,103.3,312.6"/>
	
		<linearGradient id="SVGID_56_" gradientUnits="userSpaceOnUse" x1="-477.8257" y1="393.2563" x2="-477.6996" y2="394.937" gradientTransform="matrix(1.3958 -5.260000e-02 -0.1449 0.862 829.5736 -49.7139)">
		<stop  offset="8.988800e-02" style="stop-color:#908186"/>
		<stop  offset="0.2539" style="stop-color:#807177"/>
		<stop  offset="0.736" style="stop-color:#53474E"/>
	</linearGradient>
	<path fill="url(#SVGID_56_)" stroke="#FFFFFF" d="M105.2,314.8c0,0.1,0,0.2,0,0.2c0,0.1,0,0.2,0.1,0.3c0.1,0.1,0.2,0.2,0.4,0.4
		c-0.1-0.2-0.2-0.2-0.2-0.3c0.1,0.1,0.3,0.3,0.5,0.4c-0.2-0.1-0.4-0.3-0.5-0.5c0-0.2,0-0.4-0.2-0.5c0,0-0.2-0.2-0.2-0.2
		c0.1,0.1,0.2,0.2,0.2,0.3c0,0.1,0,0.3,0,0.4c0-0.1-0.1-0.2-0.1-0.3c0,0.2,0,0.3,0.1,0.4c0,0,0,0,0,0
		C105.3,315.2,105.3,315,105.2,314.8"/>
	
		<linearGradient id="SVGID_57_" gradientUnits="userSpaceOnUse" x1="100.3427" y1="229.8967" x2="100.4685" y2="231.5745" gradientTransform="matrix(0.9992 4.080000e-02 -4.080000e-02 0.9992 14.5093 80.3613)">
		<stop  offset="8.988800e-02" style="stop-color:#908186"/>
		<stop  offset="0.2838" style="stop-color:#807177"/>
		<stop  offset="0.8539" style="stop-color:#53474E"/>
	</linearGradient>
	<path opacity="0.85" fill="url(#SVGID_57_)" stroke="#FFFFFF" d="M105.2,314.8c0,0.5,0.1,0.7,0.3,1c-0.1-0.1-0.2-0.2-0.3-0.5
		c0.1,0.2,0.2,0.3,0.4,0.5c-0.1-0.1-0.2-0.2-0.3-0.4C105.3,315.2,105.3,315.1,105.2,314.8"/>
	
		<linearGradient id="SVGID_58_" gradientUnits="userSpaceOnUse" x1="96.2353" y1="228.667" x2="97.6782" y2="226.9264" gradientTransform="matrix(0.9992 4.080000e-02 -4.080000e-02 0.9992 14.5093 80.3613)">
		<stop  offset="8.988800e-02" style="stop-color:#908186"/>
		<stop  offset="0.2838" style="stop-color:#807177"/>
		<stop  offset="0.8539" style="stop-color:#53474E"/>
	</linearGradient>
	<path fill="url(#SVGID_58_)" stroke="#FFFFFF" d="M102.1,312.2c0.1,0,0.2,0.1,0.2,0.1c-0.1-0.1-0.2-0.1-0.3-0.1c-0.1,0-0.3,0-0.5,0
		c0.2-0.1,0.3,0,0.4,0c-0.3-0.1-0.5,0-0.7,0c0.2-0.1,0.3-0.1,0.5-0.1C101.8,312.1,102,312.1,102.1,312.2"/>
	
		<linearGradient id="SVGID_59_" gradientUnits="userSpaceOnUse" x1="-404.9666" y1="-191.3855" x2="-403.7109" y2="-192.9004" gradientTransform="matrix(1.2338 0.4007 -0.2476 1.2166 553.8211 707.7853)">
		<stop  offset="8.988800e-02" style="stop-color:#908186"/>
		<stop  offset="0.2838" style="stop-color:#807177"/>
		<stop  offset="0.8539" style="stop-color:#53474E"/>
	</linearGradient>
	<path fill="url(#SVGID_59_)" stroke="#FFFFFF" d="M102.5,312.3c0.1,0.1,0.2,0.2,0.2,0.2c-0.1-0.1-0.2-0.2-0.3-0.3
		c-0.1-0.1-0.3-0.1-0.5-0.2c0.2,0,0.4,0.1,0.5,0.1c-0.3-0.2-0.5-0.1-0.7-0.1c0.2,0,0.4,0,0.5,0C102.2,312.1,102.4,312.2,102.5,312.3
		"/>
</g>
<path fill="#FFFFFF" d="M116.5,313.8c0,0,4.3,22.8,17.8,22.8l0.4-0.3c0,0-12.2,2.4-17.6-21.6c0,0,4.6,24,18.5,20.6l0.7-1.1
	c0,0-12.5,6.1-18.2-19.1L116.5,313.8z"/>
<g>
	<path fill="none" stroke="#FFFFFF" d="M108.4,343.6c0.1,0.1,5.9,5,5.5,13.7c0,0,1.8-6.1-4.3-13.8L108.4,343.6z"/>
</g>
<g>
	<path fill="none" stroke="#FFFFFF" stroke-miterlimit="10" d="M115.1,357.1c-1.7,0.3-3,0.8-3.7,1.1c-4.8,2.3-5.9,6.7-3.4,13.1
		c1.8,4.4,3.5,10,5.1,15l1.8,5.6l0.2-0.1l-1-5.3c-1.5-5-4-10.9-5.8-15.3c-2.5-6.2-1.4-10.6,3.2-12.9c0.6-0.3,2.9-0.9,4.5-1.1
		c4.5-0.7,10.6-1,9.3-5C125.3,352.2,126.1,354.9,115.1,357.1z"/>
</g>
<g>
	<path fill="none" stroke="#FFFFFF" d="M127,337.2c0.1,2.8,1,6.3,2.8,10.1c1.1,2.4,3.9,6.7,5.7,9.7c4,6.6,5.5,11.2,6.3,17.4
		c0.8,6.1,1,9.4,1,13.8c0,1.7,0.2,2.7,0.2,4.2h0.3c0-1.5,0.3-4.5,0.2-6.2c-0.2-6.9,0.5-8.7-0.2-13c-1-5.2-1.9-9.5-5.7-15
		c-1.6-2.3-6.5-8.8-8.1-12.6c-1.6-3.8-1.6-6.2-1.4-8.4L127,337.2z"/>
</g>
<g>
	<path fill="none" stroke="#FFFFFF" d="M108.7,373c3.4,6.3-0.4,10.5-3.7,13.2c-1.5,1.2-3.2,4-3.4,5.7l1.6,0c0-1.4,1.7-4.1,3-5.5
		c3-3.1,5.9-6.6,2.8-13.5L108.7,373z"/>
</g>
<path fill="#FFFFFF" d="M134,292.9c0.8-0.3,1.9-1.6,2.7-2.2c1.1-0.8,2.3-1.2,3.5-1.7c2.5-1,5.5-1.5,8-0.4c1.9,0.8,3,2.3,2.8,2.1
	c-3.1-2.9-5.2-2.6-6.2-2.4c-1.9,0.3-2.8,1.2-3.5,1.6c-1.8,1-1.4,0.8-3.1,2c2.9-1.7,4.5-3.3,8-3.1c2.8,0.2,6.3,2.1,6.8,5.1
	c0.1,0.5,0.3,2,0.3,2.4c-0.9-3.6-4.7-4.4-6.4-4.4c-2.3,0-4.5,1-6.6,1.6c3.1-1.8,8.7-1.2,11.6,0.8c0.7,0.5,1.5,1.4,1.9,2.1
	c0.5,0.7,0.7,1.6,0.8,2.5c0.2,1.8-0.2,3.1-1.6,4.2c1.3-1.1,1.3-3.3,0.8-4.7c-0.7-2.2-4-3.5-6.2-3.4c3.9,0.7,7.4,3.1,5.3,7.7
	c1.5-3.5-0.3-5.6-2.3-6.4c-1.3-0.5-6.1-0.3-4.1,2c1.1,1.3,3.6,2.3,5.2,2.8c1,0.3,2.2,0.2,2.1,1.3c-0.2,1.2-1.5,1-2.4,1.3
	c-0.3,0.1-0.7,0.2-1,0.2c0.8,0.3,2.1,0.2,2.9-0.1c-0.5,1.2-2.9,1.3-4,1.9c0.9,0,1.7,0.3,2.5,0c-1.5,0.7-0.4,1.6,0.6,1.8
	c0.1,0.8-0.7,0.7-0.9,1c-0.1,0.2-0.1,0.4-0.1,0.4c0.1,0.1,1.3,0.2,0.3,1.1c-2.2-0.1-4,0-6.1-0.5c-1.9-0.5-4-0.8-5.8-1.8
	c-2.6-1.4-5.2-2.4-7.4-4.4c-0.8-0.7-1.5-1.6-2.2-2.4c-0.4-0.4-2-1.5-2.1-2.2c-0.4-2.1,4.8-4.7,5.7-6.4"/>
<g>
	<path fill="none" stroke="#FFFFFF" d="M127.8,372.6c0,2.2,1.2,11,4.8,19.6l1.2,0C130.2,386.8,127.8,372.6,127.8,372.6z"/>
</g>
<path fill="#FFFFFF" d="M121.6,324.5c0.6,1.9,1.2,2.5,0.3,6.1c-0.5,2-1.8,2.7-0.5,4.7c1,1.5,3,2.5,3.3,4.3c0.3,1.6-2.8,3.8-3.7,5.4
	c-1.1,1.9-1.6,3.6-0.5,6.2c0.8,1.8,3.9,3.4,4.5,1.1c-1,2-3.5,0.8-4.3-1.4c-1-2.4-0.2-4,0.4-5.4c0.7-1.5,2.2-2.7,3.1-4
	c1.2-1.8,0.3-3.1-1-4.4c-2-2.1-1.8-3.9-0.8-6.5c0.4-1.1,1-2.3,1-3.5c0-0.5-0.1-1.6-0.3-2.1C122.6,324.3,122.6,324.5,121.6,324.5"/>
<path fill="#FFFFFF" d="M123.5,326.4c0.7,1.1-0.8,4-1.3,5.1c-1,1.9-0.5,3.2,1.1,4.5c1.9,1.6,3.1,2.8,1.3,5c-1.2,1.5-2.5,3-2.8,4.9
	c-0.1,0.9-0.2,2.2,0.8,2.8c0.9,0.5,2.1-0.1,1.6-0.9c-0.1-0.2-0.4-0.4-0.5-0.4c1,0.7-0.5,1.4-1.3,0.7c-0.7-0.7-0.5-1.9-0.3-2.7
	c0.5-1.9,1.5-3,2.8-4.4c1.3-1.4,2-2.8,0.1-4c-1.4-0.9-3.3-2-3-4c0.4-2.3,3.1-2.5,4.5-3.9c-0.8-0.5-1.6-0.9-2.4-1.4"/>
<path fill="#FFFFFF" d="M124.8,327.4c0.4,0.8-1,4.8-1.7,5.6c-1.2,1.7-1.3,3-1.4,5.1c-0.2,3.6,4.2,6.4,4.6,10.2
	c0.3,2.6-2.3,4.7-3.1,7.1c-0.5,1.4-1,3.5-0.2,4.9c0.3,0.5,0.9,1.2,1.6,1c0.8-0.1,0.6-1.4-0.3-1.1c0.4-0.1,0.7,0.1,0.7,0.3
	c0.1,0.4-0.5,0.6-0.7,0.4c-0.7-0.3-0.9-1.1-1-1.5c-0.2-1,0-2,0.1-3.1c0.2-2.1,1.6-3.6,2.6-5.4c1.2-2.1,1.2-3.2,0-5.2
	c-0.9-1.6-2-3.1-3-4.7c-1.3-2.1-0.4-4.6,1-6.6c1.4-1.8,3.1-2.2,4.6-5.7c-1-0.6-2.1,0.6-2.7-0.5c-0.2-0.1-0.1,0.1-0.2,0.1"/>
<path fill="#FFFFFF" d="M132.7,337c0.3,0.3,0.3,0.9,0.2,1.3c-0.1,0.5-0.4,0.6-0.7,1c0.3,0.2,0.9,0.3,1.2,0c0.4-0.8,0.5-1.5,0.3-2.3
	C133.4,337,133.1,336.9,132.7,337"/>
<path fill="#FFFFFF" d="M148.2,311.6c0.1,0,2.3,0.6,4.1-0.9c0,0,0.1,0,0.1,0.2c0,0-3.1,2.2-4.3,1.2L148.2,311.6z"/>
<image overflow="visible" opacity="0.36" width="7" height="4" xlink:href="AD97B0C21A12C865.png"  transform="matrix(1 0 0 1 99 335.7)">
</image>
<linearGradient id="SVGID_60_" gradientUnits="userSpaceOnUse" x1="103.2236" y1="336.4997" x2="103.6542" y2="329.1794">
	<stop  offset="0" style="stop-color:#CA8895"/>
	<stop  offset="0.4057" style="stop-color:#D5AEB6"/>
	<stop  offset="0.7848" style="stop-color:#DECCCF"/>
	<stop  offset="1" style="stop-color:#E1D7D9"/>
</linearGradient>
<path fill="url(#SVGID_60_)" d="M99.1,332.5c0.1-0.6,1.3-1.7,1.9-1.2c0.5,0.4,0.7,0.8,1.8,0.6c1-0.2,2.1,1.5,2.2,1.6
	c0.8,0.9,0.7,1,1.9,2.1c0.4,0.3,1,0.6,0.7,0.9c-0.6,0.2-1.6-0.2-2-0.6c-0.6-0.4-1.5-0.9-2-1.2c-0.6-0.4-1.6-1.1-2.3-1.1
	c-1,0-1.1,0.8-1.5,0.3C99.2,333.6,99.1,332.9,99.1,332.5"/>
<image overflow="visible" opacity="0.6" width="9" height="6" xlink:href="AD97B0C21A12C866.png"  transform="matrix(1 0 0 1 99 330.7)">
</image>
<radialGradient id="SVGID_61_" cx="102.8194" cy="332.4084" r="6.2271" gradientUnits="userSpaceOnUse">
	<stop  offset="0.3315" style="stop-color:#EDD4EB"/>
	<stop  offset="0.3939" style="stop-color:#E8CDE5"/>
	<stop  offset="0.4828" style="stop-color:#D9BBD3"/>
	<stop  offset="0.5876" style="stop-color:#C09CB6"/>
	<stop  offset="0.7035" style="stop-color:#9E718D"/>
	<stop  offset="0.8034" style="stop-color:#7C4765"/>
	<stop  offset="0.9254" style="stop-color:#CFBAC7"/>
	<stop  offset="1" style="stop-color:#FFFCFF"/>
</radialGradient>
<path fill="url(#SVGID_61_)" d="M99.1,332.5c-0.2,0.4,0.1,1,0.3,1.2c0.3-0.2,1,0.2,1,0.2c0.1-0.1,0.3-0.1,0.6-0.1
	c0.5,0,1.1,0.3,1.5,0.6c0.5,0.3,1,0.6,1.5,0.8c0.4,0.1,1,0.5,1.6,0.7c0,0,1.4,0.8,2,0.8c0.3-0.1-0.2-0.6-0.3-0.6
	c-0.5,0.3-1.2-0.1-1.7-0.3c-0.6-0.3-1.4-0.6-2-1c-1.2-0.8-2.1-1.4-3.3-1.2C99.3,333.7,99.1,333.1,99.1,332.5"/>
<image overflow="visible" opacity="0.96" width="9" height="6" xlink:href="AD97B0C21A12C864.png"  transform="matrix(1 0 0 1 99 330.7)">
</image>
<linearGradient id="SVGID_62_" gradientUnits="userSpaceOnUse" x1="104.236" y1="333.7691" x2="101.122" y2="339.4782">
	<stop  offset="0" style="stop-color:#CA7495"/>
	<stop  offset="0.2187" style="stop-color:#CF95A7"/>
	<stop  offset="0.5737" style="stop-color:#D7C4C2"/>
	<stop  offset="0.8457" style="stop-color:#DCE2D3"/>
	<stop  offset="1" style="stop-color:#DEEDD9"/>
</linearGradient>
<path fill="url(#SVGID_62_)" d="M99.4,333.7c-0.5,0.6-0.5,1.5-0.2,2.2c0.4,0.7,0.9,0.9,1.7,1.2c1.3,0.6,2.6,0.8,3.8,0.4
	c1-0.3,0.9-0.2,1.5-0.4c0.5-0.2,0.9-0.3,1.1-0.3c0.9-0.3-0.6-0.3-1.3-0.7c-1-0.6-1.4-0.7-2-0.9c-0.7-0.3-2-0.3-2.3-0.5
	C100.9,334,100.1,333.5,99.4,333.7"/>
<image overflow="visible" width="10" height="5" xlink:href="AD97B0C21A12C863.png"  transform="matrix(1 0 0 1 98 332.7)">
</image>
<image overflow="visible" opacity="0.75" width="10" height="5" xlink:href="AD97B0C21A12C86D.png"  transform="matrix(1 0 0 1 98 332.7)">
</image>
<g>
	<g>
		<g>
			
				<linearGradient id="SVGID_63_" gradientUnits="userSpaceOnUse" x1="343.6928" y1="443.8752" x2="354.4912" y2="434.7314" gradientTransform="matrix(-0.9338 -0.5874 -0.448 0.8793 645.1036 248.8778)">
				<stop  offset="0" style="stop-color:#B0CF00"/>
				<stop  offset="0.522" style="stop-color:#69B52E"/>
				<stop  offset="1" style="stop-color:#008839"/>
			</linearGradient>
			<path fill="url(#SVGID_63_)" d="M113,416.5c0,0,8.5,4.1,7.2,11.6c0,0,5.1,0.1,5.6,1.6c0,0-9.6-12-8.8-14.8L113,416.5z"/>
			<g>
				
					<linearGradient id="SVGID_64_" gradientUnits="userSpaceOnUse" x1="52.8427" y1="464.5479" x2="12.7352" y2="430.9988" gradientTransform="matrix(-0.9997 -0.4179 -0.271 0.9715 225.7574 -46.7028)">
					<stop  offset="0" style="stop-color:#B0CF00"/>
					<stop  offset="0.3252" style="stop-color:#69B52E"/>
					<stop  offset="0.7362" style="stop-color:#136D30"/>
				</linearGradient>
				<path fill="url(#SVGID_64_)" d="M66.2,319.3c0,0,0,0.2,0.1,0.5c-2.2,15.3,2.7,38.4,8.2,49.9c14.3,29.8,34.5,42.9,42.5,47.2
					c-0.1,0.2-0.2,0.3-0.2,0.3C17,414.6,66.2,319.3,66.2,319.3z"/>
				
					<linearGradient id="SVGID_65_" gradientUnits="userSpaceOnUse" x1="6.6079" y1="422.2567" x2="37.573" y2="460.0397" gradientTransform="matrix(-0.9997 -0.4179 -0.271 0.9715 225.7574 -46.7028)">
					<stop  offset="0" style="stop-color:#B0CF00"/>
					<stop  offset="0.6564" style="stop-color:#69B52E"/>
					<stop  offset="1" style="stop-color:#136D30"/>
				</linearGradient>
				<path fill="url(#SVGID_65_)" d="M74.5,369.7c-5.5-11.5-10.5-34.6-8.2-49.9c0.7,3.6-2.6,24.7,35.6,47.5
					c31.6,18.8,16.8,46.8,15.1,49.6C109,412.6,88.7,399.5,74.5,369.7z"/>
			</g>
		</g>
		<g>
			<g>
				<g>
					<path fill="#FFFFFF" d="M58.9,377c0-0.1,4,7.1,12.2,13.3c8,6.4,19.3,11.4,26.8,13.2c0,0.1-11.4-1.6-21.5-8.2
						c-5.1-3.2-9.8-8.8-12.8-12.1C60.6,379.8,59.1,377.2,58.9,377z"/>
				</g>
			</g>
			<g>
				<g>
					<path fill="#FFFFFF" d="M108.8,385c-0.1,0,2.8,4.5,3.3,10.4c0.7,5.9-1.1,12.5-2.8,16.6c0,0.1,4.8-6,4.9-13
						C114.7,391.9,109.1,385.1,108.8,385z"/>
				</g>
			</g>
			<g>
				<g>
					<path fill="#FFFFFF" d="M79.1,380.9c0,0-1.5-5.2-2.2-11.7c-0.8-6.4-0.4-14.2,2.1-18.4c0,0-1.1,1.5-1.9,4.2
						c-0.8,2.7-1.2,4.3-1,8.1C76.5,370.8,79.1,380.6,79.1,380.9z"/>
				</g>
			</g>
			<g>
				<g>
					<path fill="#FFFFFF" d="M53.7,355.6c0.1-0.1,1.4,7,6.6,14.8c2.6,3.8,6.3,9.3,10.3,12.2c4,2.9,8.3,3.3,11.8,4.1
						c0,0-2.7-0.7-6.3-2.7c-3.7-1.9-8.2-5.3-11.9-9.4C56.6,366.4,53.8,355.8,53.7,355.6z"/>
				</g>
			</g>
			<g>
				<g>
					<path fill="#FFFFFF" d="M92,392.4c0,0,4.4,0.3,6.3-3.4c1.9-3.6-0.6-17.3-1-20.5c0,0,2.1,12.1,0.6,16.6c-0.7,2.3-2,4.3-3.3,5.5
						C93.3,391.8,92.1,392.3,92,392.4z"/>
				</g>
			</g>
			<g>
				<g>
					<path fill="#FFFFFF" stroke="#FFFFFF" stroke-width="0.3224" d="M66.2,319.4c0,0-0.7,4.5-0.9,11.9c-0.1,7.4,0.5,18,4,29.5
						c3.4,11.5,10,23.8,18.8,33.7c8.7,10,19.3,17.7,28.3,21.6c0.1,0-6.8-3.3-15.4-10.5c-8.6-7.1-18.7-18.4-25-31.4
						c-6.6-12.9-9.3-26.8-9.9-37.1C65.4,326.8,66.3,319.9,66.2,319.4z"/>
				</g>
			</g>
		</g>
	</g>
	<g>
		<g>
			
				<linearGradient id="SVGID_66_" gradientUnits="userSpaceOnUse" x1="-372.3494" y1="41.9888" x2="-361.5486" y2="32.843" gradientTransform="matrix(0.7478 -0.3782 0.2767 0.6967 386.3883 264.5976)">
				<stop  offset="0" style="stop-color:#B0CF00"/>
				<stop  offset="0.522" style="stop-color:#69B52E"/>
				<stop  offset="1" style="stop-color:#008839"/>
			</linearGradient>
			<path fill="url(#SVGID_66_)" d="M130.2,419.8c0,0-5.3,3.9-4.8,9.7c0,0-5.3-1.8-5.8-0.6c0,0,8.1-8.4,7.7-10.6L130.2,419.8z"/>
			<g>
				
					<linearGradient id="SVGID_67_" gradientUnits="userSpaceOnUse" x1="-723.8884" y1="200.1938" x2="-764.0013" y2="166.6403" gradientTransform="matrix(0.7856 -0.2454 0.1363 0.7539 723.8916 70.1555)">
					<stop  offset="0" style="stop-color:#B0CF00"/>
					<stop  offset="0.3252" style="stop-color:#69B52E"/>
					<stop  offset="0.7362" style="stop-color:#136D30"/>
				</linearGradient>
				<path fill="url(#SVGID_67_)" d="M172.5,349.5c0,0,0,0.1-0.1,0.3c0.6,11.8-4.8,28.9-9.7,37.2c-12.9,21.5-29.2,30-35.5,32.7
					c0.1,0.1,0.1,0.2,0.1,0.2C203,425.1,172.5,349.5,172.5,349.5z"/>
				
					<linearGradient id="SVGID_68_" gradientUnits="userSpaceOnUse" x1="-770.1304" y1="157.8993" x2="-739.1635" y2="195.6845" gradientTransform="matrix(0.7856 -0.2454 0.1363 0.7539 723.8916 70.1555)">
					<stop  offset="0" style="stop-color:#B0CF00"/>
					<stop  offset="0.6564" style="stop-color:#69B52E"/>
					<stop  offset="1" style="stop-color:#136D30"/>
				</linearGradient>
				<path fill="url(#SVGID_68_)" d="M162.6,387.1c5-8.3,10.4-25.4,9.7-37.2c-0.8,2.6,0.2,18.9-30.3,33.4c-25.2,12-16,34.2-15,36.4
					C133.5,417.1,149.7,408.6,162.6,387.1z"/>
			</g>
		</g>
		<g>
			<g>
				<g>
					<path fill="#FFFFFF" d="M173.9,393.7c0-0.1-3.5,5.1-10.1,9.2c-6.5,4.2-15.4,7.2-21.2,8.1c0,0.1,8.7-0.4,16.9-4.7
						c4.1-2.1,8-5.9,10.5-8.3C172.4,395.7,173.8,393.8,173.9,393.7z"/>
				</g>
			</g>
			<g>
				<g>
					<path fill="#FFFFFF" d="M135.6,396.2c0.1,0-2.4,3.2-3.2,7.6c-0.9,4.4-0.1,9.6,1,12.7c0,0-3.2-4.9-2.8-10.2
						C130.7,401,135.4,396.3,135.6,396.2z"/>
				</g>
			</g>
			<g>
				<g>
					<path fill="#FFFFFF" d="M158.3,395.2c0,0,1.5-3.8,2.5-8.7c1.1-4.8,1.3-10.7-0.3-14.1c0,0,0.8,1.2,1.1,3.3
						c0.4,2.1,0.6,3.3,0.2,6.2C161,387.7,158.4,395,158.3,395.2z"/>
				</g>
			</g>
			<g>
				<g>
					<path fill="#FFFFFF" d="M179.4,377.9c-0.1-0.1-1.5,5.2-6.1,10.7c-2.2,2.7-5.4,6.6-8.6,8.5c-3.2,1.9-6.5,1.9-9.2,2.3
						c0,0,2.1-0.3,5-1.6c2.9-1.2,6.6-3.4,9.7-6.3C176.4,385.8,179.2,378,179.4,377.9z"/>
				</g>
			</g>
			<g>
				<g>
					<path fill="#FFFFFF" d="M147.8,403c0,0-3.4-0.1-4.5-3c-1.2-2.8,1.6-13,2.2-15.4c0,0-2.5,9-1.6,12.5c0.4,1.8,1.2,3.4,2.1,4.4
						C146.8,402.5,147.7,402.9,147.8,403z"/>
				</g>
			</g>
			<g>
				<g>
					<path fill="#FFFFFF" stroke="#FFFFFF" stroke-width="0.2449" d="M172.5,349.6c0,0,0.2,3.4-0.2,9.1c-0.4,5.6-1.6,13.5-5.1,22
						c-3.4,8.5-9.2,17.3-16.6,24.2c-7.3,6.9-15.8,12-22.9,14.4c0,0,5.3-2,12.4-6.8c7-4.8,15.4-12.6,21.1-22
						c5.9-9.3,8.9-19.6,10.1-27.4C172.6,355.3,172.4,350,172.5,349.6z"/>
				</g>
			</g>
		</g>
	</g>
</g>
<g>
	<path fill="#FFFFFF" d="M187.7,385.3c0.1,1,0.3,2,0.4,3.1c0.1,1.1,0.3,2.1,0.4,3.2c0.1,1,0.2,1.9,0.2,2.8c0,0.8,0,1.5-0.1,1.9
		c-0.1,0.4-0.2,0.6-0.5,0.6c-0.2-0.1-0.6-0.5-1-1.3c0-1.8-0.1-3.6-0.3-5.2c-0.2-1.6-0.4-3.3-0.7-4.9c-0.6,0-1.2-0.1-1.8-0.3
		c-0.6-0.2-1.1-0.4-1.6-0.7c-0.5-0.3-0.9-0.5-1.1-0.8c-0.3-0.3-0.4-0.5-0.4-0.7c0.2,0.1,0.5,0.1,0.9,0.2c0.4,0.1,0.8,0.2,1.3,0.2
		c0.4,0.1,0.9,0.1,1.3,0.2c0.4,0,0.8,0.1,1.1,0.1c-0.2-1.2-0.3-2.3-0.5-3.2c-0.1-1-0.3-1.9-0.4-2.8c-0.1-0.9-0.3-1.8-0.4-2.8
		c-0.1-0.9-0.3-2-0.4-3.2c-0.8-0.3-1.7-0.7-2.5-1c-0.8-0.3-1.6-0.6-2.4-1c-0.1-0.2-0.1-0.3-0.1-0.3c0-0.1,0-0.1,0-0.2
		c0-0.1,0.1-0.1,0.1-0.2c0.1-0.1,0.2-0.2,0.3-0.3c0.2-0.1,0.7,0,1.5,0.3c0.8,0.2,1.7,0.5,2.8,1c1.1,0.4,2.2,0.9,3.5,1.5
		c1.2,0.6,2.4,1.2,3.6,1.8c1.2,0.6,2.2,1.2,3.1,1.8c0.9,0.6,1.6,1.2,2,1.7c0.4,0.3,0.7,0.7,0.8,1.1c0.1,0.4,0.2,0.9,0.1,1.3
		c-0.1,0.5-0.2,0.9-0.5,1.4c-0.3,0.5-0.6,0.9-1,1.3c-0.4,0.4-0.9,0.8-1.4,1.2c-0.5,0.4-1.1,0.8-1.8,1.2c-0.6,0.4-1.3,0.7-2.1,0.9
		C189.3,385.1,188.5,385.2,187.7,385.3z M187.2,383.4c1.3,0,2.4-0.1,3.3-0.4c1-0.3,1.8-0.6,2.5-1.1c0.7-0.5,1.2-1,1.5-1.7
		c0.3-0.6,0.4-1.3,0.3-2c-0.1-0.5-0.4-1.1-1.1-1.6c-0.7-0.5-1.5-1.1-2.4-1.6c-0.9-0.5-1.9-1-3-1.5c-1.1-0.5-2-1-2.8-1.4
		c0.1,0.6,0.1,1.2,0.2,1.8c0.1,0.7,0.2,1.4,0.3,2.3c0.1,0.9,0.3,1.9,0.5,3.1C186.7,380.4,186.9,381.8,187.2,383.4z"/>
	<path fill="#FFFFFF" d="M204.8,396.5c-0.2,0.2-0.3,0.3-0.5,0.3c-0.1,0-0.3,0-0.4-0.1c-0.1-0.1-0.3-0.2-0.4-0.3
		c-0.1-0.1-0.3-0.2-0.5-0.3c0-0.4-0.1-1.2-0.2-2.5s-0.2-2.8-0.2-4.6c-0.1-1.8-0.2-3.7-0.3-5.7c-0.1-2-0.2-4-0.2-5.9
		c-0.1-1.9-0.1-3.6-0.2-5.1c-0.1-1.5-0.1-2.7,0-3.4c-0.1,0,0,0,0.1,0c0.1-0.1,0.2-0.1,0.4-0.2s0.3-0.2,0.6-0.3
		c0.2-0.1,0.4-0.2,0.6-0.2c0,1.2,0,2.9-0.1,5c0,2.1,0,4.4,0.1,7c0.1,2.6,0.2,5.3,0.4,8.1C204.1,391.1,204.4,393.8,204.8,396.5z"/>
	<path fill="#FFFFFF" d="M224.5,369.1c-0.6,0.4-1.6,0.8-2.8,1.2c-1.2,0.5-2.5,0.9-3.9,1.4c-1.4,0.5-2.8,0.9-4.2,1.4
		c-1.4,0.5-2.6,0.9-3.7,1.3c0.1,0.6,0.1,1.1,0.1,1.6c0,0.4,0.1,0.9,0.1,1.4c0,0.5,0.1,1.2,0.2,1.9c0.1,0.8,0.2,1.8,0.4,3.1
		c1-0.5,1.9-0.8,2.5-1.1c0.6-0.3,1.3-0.5,2-0.7s1.5-0.5,2.5-0.7c0.9-0.3,2.2-0.6,3.9-1.1c0.1,0,0.3,0.1,0.5,0.3
		c0.2,0.1,0.3,0.3,0.5,0.5c0.1,0.2,0.2,0.4,0.2,0.6s-0.1,0.3-0.3,0.4c-1.1,0.1-2.2,0.3-3.3,0.6c-1.1,0.3-2.1,0.6-3.1,1
		c-1,0.4-1.9,0.7-2.7,1.1c-0.8,0.4-1.6,0.7-2.2,1c0.1,1.3,0.2,2.5,0.4,3.6c0.2,1.2,0.5,2.2,0.9,3.2c0.4,0.9,0.8,1.7,1.4,2.3
		c0.5,0.6,1.1,1,1.7,1.1c0.3,0.1,0.7,0.1,1.2,0.1s1.2,0,1.9-0.3c0.7-0.2,1.5-0.6,2.4-1.2c0.9-0.6,1.9-1.5,3-2.7
		c0.7-0.6,1.2-1,1.6-1.1s0.4,0,0.1,0.4c-0.7,0.8-1.4,1.5-2,2.2c-0.6,0.7-1.2,1.3-1.9,1.8c-0.6,0.5-1.3,1-2.1,1.4
		c-0.7,0.4-1.6,0.7-2.6,0.8c-1.4,0.3-2.5,0.2-3.4-0.2s-1.6-1.2-2.2-2.2c-0.6-1-1-2.2-1.4-3.7c-0.3-1.5-0.7-3.1-0.9-5
		c-0.5,0.1-0.8,0.1-1.1,0.3c-0.3,0.1-0.7,0.3-1.2,0.7c-0.2,0-0.3-0.1-0.2-0.3c0.1-0.2,0.2-0.4,0.4-0.7c0.2-0.3,0.5-0.6,0.8-0.9
		c0.3-0.3,0.7-0.6,1-0.8c-0.2-1.1-0.3-2.2-0.5-3.4c-0.1-1.2-0.3-2.3-0.4-3.4s-0.2-2.1-0.3-2.9c-0.1-0.9-0.1-1.5-0.1-2
		c0.2-0.1,0.3-0.1,0.4-0.2s0.2-0.1,0.3-0.1c0.1,0,0.2,0,0.3-0.1c0.1,0,0.3,0,0.6-0.1c0.1,0.1,0.1,0.3,0.1,0.6c0,0.2,0,0.5,0,0.6
		c1.4-0.3,2.6-0.7,3.7-1c1.1-0.3,2.2-0.6,3.2-0.9c1-0.3,2.1-0.6,3.2-0.9c1.1-0.3,2.2-0.6,3.5-0.9c0.2-0.1,0.4-0.1,0.6,0
		c0.2,0,0.4,0.1,0.5,0.2c0.1,0.1,0.2,0.2,0.3,0.3C224.6,369,224.6,369.1,224.5,369.1z"/>
	<path fill="#FFFFFF" d="M228,368.6c0.1,0.2,0.1,0.7,0.2,1.4s0.2,1.7,0.3,2.7s0.2,2.3,0.4,3.6c0.1,1.3,0.3,2.7,0.4,4.1
		c0.1,1.4,0.3,2.8,0.5,4.2c0.2,1.4,0.3,2.7,0.5,3.8c0.2,1.2,0.4,2.2,0.6,3.1c0.2,0.9,0.4,1.5,0.6,1.9c0.4,0.4,0.9,0.5,1.4,0.4
		c0.5-0.1,1-0.4,1.6-0.7c0.5-0.4,1.1-0.9,1.6-1.5c0.5-0.6,1-1.2,1.4-1.8c0.4-0.6,0.8-1.1,1.1-1.6c0.3-0.5,0.5-0.8,0.7-1
		c0.1,0.2,0.2,0.3,0.3,0.4c0.1,0.1,0.1,0.3,0.1,0.4c0,0.1,0,0.2,0,0.3c-0.3,0.7-0.7,1.3-1.1,2c-0.4,0.7-0.9,1.3-1.3,2
		c-0.5,0.6-0.9,1.2-1.4,1.7c-0.5,0.5-0.9,0.9-1.2,1.2c-0.8,0.5-1.5,0.9-2.1,1.1c-0.6,0.2-1.2,0-1.9-0.5c-0.3-0.4-0.5-0.9-0.7-1.4
		s-0.3-1.1-0.4-1.8s-0.2-1.5-0.3-2.4c-0.1-0.9-0.2-1.9-0.4-3c-0.3-3.2-0.6-5.8-0.9-8c-0.3-2.1-0.6-3.9-0.8-5.3s-0.4-2.4-0.6-3
		c-0.2-0.7-0.3-1.1-0.3-1.4c0.2-0.1,0.3-0.2,0.4-0.3c0.1-0.1,0.3-0.2,0.4-0.3c0.1-0.1,0.3-0.2,0.5-0.2
		C227.5,368.6,227.7,368.6,228,368.6z"/>
	<path fill="#FFFFFF" d="M256.2,372c0.2,0.5,0.4,0.9,0.5,1c0.1,0.2,0.1,0.4,0.2,0.8c-0.3-0.3-0.6-0.5-0.8-0.7
		c-0.2-0.2-0.5-0.4-0.7-0.5s-0.5-0.3-0.8-0.4c-0.3-0.1-0.6-0.2-1-0.3c-1.1-0.1-2.1-0.1-3,0.1c-0.9,0.2-1.7,0.6-2.4,1
		c-0.7,0.5-1.1,1-1.4,1.7c-0.3,0.7-0.3,1.4,0,2.2c0.3,0.9,0.7,1.7,1.4,2.5c0.6,0.8,1.3,1.6,2.1,2.4c0.8,0.8,1.6,1.5,2.5,2.2
		c0.9,0.7,1.7,1.3,2.6,1.9c0.8,0.6,1.6,1.1,2.3,1.6s1.2,0.9,1.6,1.2c0.8-0.4,1.6-0.8,2.3-1.1c0.7-0.3,1.5-0.6,2.2-0.9h0.2
		c0.1,0,0.1,0.1,0,0.2c-0.2,0.2-0.5,0.4-0.9,0.7c-0.3,0.2-0.7,0.5-1,0.7c-0.3,0.3-0.7,0.5-1,0.7c-0.3,0.2-0.6,0.5-0.9,0.6
		c0.8,0.8,1.3,1.5,1.5,2.1s0.3,1.2,0,1.8c-0.2,0.6-0.7,1.2-1.3,1.8c-0.7,0.6-1.5,1.3-2.6,2c-0.7,0.5-1.4,0.9-2.2,1.2
		c-0.8,0.3-1.5,0.6-2.2,0.6c-0.7,0.1-1.2-0.1-1.6-0.4c-0.4-0.3-0.6-0.9-0.4-1.8c0.4-1.4,1.2-2.8,2.4-4s2.5-2.5,4-3.7
		c0-0.1-0.3-0.3-0.8-0.7c-0.5-0.4-1.2-0.9-2-1.4s-1.7-1.3-2.7-2c-1-0.8-1.9-1.6-2.8-2.4c-0.9-0.9-1.7-1.7-2.4-2.7
		c-0.7-0.9-1.2-1.9-1.4-2.8c-0.3-1.1-0.4-2.1-0.2-3c0.2-0.9,0.5-1.6,0.8-2.1c0.4-0.6,0.8-1,1.3-1.3c0.5-0.3,0.8-0.5,1.1-0.6
		c0.6-0.2,1.2-0.3,1.9-0.5c0.6-0.1,1.3-0.2,1.9-0.1c0.6,0.1,1.3,0.2,1.9,0.5C254.9,370.9,255.5,371.4,256.2,372z M252.9,397.4
		c-0.1,0.2,0,0.3,0.2,0.5c0.2,0.1,0.5,0.2,0.9,0.1c0.4,0,1-0.2,1.6-0.4c0.7-0.2,1.4-0.6,2.3-1.1c0.7-0.5,1.2-0.9,1.5-1.5
		c0.4-0.5,0.6-1.1,0.6-1.6c0.1-0.5,0-1-0.3-1.4c-0.2-0.4-0.6-0.8-1.2-1.1c-0.3,0.1-0.7,0.4-1.3,0.9c-0.6,0.5-1.3,1.1-1.9,1.7
		c-0.7,0.6-1.2,1.3-1.7,2C253.2,396.2,252.9,396.8,252.9,397.4z"/>
	<path fill="#FFFFFF" d="M267.8,382.5c0.1,0.2,0.6,0.5,1.4,1s1.8,1.1,2.9,1.7s2.3,1.1,3.4,1.6c1.2,0.5,2.1,0.8,2.9,0.9
		c0.1,0.3,0.1,0.5,0.2,0.6c0,0.1,0.1,0.2,0.1,0.3c0,0.1,0,0.1,0,0.2c0,0.1,0,0.2,0,0.3c-0.3,0-0.9-0.2-1.6-0.4
		c-0.7-0.2-1.6-0.5-2.6-0.9c-1-0.4-2.1-0.8-3.3-1.4c-1.2-0.5-2.4-1.1-3.6-1.7c0,1.3,0,2.5-0.1,3.7c0,1.2-0.1,2.4-0.1,3.7
		c0,0.1,0,0.3,0,0.7c0,0.4,0,0.9,0,1.5c0,0.5,0,1.1,0,1.6c0,0.5,0,0.8,0,1l-1.2-0.4c0-0.3,0-0.8,0-1.4c0-0.6,0-1.4,0-2.2
		c0-0.8,0-1.7,0-2.6c0-0.9,0-1.7,0-2.6c0-0.8,0-1.5-0.1-2.2c0-0.7-0.1-1.1-0.1-1.4c-0.1-0.1-0.2-0.2-0.4-0.2
		c-0.2-0.1-0.3-0.2-0.5-0.3s-0.3-0.2-0.5-0.4c-0.1-0.1-0.2-0.3-0.3-0.5c0.1-0.2,0.3-0.4,0.7-0.6c0.3-0.2,0.7-0.4,0.9-0.6
		c0-0.1-0.1-0.4-0.1-0.9c0-0.5-0.1-1.2-0.1-1.9c0-0.8-0.1-1.6-0.1-2.4c-0.1-0.9-0.1-1.7-0.1-2.5c0-0.8,0-1.5-0.1-2c0-0.6,0-1,0-1.2
		c0,0,0.1-0.1,0.2-0.2s0.3-0.1,0.5-0.2c0.2-0.1,0.4-0.1,0.5-0.1c0.2,0,0.2,0,0.2,0.1c0.1,1.9,0.1,3.7,0.2,5.3
		c0.1,1.6,0.2,3.2,0.2,4.8c0.2-0.2,0.5-0.6,0.9-1c0.4-0.5,0.8-1,1.2-1.6c0.4-0.6,0.9-1.2,1.3-1.8c0.4-0.6,0.8-1.2,1.2-1.8
		c0.4-0.5,0.7-1,0.9-1.4c0.3-0.4,0.4-0.7,0.5-0.8c0.3-0.1,0.5-0.1,0.7-0.2c0.2-0.1,0.3-0.1,0.4-0.1s0.2-0.1,0.4-0.1
		c0.1,0,0.3-0.1,0.6-0.1c-0.1,0.3-0.3,0.7-0.5,1.1c-0.2,0.4-0.5,0.8-0.7,1.2c-0.3,0.4-0.5,0.8-0.8,1.2c-0.3,0.4-0.5,0.7-0.7,1.1
		c0,0.1-0.2,0.4-0.6,0.9c-0.4,0.6-0.8,1.2-1.4,2c-0.5,0.7-1.1,1.5-1.6,2.2C268.6,381.7,268.1,382.2,267.8,382.5z"/>
	<path fill="#FFFFFF" d="M283.8,396.5c-0.2,0.2-0.3,0.3-0.5,0.3c-0.1,0-0.3,0-0.4-0.1c-0.1-0.1-0.3-0.2-0.4-0.3s-0.3-0.2-0.5-0.3
		c0-0.4-0.1-1.2-0.2-2.5s-0.2-2.8-0.2-4.6c-0.1-1.8-0.2-3.7-0.3-5.7c-0.1-2-0.2-4-0.2-5.9c-0.1-1.9-0.1-3.6-0.2-5.1
		c-0.1-1.5-0.1-2.7,0-3.4c-0.1,0,0,0,0.1,0c0.1-0.1,0.2-0.1,0.4-0.2c0.2-0.1,0.3-0.2,0.6-0.3c0.2-0.1,0.4-0.2,0.6-0.2
		c0,1.2,0,2.9-0.1,5c0,2.1,0,4.4,0.1,7c0.1,2.6,0.2,5.3,0.4,8.1C283.2,391.1,283.5,393.8,283.8,396.5z"/>
	<path fill="#FFFFFF" d="M290.8,368.3c0.6-0.1,1,0.2,1.3,0.7c0.3,0.5,0.5,1.2,0.6,1.9c0.1,0.7,0.1,1.5,0.1,2.3c0,0.8,0,1.5,0,2
		c0,0.4,0,0.9,0,1.7c0,0.7,0,1.5,0,2.4s0,1.8,0,2.7c0,0.9,0,1.8,0,2.5c0,0.8,0,1.4,0,1.9c0,0.5,0,0.8,0,0.8c0.1-0.1,0.1-0.3,0.3-0.9
		c0.1-0.5,0.3-1.1,0.4-1.9c0.2-0.7,0.4-1.5,0.6-2.3c0.2-0.8,0.5-1.6,0.7-2.3c0-0.1,0.1-0.4,0.3-1s0.4-1.1,0.6-1.7s0.6-1.1,1.1-1.6
		c0.4-0.5,0.9-0.6,1.6-0.5c0.5-0.1,0.9,0.2,1.3,1c0.4,0.8,0.7,1.9,0.9,3.2c0.3,1.3,0.5,2.8,0.6,4.4s0.3,3.1,0.5,4.6s0.3,2.7,0.4,3.8
		c0.1,1.1,0.2,1.7,0.4,2c0.4,0.6,1,0.6,1.7,0.1s1.5-1.3,2.4-2.4c0.1,0.1,0.1,0.2,0.1,0.5c0,0.2,0,0.5-0.2,0.8
		c-0.1,0.3-0.3,0.7-0.7,1.2c-0.3,0.4-0.8,0.9-1.4,1.4c-1,0.5-1.7,0.5-2.3,0.2c-0.6-0.4-1-0.9-1.2-1.7c-0.1-0.3-0.1-0.9-0.2-1.8
		c-0.1-1-0.2-2.1-0.4-3.4c-0.1-1.3-0.3-2.6-0.4-4c-0.2-1.4-0.3-2.7-0.5-3.8c-0.2-1.2-0.4-2.1-0.6-2.9s-0.4-1.1-0.6-1
		c-0.2-0.1-0.3,0-0.5,0.2c-0.2,0.3-0.4,0.6-0.6,1.1c-0.2,0.5-0.4,1-0.6,1.7s-0.4,1.3-0.6,1.9s-0.4,1.2-0.5,1.8
		c-0.1,0.5-0.3,1-0.4,1.3c-0.3,0.9-0.5,1.7-0.7,2.5c-0.2,0.7-0.4,1.5-0.5,2.4c-0.2,0.9-0.3,1.8-0.4,2.9c-0.1,1.1-0.3,2.4-0.4,3.9
		c-0.5,0.1-0.9,0-1-0.2c-0.2-0.2-0.4-0.4-0.7-0.5c0-0.5,0-1.3,0-2.4s0-2.4,0-3.8c0-1.4,0-2.9,0-4.4c0-1.5,0-3,0-4.3
		c0-0.1,0-0.3,0.1-0.8c0-0.5,0.1-1.1,0.1-1.8c0-0.7,0.1-1.5,0.1-2.4c0-0.9,0-1.7,0-2.5c0-0.8-0.1-1.5-0.2-2.1
		c-0.1-0.6-0.2-1.1-0.5-1.3c-0.3-0.2-0.7-0.1-1.1,0.4c-0.4,0.4-0.9,1-1.4,1.8c-0.5,0.8-1,1.7-1.5,2.7c-0.5,1-1,2.1-1.4,3.1
		c-0.4,1-0.8,2-1.1,2.9c-0.3,0.9-0.5,1.6-0.6,2.2c-0.1,0.2-0.2,0.4-0.4,0.6c-0.2,0.2-0.4,0.3-0.5,0.4c-0.2,0.1-0.4,0.1-0.5,0.1
		c-0.2,0-0.3-0.1-0.4-0.2c0.2-1,0.6-2,1-3.1c0.4-1.1,0.9-2.3,1.4-3.4c0.5-1.2,1-2.3,1.6-3.4c0.6-1.1,1.2-2.1,1.8-2.9
		c0.6-0.8,1.2-1.5,1.8-2C289.7,368.5,290.2,368.3,290.8,368.3z"/>
	<path fill="#FFFFFF" d="M326.8,369.7c-0.2,0.1-0.7,0.2-1.3,0.4c-0.7,0.2-1.5,0.5-2.4,1c-0.9,0.5-1.9,1.2-2.9,2.2c-1,1-2,2.3-2.9,4
		c-0.3,0.6-0.6,1.4-0.9,2.4c-0.3,1-0.5,1.9-0.7,2.9c-0.2,0.9-0.4,1.8-0.5,2.5c-0.1,0.7-0.2,1-0.1,1c-0.2,1.8-0.2,3.3,0,4.4
		c0.2,1.1,0.4,2,0.8,2.6c0.4,0.6,0.8,1.1,1.3,1.3c0.5,0.3,1,0.4,1.5,0.4c0.5,0,0.9,0,1.3-0.1c0.4-0.1,0.6-0.1,0.7-0.1
		c0.8-0.3,1.5-0.7,2.2-1.3c0.7-0.5,1.4-1.1,2-1.8c0.6-0.7,1.2-1.4,1.7-2.2c0.5-0.8,1-1.6,1.4-2.5c0.1-0.1,0.2-0.3,0.4-0.4
		c0.2-0.1,0.3-0.2,0.5-0.3c0.2-0.1,0.3-0.1,0.4-0.2c0.1,0,0.2,0,0.2,0.1c-0.5,1.5-1.1,2.8-1.9,4c-0.8,1.2-1.7,2.3-2.6,3.2
		c-0.9,0.9-1.9,1.7-2.9,2.2c-1,0.6-1.9,1-2.7,1.2c-1.1,0.2-2.2,0-3.2-0.7s-1.8-1.9-2.4-3.7c-0.2-1-0.3-2-0.4-3.2
		c-0.1-1.2,0-2.4,0.1-3.5c0.2-2.3,0.6-4.4,1.2-6.3c0.7-1.9,1.5-3.6,2.5-5.1s2.2-2.7,3.4-3.7s2.6-1.6,4-2c0.1,0,0.3,0,0.6,0.1
		c0.3,0.1,0.6,0.1,0.9,0.2c0.3,0.1,0.5,0.2,0.7,0.4C326.9,369.4,326.9,369.5,326.8,369.7z"/>
	<path fill="#FFFFFF" d="M330.9,388.9c-0.4,0-0.8,0-1.3,0.1s-0.9,0.1-1.3,0.1s-0.8,0-1.1-0.1c-0.3-0.1-0.5-0.2-0.6-0.4
		c-0.2-0.1-0.2-0.3,0-0.5c0.2-0.2,0.3-0.3,0.4-0.5c0.5-0.1,0.9-0.1,1.3-0.1c0.4,0,0.7-0.1,1-0.1s0.6-0.1,0.9-0.1
		c0.3,0,0.6-0.1,0.9-0.1c0.4-1.5,0.8-2.9,1.1-4.3c0.3-1.4,0.7-2.7,1-4c0.3-1.3,0.6-2.7,0.9-4c0.3-1.4,0.6-2.8,1-4.3
		c0.2-0.3,0.4-0.5,0.6-0.5c0.2,0,0.4,0,0.8,0c0.2,0.9,0.3,1.6,0.4,2.2c0.1,0.6,0.2,1.2,0.2,1.8c0.1,0.6,0.1,1.3,0.2,2
		c0.1,0.7,0.2,1.7,0.4,2.8c0.1,1.1,0.3,2.3,0.4,3.4c0.2,1.1,0.3,2.2,0.5,3.4c0.7-0.1,1.4-0.2,2-0.3c0.6-0.1,1.2-0.2,1.7-0.3
		c0.5-0.1,0.9-0.2,1.2-0.2c0.3-0.1,0.5-0.1,0.5,0c0.1,0.2,0,0.5-0.4,0.7s-0.8,0.5-1.3,0.7c-0.5,0.2-1.1,0.4-1.7,0.6
		c-0.6,0.2-1.2,0.4-1.6,0.5c0.1,0.5,0.1,1.1,0.3,1.9c0.1,0.8,0.3,1.6,0.4,2.4c0.1,0.9,0.3,1.7,0.5,2.6c0.2,0.9,0.3,1.7,0.4,2.4
		c0.1,0.7,0.2,1.3,0.3,1.8c0.1,0.5,0.1,0.7,0,0.8c-0.5,0.1-0.8,0-1-0.1s-0.4-0.3-0.7-0.4c-0.2-1.8-0.5-3.6-0.8-5.4
		c-0.3-1.8-0.6-3.6-0.8-5.5c-0.6,0.1-1.4,0.3-2.3,0.5c-0.9,0.2-1.9,0.4-2.9,0.6c-0.2,0.6-0.3,1.2-0.4,2c-0.1,0.7-0.3,1.4-0.4,2.1
		c-0.1,0.7-0.2,1.2-0.3,1.8c-0.1,0.5-0.2,0.9-0.3,1c-0.1,0.1-0.4,0.2-0.7,0.3c-0.3,0-0.6,0-0.8-0.3c0-0.2,0.1-0.5,0.2-1.1
		c0.1-0.6,0.3-1.2,0.4-1.9c0.2-0.7,0.3-1.4,0.5-2C330.7,389.8,330.8,389.3,330.9,388.9z M332.8,386.9c0.4-0.1,0.8-0.2,1.3-0.3
		c0.5-0.1,0.9-0.2,1.3-0.3c0.4-0.1,0.8-0.2,1.1-0.3c0.3-0.1,0.5-0.1,0.5-0.1c-0.1-0.6-0.1-1.1-0.1-1.5c0-0.4-0.1-0.8-0.1-1.2
		c0-0.4-0.1-0.9-0.1-1.5c-0.1-0.6-0.1-1.4-0.2-2.3c-0.2-1.7-0.4-2.9-0.5-3.8c-0.1-0.8-0.2-1.1-0.3-0.8c-0.4,1.4-0.7,2.7-1,3.7
		c-0.3,1.1-0.5,2-0.8,2.9c-0.2,0.9-0.4,1.8-0.6,2.6S333,385.9,332.8,386.9z"/>
	<path fill="#FFFFFF" d="M359.6,378.1c-0.4,0.5-1,0.9-1.9,1.3s-1.9,0.8-3,1.2c-1.1,0.4-2.2,0.7-3.2,1c-1.1,0.3-2,0.5-2.7,0.7
		c0.3,0.7,0.6,1.3,1,1.7c0.4,0.4,0.9,0.9,1.4,1.5c0.9,0.7,1.6,1.3,2.3,1.8c0.6,0.5,1.2,0.9,1.8,1.3c0.6,0.4,1.2,0.8,1.8,1.1
		c0.6,0.4,1.3,0.8,2.1,1.2c1.1,0.4,1.9,0.7,2.5,0.9c0.6,0.2,1,0.3,1.4,0.4c0.3,0.1,0.5,0.1,0.7,0.1c0.1,0,0.3,0,0.4,0.1
		c0.1,0.2-0.1,0.3-0.4,0.3c-0.3,0.1-0.6,0.1-1,0.1s-0.8,0-1.2-0.1c-0.4,0-0.7-0.1-0.9-0.1c-0.4-0.1-0.9-0.3-1.4-0.4
		c-0.5-0.2-1.2-0.4-1.9-0.8c-0.7-0.3-1.5-0.8-2.4-1.3c-0.9-0.5-1.9-1.2-3-2.1c-0.5-0.3-0.9-0.6-1.2-0.9c-0.4-0.3-0.7-0.5-1-0.7
		c-0.3-0.2-0.6-0.4-0.8-0.6c0.1,0.3,0.1,0.8,0.2,1.4c0.1,0.6,0.2,1.3,0.3,2c0.1,0.7,0.2,1.5,0.3,2.3c0.1,0.8,0.2,1.6,0.3,2.3
		c0.1,0.7,0.2,1.4,0.3,1.9s0.2,1,0.3,1.2c-0.4,0.2-0.8,0.2-1.2,0.1c-0.4-0.1-0.7-0.1-0.8-0.1c-0.1-1.8-0.3-3.6-0.5-5.6
		c-0.3-1.9-0.5-4.1-0.6-6.4c0-0.1,0-0.1,0-0.1c0,0,0,0.1,0,0.1c0,0,0,0,0,0c0,0,0-0.1-0.1-0.3c-0.3-0.4-0.5-0.7-0.7-0.9
		c-0.2-0.2-0.3-0.4-0.5-0.5c-0.2-0.2-0.3-0.3-0.5-0.5c-0.2-0.2-0.5-0.5-0.8-0.9c0.1-0.1,0.3-0.2,0.6-0.3c0.3-0.1,0.7-0.2,1.1-0.3
		c-0.1-0.9-0.2-1.8-0.3-2.5s-0.2-1.6-0.2-2.3c-0.1-0.7-0.2-1.5-0.2-2.2s-0.2-1.5-0.3-2.3c-0.2,0-0.9,0-1.9-0.1c-1,0-2.1-0.1-3.4-0.1
		c-0.2-0.1-0.4-0.2-0.5-0.3c-0.1-0.1-0.2-0.4-0.1-0.8c0.5-0.1,1-0.1,1.7-0.1c0.7,0,1.4,0,2.2,0.1c0.7,0,1.4,0.1,2.1,0.1
		c0.7,0.1,1.2,0.1,1.7,0.1c3.3,0.4,5.9,0.9,7.8,1.5c1.9,0.6,3.3,1.3,4.1,2c0.9,0.7,1.3,1.4,1.2,2.1
		C360.5,377,360.2,377.6,359.6,378.1z M348.1,381c0.9-0.2,1.9-0.4,3.1-0.8c1.2-0.4,2.4-0.7,3.5-1.2c1.1-0.4,2-0.8,2.8-1.3
		s1.1-0.8,1.1-1.2v-0.4c-0.1-0.4-0.5-0.8-1.3-1.2c-0.7-0.4-1.7-0.8-2.8-1.2c-1.1-0.4-2.3-0.7-3.6-1c-1.3-0.3-2.5-0.6-3.7-0.7
		c0.1,1.2,0.2,2.5,0.3,4C347.7,377.5,347.9,379.2,348.1,381z"/>
	<path fill="#FFFFFF" d="M382.2,369.1c-0.6,0.4-1.6,0.8-2.8,1.2c-1.2,0.5-2.5,0.9-3.9,1.4c-1.4,0.5-2.8,0.9-4.2,1.4
		c-1.4,0.5-2.6,0.9-3.7,1.3c0.1,0.6,0.1,1.1,0.1,1.6s0.1,0.9,0.1,1.4c0,0.5,0.1,1.2,0.2,1.9c0.1,0.8,0.2,1.8,0.4,3.1
		c1-0.5,1.9-0.8,2.5-1.1c0.6-0.3,1.3-0.5,2-0.7c0.7-0.2,1.5-0.5,2.5-0.7c0.9-0.3,2.2-0.6,3.9-1.1c0.1,0,0.3,0.1,0.5,0.3
		c0.2,0.1,0.3,0.3,0.5,0.5s0.2,0.4,0.2,0.6s-0.1,0.3-0.3,0.4c-1.1,0.1-2.2,0.3-3.3,0.6c-1.1,0.3-2.1,0.6-3.1,1
		c-1,0.4-1.9,0.7-2.7,1.1c-0.8,0.4-1.6,0.7-2.2,1c0.1,1.3,0.2,2.5,0.4,3.6c0.2,1.2,0.5,2.2,0.9,3.2c0.4,0.9,0.8,1.7,1.4,2.3
		c0.5,0.6,1.1,1,1.7,1.1c0.3,0.1,0.7,0.1,1.2,0.1s1.2,0,1.9-0.3c0.7-0.2,1.5-0.6,2.4-1.2c0.9-0.6,1.9-1.5,3-2.7
		c0.7-0.6,1.2-1,1.6-1.1c0.3-0.1,0.4,0,0.1,0.4c-0.7,0.8-1.4,1.5-2,2.2c-0.6,0.7-1.2,1.3-1.9,1.8c-0.6,0.5-1.3,1-2.1,1.4
		c-0.7,0.4-1.6,0.7-2.6,0.8c-1.4,0.3-2.5,0.2-3.4-0.2s-1.6-1.2-2.2-2.2c-0.6-1-1-2.2-1.4-3.7c-0.3-1.5-0.7-3.1-0.9-5
		c-0.5,0.1-0.8,0.1-1.1,0.3c-0.3,0.1-0.7,0.3-1.2,0.7c-0.2,0-0.3-0.1-0.2-0.3c0.1-0.2,0.2-0.4,0.4-0.7c0.2-0.3,0.5-0.6,0.8-0.9
		c0.3-0.3,0.7-0.6,1-0.8c-0.2-1.1-0.3-2.2-0.5-3.4c-0.1-1.2-0.3-2.3-0.4-3.4c-0.1-1.1-0.2-2.1-0.3-2.9c-0.1-0.9-0.1-1.5-0.1-2
		c0.2-0.1,0.3-0.1,0.4-0.2s0.2-0.1,0.3-0.1c0.1,0,0.2,0,0.3-0.1c0.1,0,0.3,0,0.6-0.1c0.1,0.1,0.1,0.3,0.1,0.6c0,0.2,0,0.5,0,0.6
		c1.4-0.3,2.6-0.7,3.7-1c1.1-0.3,2.2-0.6,3.2-0.9c1-0.3,2.1-0.6,3.2-0.9c1.1-0.3,2.2-0.6,3.5-0.9c0.2-0.1,0.4-0.1,0.6,0
		s0.4,0.1,0.5,0.2c0.1,0.1,0.2,0.2,0.3,0.3C382.2,369,382.2,369.1,382.2,369.1z"/>
</g>
</svg>
