<?xml version="1.0" encoding="utf-8"?>
<!-- Generator: Adobe Illustrator 17.1.0, SVG Export Plug-In . SVG Version: 6.00 Build 0)  -->
<!DOCTYPE svg PUBLIC "-//W3C//DTD SVG 1.1//EN" "http://www.w3.org/Graphics/SVG/1.1/DTD/svg11.dtd">
<svg version="1.1" id="Layer_1" xmlns="http://www.w3.org/2000/svg" xmlns:xlink="http://www.w3.org/1999/xlink" x="0px" y="0px"
	 viewBox="0 540.7 595.3 180.6" enable-background="new 0 540.7 595.3 180.6" xml:space="preserve">
<g>
	<path fill="#FFFFFF" d="M235.1,658.6c9.3,0,14.3,4.2,14.3,17.1c0,12.2-5.8,18.2-15,18.2c-9.2,0-14.2-4.8-14.2-17.6
		C220.3,664,226,658.6,235.1,658.6z M234.8,688.2c4.2,0,7.1-3,7.1-12c0-9.2-3.1-12-7.2-12c-4.1,0-7,2.5-7,11.7
		C227.8,685,230.8,688.2,234.8,688.2z"/>
	<path fill="#FFFFFF" d="M269.4,674.8c-0.6-0.1-1.4-0.2-2.2-0.2c-2,0-4.2,0.5-5.2,1.5v11.5c2.2,0.4,4.5,1.2,5.5,2.1l-0.5,3.9h-14.3
		l-0.5-3.9c0.5-0.6,1.5-1.2,2.8-1.7V674c-1.1-0.4-2.1-1-2.8-1.7l0.5-3.9c2.6-0.6,5.8-0.8,8.6-0.5v3.2c1.5-1.8,4-3.1,6.6-3.1
		c0.7,0,1.2,0,1.7,0.2L269.4,674.8z"/>
	<path fill="#FFFFFF" d="M278,695.2c0.4,0.7,0.7,1.7,0.8,2.8c1.1,0.5,2.5,0.8,4.3,0.8c3.2,0,4.5-2.3,4.5-5.4v-2.2
		c-1.5,1-3.8,1.5-6.2,1.5c-5.9,0-9.8-3-9.8-11.9c0-10.4,5.9-12.8,11.7-12.8c2.2,0,4.1,0.5,5.6,1.3c0.2-0.5,0.9-0.9,1.5-0.9h4.1v24.6
		c0,7.4-3.6,10.8-11.2,10.8c-3.9,0-8.8-1-11.1-2.5c-0.1-2,0.5-4.6,1.2-6.2H278z M287.6,685.9V674c-1.4-0.6-2.9-0.8-4.1-0.8
		c-3.6,0-4.9,2.6-4.9,7.3c0,5.3,1.5,6.8,4.2,6.8C284.5,687.3,286.4,686.7,287.6,685.9z"/>
	<path fill="#FFFFFF" d="M300.2,676.7c-0.7-1.3-1-3.6-0.8-6.1c2.5-1.4,6.5-2.5,10.6-2.5c6.1,0,9.4,2.3,9.4,8.8v10.7
		c1,0.2,2,0.4,2.8,0.8v4.4c0,0-2.5,1.2-7.3,1.2c0,0-0.5-1.3-0.8-3.2c-0.9,1.2-3,3.2-7.8,3.2c-4.2,0-8.1-2.5-8.1-7.4
		c0-4.2,2.8-7.1,8.9-7.1h5.5V677c0-2.6-1.3-3.9-4.1-3.9c-1,0-1.7,0.1-2.6,0.3c0,1-0.3,2.5-0.6,3.2H300.2z M312.4,687.3v-4.1h-3.5
		c-2.5,0-3.6,1-3.6,2.8c0,1.6,1,2.9,3,2.9C310.5,688.8,311.8,687.9,312.4,687.3z"/>
	<path fill="#FFFFFF" d="M324.5,668.5c2.6-0.6,5.8-0.8,8.6-0.5v2.5c1.7-1.4,4.8-2.4,7.3-2.4c6.6,0,8.9,2.8,8.9,10.2v9.6
		c1.2,0.5,2.2,1.1,2.8,1.7l-0.5,3.9H340l-0.5-3.9c0.5-0.6,1.6-1.2,2.8-1.7V678c0-3.8-1.3-4.5-3.8-4.5c-2,0-3.5,0.8-4.8,1.6v12.9
		c1.2,0.5,2.2,1.1,2.8,1.7l-0.5,3.9h-11.5l-0.5-3.9c0.5-0.6,1.6-1.2,2.8-1.7V674c-1.1-0.4-2.1-1-2.8-1.7L324.5,668.5z"/>
	<path fill="#FFFFFF" d="M354.3,668.5c2.6-0.6,6.5-0.8,9.2-0.5v20c1.2,0.5,2.2,1.1,2.8,1.7l-0.5,3.9h-11.5l-0.5-3.9
		c0.5-0.6,1.5-1.2,2.8-1.7V674c-1.2-0.4-2.1-1-2.8-1.7L354.3,668.5z M360,657.5c2.5,0,4.2,1,4.2,3.8c0,2.9-1.7,3.8-4.2,3.8
		c-2.6,0-4.2-0.9-4.2-3.8C355.8,658.4,357.4,657.5,360,657.5z"/>
	<path fill="#FFFFFF" d="M382.5,676.2c-0.4-0.7-0.8-1.8-0.8-3c-0.6,0-1.2,0-1.6,0c-3.4,0-4.6,3.1-4.6,7.9c0,5.7,2,7.2,5,7.2
		c2.2,0,4.9-0.2,6.7-0.7l1.5,3.8c-2.1,1.3-6,2.5-9.6,2.5c-6.5,0-10.8-3.6-10.8-12.5c0-10.2,6-13.3,11.8-13.3c3.2,0,6.2,0.7,8.1,1.8
		c0.2,2-0.5,4.8-1.2,6.4H382.5z"/>
	<path fill="#FFFFFF" d="M414.2,659c9.2,0,15,1,15,9.2c0,2.5-1.5,4.7-3.6,6.5c2.6,1.4,4.6,4,4.6,8.8c0,6.8-4.6,9.8-13.1,10.1h-14.2
		l-0.5-4.2c0.5-0.7,1.5-1.2,2.8-1.7v-22.9c-1.2-0.5-2.2-1.1-2.8-1.7l0.5-4.2H414.2z M412.3,664.4v8.7h4.1c3.6,0,5.2-2.2,5.2-4.5
		c0-3.9-2.8-4.2-6.8-4.2H412.3z M412.3,678.5v9.5h3.5c4,0,6.9-0.7,6.9-4.9c0-3.1-1.7-4.7-5.9-4.7H412.3z"/>
	<path fill="#FFFFFF" d="M454,690.7c0,0-2.5,3.2-9.1,3.2c-8.1,0-12.1-4.5-12.1-12.5c0-10.3,6.2-13.3,12.1-13.3
		c5.6,0,9.6,2.2,9.6,10.9c0,2.3-1.1,3.6-3.5,3.6h-10.9c0.3,4.2,2,5.8,6.2,5.8c3.8,0,6.2-1.6,6.2-1.6L454,690.7z M440.2,678.4
		l7.9-0.3c0.5-3.1-0.9-5-3.5-5C442.1,673.2,440.6,674.5,440.2,678.4z"/>
	<path fill="#FFFFFF" d="M458.9,676.7c-0.7-1.3-1-3.6-0.8-6.1c2.5-1.4,6.5-2.5,10.6-2.5c6.1,0,9.4,2.3,9.4,8.8v10.7
		c1,0.2,2,0.4,2.8,0.8v4.4c0,0-2.5,1.2-7.3,1.2c0,0-0.5-1.3-0.8-3.2c-0.9,1.2-3,3.2-7.8,3.2c-4.2,0-8.1-2.5-8.1-7.4
		c0-4.2,2.8-7.1,8.9-7.1h5.5V677c0-2.6-1.3-3.9-4.1-3.9c-1,0-1.7,0.1-2.6,0.3c0,1-0.3,2.5-0.6,3.2H458.9z M471.1,687.3v-4.1h-3.5
		c-2.5,0-3.6,1-3.6,2.8c0,1.6,1,2.9,3,2.9C469.2,688.8,470.5,687.9,471.1,687.3z"/>
	<path fill="#FFFFFF" d="M510,692.3c-2.1,1.2-5,1.6-7.5,1.6c-0.7-0.5-1.3-1.6-1.4-2.5c-1.8,1.4-5,2.5-8.3,2.5
		c-6.2,0-8.2-2.6-8.2-8.3V674c-1.1-0.4-2.1-1-2.8-1.7l0.5-3.9c2.6-0.6,6.5-0.8,9.3-0.5v16c0,3.8,1.1,4.5,3.6,4.5
		c1.7,0,3.8-0.6,5.1-1.6V674c-1.2-0.4-2.1-1-2.8-1.7l0.5-3.9c2.6-0.6,6.5-0.8,9.2-0.5v19.5c1,0.2,2,0.4,2.8,0.8V692.3z"/>
	<path fill="#FFFFFF" d="M511.4,669.6c0.7-0.8,2.2-1.5,3.3-1.9c0.3-2.1,1-4.3,2.8-5.5h3.7v6.3h7.2v4.2h-7.2v12.7c0,2,0.4,3,2.2,3
		c1,0,2.8-0.2,4.1-0.8l1.5,3.9c-2.7,1.4-5.2,2-8.4,2c-5,0-6.4-2.7-6.4-6.8v-14.1h-2.2L511.4,669.6z"/>
	<path fill="#FFFFFF" d="M535.9,695.6c0.5,0.8,0.8,2.2,0.9,3.7h0.7c1.2,0,2.8-2.6,3.3-5.7l-8.2-19.4c-1.4-0.5-2.7-1.1-3.3-1.9
		l0.5-3.9h11.5l0.5,3.9c-0.4,0.5-1.2,1-2.2,1.5l2.8,7.6c1,2.8,1.4,5.3,1.4,5.3h0.7c0,0,0.4-2.5,1.4-5.2l2.7-7.4
		c-1.2-0.5-2.1-1-2.6-1.7l0.5-3.9h11l0.5,3.9c-0.6,0.8-1.9,1.5-3.3,2l-8.2,19.5c-2.7,6.2-4.2,10.1-9.6,10.1c-2.8,0-4.9-0.8-6.1-2
		c-0.2-2,0.4-4.6,1.1-6.2H535.9z"/>
</g>
<path fill="#FFFFFF" d="M152,714.7c-5.7-0.3-8.7-2.1-10.3-4c0.3-4.7,1.1-10.5,3.5-15.8c1.4-3,3.3-5.8,5.7-7.8c2.6-2.4,5-4.2,7.5-5.8
	c4.8-3,9-4.3,10.4-4.7c1.4-0.4,3.8-1.3,6.7-2.2c2.9-0.8,6.5-2.1,9.5-3.5c6.2-2.8,11.3-6,11.3-6c0,0-5.5,2.6-11.9,4.7
	c-3.2,1.2-6.5,1.9-9.6,2.5c-3,0.7-5.6,1.3-7,1.8c-2.6,0.9-18.4,5.1-26.4,19.3c-1.8,3.6-3,7.4-3.7,10.9c-1.8-0.9-4.1-2.5-4.7-5.6
	c-1.1-5.4-0.5-21.5,16.9-30.4c17.4-8.9,36.8-7.2,46.1-9.8c9.3-2.6,13-8.6,13-8.6S201.4,710.3,152,714.7z"/>
<path fill="#FFFFFF" d="M94.8,714.5c8.6,0.8,13.4-1.1,16.2-3.6c0.6-7,0.6-15.9-1.7-24.3c-1.4-4.8-3.7-9.3-6.8-12.9
	c-3.4-4.2-6.5-7.5-9.8-10.3c-6.5-5.5-12.5-8.4-14.4-9.4c-1.9-1-5.3-2.7-9.5-4.7c-4.2-1.9-9.2-4.5-13.3-7.4
	c-8.6-5.6-15.5-11.5-15.5-11.5c0,0,7.6,5,16.6,9.6c4.5,2.4,9.3,4.3,13.7,5.9c4.4,1.6,8,3.2,10,4.2c3.7,2,26.2,11.8,35,34.6
	c1.9,5.8,2.8,11.6,3.1,17c2.9-0.9,6.6-2.8,8.2-7.3c2.8-7.7,5.5-31.8-18.4-49.1c-23.9-17.2-53.2-18.9-66.5-24.9s-17.4-15.7-17.4-15.7
	S22.2,696.8,94.8,714.5z"/>
<path fill="#FFFFFF" d="M166,606.5c8.4-16.7,4.9-27.7-3.5-36.7c13.7,27.5-8.8,32-2,46.3c5.3,11.2-6.3,25.5-8.2,32.8
	c-3.3,14.1-30.4-6.7-39.6-17.3c3.5,6.7,39.8,40.8,43.6,19.4c0.6-3.5,1-7.7,3.7-9c2.7-1,1.8-3.5,1.8-3.5s4.7-1,3.5-3.5
	c-1.4-2.2-1-5.3,2.9-6.5c3.9-1.2,4.5-3.9,4.5-3.9S164.2,617.5,166,606.5L166,606.5z"/>
<path fill="#FFFFFF" d="M159.3,564.9c-15.3-12.6-22.7-11.1-31-10.1c-28,4.8-28.8,31.6-31.4,51C94.4,625.2,82.8,626,74.4,624
	c17,0.8,17-9.7,20.3-32.3c3.3-22.6,18.7-39.3,37.4-39.4C150.5,552.2,159.3,564.9,159.3,564.9L159.3,564.9z"/>
</svg>
