<svg xmlns="http://www.w3.org/2000/svg" viewBox="0 540.7 595.3 180.6" enable-background="new 0 540.7 595.3 180.6"><g fill="#fff"><path d="M235.1 658.6c9.3 0 14.3 4.2 14.3 17.1 0 12.2-5.8 18.2-15 18.2s-14.2-4.8-14.2-17.6c.1-12.3 5.8-17.7 14.9-17.7zm-.3 29.6c4.2 0 7.1-3 7.1-12 0-9.2-3.1-12-7.2-12s-7 2.5-7 11.7c.1 9.1 3.1 12.3 7.1 12.3zM269.4 674.8c-.6-.1-1.4-.2-2.2-.2-2 0-4.2.5-5.2 1.5v11.5c2.2.4 4.5 1.2 5.5 2.1l-.5 3.9h-14.3l-.5-3.9c.5-.6 1.5-1.2 2.8-1.7v-14c-1.1-.4-2.1-1-2.8-1.7l.5-3.9c2.6-.6 5.8-.8 8.6-.5v3.2c1.5-1.8 4-3.1 6.6-3.1.7 0 1.2 0 1.7.2l-.2 6.6zM278 695.2c.4.7.7 1.7.8 2.8 1.1.5 2.5.8 4.3.8 3.2 0 4.5-2.3 4.5-5.4v-2.2c-1.5 1-3.8 1.5-6.2 1.5-5.9 0-9.8-3-9.8-11.9 0-10.4 5.9-12.8 11.7-12.8 2.2 0 4.1.5 5.6 1.3.2-.5.9-.9 1.5-.9h4.1v24.6c0 7.4-3.6 10.8-11.2 10.8-3.9 0-8.8-1-11.1-2.5-.1-2 .5-4.6 1.2-6.2h4.6zm9.6-9.3v-11.9c-1.4-.6-2.9-.8-4.1-.8-3.6 0-4.9 2.6-4.9 7.3 0 5.3 1.5 6.8 4.2 6.8 1.7 0 3.6-.6 4.8-1.4zM300.2 676.7c-.7-1.3-1-3.6-.8-6.1 2.5-1.4 6.5-2.5 10.6-2.5 6.1 0 9.4 2.3 9.4 8.8v10.7c1 .2 2 .4 2.8.8v4.4s-2.5 1.2-7.3 1.2c0 0-.5-1.3-.8-3.2-.9 1.2-3 3.2-7.8 3.2-4.2 0-8.1-2.5-8.1-7.4 0-4.2 2.8-7.1 8.9-7.1h5.5v-2.5c0-2.6-1.3-3.9-4.1-3.9-1 0-1.7.1-2.6.3 0 1-.3 2.5-.6 3.2h-5.1zm12.2 10.6v-4.1h-3.5c-2.5 0-3.6 1-3.6 2.8 0 1.6 1 2.9 3 2.9 2.2-.1 3.5-1 4.1-1.6zM324.5 668.5c2.6-.6 5.8-.8 8.6-.5v2.5c1.7-1.4 4.8-2.4 7.3-2.4 6.6 0 8.9 2.8 8.9 10.2v9.6c1.2.5 2.2 1.1 2.8 1.7l-.5 3.9h-11.6l-.5-3.9c.5-.6 1.6-1.2 2.8-1.7v-9.9c0-3.8-1.3-4.5-3.8-4.5-2 0-3.5.8-4.8 1.6v12.9c1.2.5 2.2 1.1 2.8 1.7l-.5 3.9h-11.5l-.5-3.9c.5-.6 1.6-1.2 2.8-1.7v-14c-1.1-.4-2.1-1-2.8-1.7l.5-3.8zM354.3 668.5c2.6-.6 6.5-.8 9.2-.5v20c1.2.5 2.2 1.1 2.8 1.7l-.5 3.9h-11.5l-.5-3.9c.5-.6 1.5-1.2 2.8-1.7v-14c-1.2-.4-2.1-1-2.8-1.7l.5-3.8zm5.7-11c2.5 0 4.2 1 4.2 3.8 0 2.9-1.7 3.8-4.2 3.8-2.6 0-4.2-.9-4.2-3.8s1.6-3.8 4.2-3.8zM382.5 676.2c-.4-.7-.8-1.8-.8-3h-1.6c-3.4 0-4.6 3.1-4.6 7.9 0 5.7 2 7.2 5 7.2 2.2 0 4.9-.2 6.7-.7l1.5 3.8c-2.1 1.3-6 2.5-9.6 2.5-6.5 0-10.8-3.6-10.8-12.5 0-10.2 6-13.3 11.8-13.3 3.2 0 6.2.7 8.1 1.8.2 2-.5 4.8-1.2 6.4h-4.5zM414.2 659c9.2 0 15 1 15 9.2 0 2.5-1.5 4.7-3.6 6.5 2.6 1.4 4.6 4 4.6 8.8 0 6.8-4.6 9.8-13.1 10.1h-14.2l-.5-4.2c.5-.7 1.5-1.2 2.8-1.7v-22.9c-1.2-.5-2.2-1.1-2.8-1.7l.5-4.2h11.3zm-1.9 5.4v8.7h4.1c3.6 0 5.2-2.2 5.2-4.5 0-3.9-2.8-4.2-6.8-4.2h-2.5zm0 14.1v9.5h3.5c4 0 6.9-.7 6.9-4.9 0-3.1-1.7-4.7-5.9-4.7h-4.5zM454 690.7s-2.5 3.2-9.1 3.2c-8.1 0-12.1-4.5-12.1-12.5 0-10.3 6.2-13.3 12.1-13.3 5.6 0 9.6 2.2 9.6 10.9 0 2.3-1.1 3.6-3.5 3.6h-10.9c.3 4.2 2 5.8 6.2 5.8 3.8 0 6.2-1.6 6.2-1.6l1.5 3.9zm-13.8-12.3l7.9-.3c.5-3.1-.9-5-3.5-5-2.5.1-4 1.4-4.4 5.3zM458.9 676.7c-.7-1.3-1-3.6-.8-6.1 2.5-1.4 6.5-2.5 10.6-2.5 6.1 0 9.4 2.3 9.4 8.8v10.7c1 .2 2 .4 2.8.8v4.4s-2.5 1.2-7.3 1.2c0 0-.5-1.3-.8-3.2-.9 1.2-3 3.2-7.8 3.2-4.2 0-8.1-2.5-8.1-7.4 0-4.2 2.8-7.1 8.9-7.1h5.5v-2.5c0-2.6-1.3-3.9-4.1-3.9-1 0-1.7.1-2.6.3 0 1-.3 2.5-.6 3.2h-5.1zm12.2 10.6v-4.1h-3.5c-2.5 0-3.6 1-3.6 2.8 0 1.6 1 2.9 3 2.9 2.2-.1 3.5-1 4.1-1.6zM510 692.3c-2.1 1.2-5 1.6-7.5 1.6-.7-.5-1.3-1.6-1.4-2.5-1.8 1.4-5 2.5-8.3 2.5-6.2 0-8.2-2.6-8.2-8.3v-11.6c-1.1-.4-2.1-1-2.8-1.7l.5-3.9c2.6-.6 6.5-.8 9.3-.5v16c0 3.8 1.1 4.5 3.6 4.5 1.7 0 3.8-.6 5.1-1.6v-12.8c-1.2-.4-2.1-1-2.8-1.7l.5-3.9c2.6-.6 6.5-.8 9.2-.5v19.5c1 .2 2 .4 2.8.8v4.1zM511.4 669.6c.7-.8 2.2-1.5 3.3-1.9.3-2.1 1-4.3 2.8-5.5h3.7v6.3h7.2v4.2h-7.2v12.7c0 2 .4 3 2.2 3 1 0 2.8-.2 4.1-.8l1.5 3.9c-2.7 1.4-5.2 2-8.4 2-5 0-6.4-2.7-6.4-6.8v-14.1h-2.2l-.6-3zM535.9 695.6c.5.8.8 2.2.9 3.7h.7c1.2 0 2.8-2.6 3.3-5.7l-8.2-19.4c-1.4-.5-2.7-1.1-3.3-1.9l.5-3.9h11.5l.5 3.9c-.4.5-1.2 1-2.2 1.5l2.8 7.6c1 2.8 1.4 5.3 1.4 5.3h.7s.4-2.5 1.4-5.2l2.7-7.4c-1.2-.5-2.1-1-2.6-1.7l.5-3.9h11l.5 3.9c-.6.8-1.9 1.5-3.3 2l-8.2 19.5c-2.7 6.2-4.2 10.1-9.6 10.1-2.8 0-4.9-.8-6.1-2-.2-2 .4-4.6 1.1-6.2h4z"/></g><path fill="#fff" d="M152 714.7c-5.7-.3-8.7-2.1-10.3-4 .3-4.7 1.1-10.5 3.5-15.8 1.4-3 3.3-5.8 5.7-7.8 2.6-2.4 5-4.2 7.5-5.8 4.8-3 9-4.3 10.4-4.7 1.4-.4 3.8-1.3 6.7-2.2 2.9-.8 6.5-2.1 9.5-3.5 6.2-2.8 11.3-6 11.3-6s-5.5 2.6-11.9 4.7c-3.2 1.2-6.5 1.9-9.6 2.5-3 .7-5.6 1.3-7 1.8-2.6.9-18.4 5.1-26.4 19.3-1.8 3.6-3 7.4-3.7 10.9-1.8-.9-4.1-2.5-4.7-5.6-1.1-5.4-.5-21.5 16.9-30.4 17.4-8.9 36.8-7.2 46.1-9.8 9.3-2.6 13-8.6 13-8.6s-7.6 60.6-57 65zM94.8 714.5c8.6.8 13.4-1.1 16.2-3.6.6-7 .6-15.9-1.7-24.3-1.4-4.8-3.7-9.3-6.8-12.9-3.4-4.2-6.5-7.5-9.8-10.3-6.5-5.5-12.5-8.4-14.4-9.4-1.9-1-5.3-2.7-9.5-4.7-4.2-1.9-9.2-4.5-13.3-7.4-8.6-5.6-15.5-11.5-15.5-11.5s7.6 5 16.6 9.6c4.5 2.4 9.3 4.3 13.7 5.9 4.4 1.6 8 3.2 10 4.2 3.7 2 26.2 11.8 35 34.6 1.9 5.8 2.8 11.6 3.1 17 2.9-.9 6.6-2.8 8.2-7.3 2.8-7.7 5.5-31.8-18.4-49.1-23.9-17.2-53.2-18.9-66.5-24.9l-17.4-15.7s-2.1 92.1 70.5 109.8zM166 606.5c8.4-16.7 4.9-27.7-3.5-36.7 13.7 27.5-8.8 32-2 46.3 5.3 11.2-6.3 25.5-8.2 32.8-3.3 14.1-30.4-6.7-39.6-17.3 3.5 6.7 39.8 40.8 43.6 19.4.6-3.5 1-7.7 3.7-9 2.7-1 1.8-3.5 1.8-3.5s4.7-1 3.5-3.5c-1.4-2.2-1-5.3 2.9-6.5 3.9-1.2 4.5-3.9 4.5-3.9s-8.5-7.1-6.7-18.1zM159.3 564.9c-15.3-12.6-22.7-11.1-31-10.1-28 4.8-28.8 31.6-31.4 51-2.5 19.4-14.1 20.2-22.5 18.2 17 .8 17-9.7 20.3-32.3 3.3-22.6 18.7-39.3 37.4-39.4 18.4-.1 27.2 12.6 27.2 12.6z"/></svg>