<?xml version="1.0" encoding="utf-8"?>
<!-- Generator: Adobe Illustrator 17.1.0, SVG Export Plug-In . SVG Version: 6.00 Build 0)  -->
<!DOCTYPE svg PUBLIC "-//W3C//DTD SVG 1.1//EN" "http://www.w3.org/Graphics/SVG/1.1/DTD/svg11.dtd">
<svg version="1.1" id="Layer_1" xmlns="http://www.w3.org/2000/svg" xmlns:xlink="http://www.w3.org/1999/xlink" x="0px" y="0px"
	 viewBox="0 236.6 595.3 236.6" enable-background="new 0 236.6 595.3 236.6" xml:space="preserve">
<g>
	<path fill="#FFFFFF" d="M245.8,377.8c0.2,1.5,0.5,3.1,0.6,4.8c0.2,1.7,0.5,3.2,0.6,4.9c0.2,1.5,0.3,2.9,0.3,4.3
		c0,1.2,0,2.3-0.2,2.9c-0.2,0.6-0.3,0.9-0.8,0.9c-0.3-0.2-0.9-0.8-1.5-2c0-2.8-0.2-5.5-0.5-8c-0.3-2.5-0.6-5.1-1.1-7.5
		c-0.9,0-1.8-0.2-2.8-0.5c-0.9-0.3-1.7-0.6-2.5-1.1c-0.8-0.5-1.4-0.8-1.7-1.2c-0.5-0.5-0.6-0.8-0.6-1.1c0.3,0.2,0.8,0.2,1.4,0.3
		c0.6,0.2,1.2,0.3,2,0.3c0.6,0.2,1.4,0.2,2,0.3c0.6,0,1.2,0.2,1.7,0.2c-0.3-1.8-0.5-3.5-0.8-4.9c-0.2-1.5-0.5-2.9-0.6-4.3
		c-0.2-1.4-0.5-2.8-0.6-4.3c-0.2-1.4-0.5-3.1-0.6-4.9c-1.2-0.5-2.6-1.1-3.8-1.5s-2.5-0.9-3.7-1.5c-0.2-0.3-0.2-0.5-0.2-0.5
		c0-0.2,0-0.2,0-0.3c0-0.2,0.2-0.2,0.2-0.3c0.2-0.2,0.3-0.3,0.5-0.5c0.3-0.2,1.1,0,2.3,0.5c1.2,0.3,2.6,0.8,4.3,1.5
		c1.7,0.6,3.4,1.4,5.4,2.3c1.8,0.9,3.7,1.8,5.5,2.8c1.8,0.9,3.4,1.8,4.8,2.8c1.4,0.9,2.5,1.8,3.1,2.6c0.6,0.5,1.1,1.1,1.2,1.7
		c0.2,0.6,0.3,1.4,0.2,2c-0.2,0.8-0.3,1.4-0.8,2.2c-0.5,0.8-0.9,1.4-1.5,2c-0.6,0.6-1.4,1.2-2.2,1.8c-0.8,0.6-1.7,1.2-2.8,1.8
		c-0.9,0.6-2,1.1-3.2,1.4C248.3,377.4,247.1,377.6,245.8,377.8z M245.1,374.8c2,0,3.7-0.2,5.1-0.6c1.5-0.5,2.8-0.9,3.8-1.7
		c1.1-0.8,1.8-1.5,2.3-2.6c0.5-0.9,0.6-2,0.5-3.1c-0.2-0.8-0.6-1.7-1.7-2.5s-2.3-1.7-3.7-2.5c-1.4-0.8-2.9-1.5-4.6-2.3
		c-1.7-0.8-3.1-1.5-4.3-2.2c0.2,0.9,0.2,1.8,0.3,2.8c0.2,1.1,0.3,2.2,0.5,3.5s0.5,2.9,0.8,4.8C244.3,370.2,244.6,372.4,245.1,374.8z
		"/>
	<path fill="#FFFFFF" d="M272.1,395c-0.3,0.3-0.5,0.5-0.8,0.5c-0.2,0-0.5,0-0.6-0.2c-0.2-0.2-0.5-0.3-0.6-0.5
		c-0.2-0.2-0.5-0.3-0.8-0.5c0-0.6-0.2-1.8-0.3-3.8c-0.2-2-0.3-4.3-0.3-7.1c-0.2-2.8-0.3-5.7-0.5-8.8c-0.2-3.1-0.3-6.1-0.3-9.1
		c-0.2-2.9-0.2-5.5-0.3-7.8s-0.2-4.2,0-5.2c-0.2,0,0,0,0.2,0c0.2-0.2,0.3-0.2,0.6-0.3c0.3-0.2,0.5-0.3,0.9-0.5
		c0.3-0.2,0.6-0.3,0.9-0.3c0,1.8,0,4.5-0.2,7.7c0,3.2,0,6.8,0.2,10.8c0.2,4,0.3,8.1,0.6,12.5C271,386.7,271.5,390.8,272.1,395z"/>
	<path fill="#FFFFFF" d="M302.4,352.9c-0.9,0.6-2.5,1.2-4.3,1.8c-1.8,0.8-3.8,1.4-6,2.2s-4.3,1.4-6.5,2.2s-4,1.4-5.7,2
		c0.2,0.9,0.2,1.7,0.2,2.5c0,0.6,0.2,1.4,0.2,2.2s0.2,1.8,0.3,2.9c0.2,1.2,0.3,2.8,0.6,4.8c1.5-0.8,2.9-1.2,3.8-1.7
		c0.9-0.5,2-0.8,3.1-1.1s2.3-0.8,3.8-1.1c1.4-0.5,3.4-0.9,6-1.7c0.2,0,0.5,0.2,0.8,0.5c0.3,0.2,0.5,0.5,0.8,0.8
		c0.2,0.3,0.3,0.6,0.3,0.9s-0.2,0.5-0.5,0.6c-1.7,0.2-3.4,0.5-5.1,0.9c-1.7,0.5-3.2,0.9-4.8,1.5c-1.5,0.6-2.9,1.1-4.2,1.7
		c-1.2,0.6-2.5,1.1-3.4,1.5c0.2,2,0.3,3.8,0.6,5.5c0.3,1.8,0.8,3.4,1.4,4.9c0.6,1.4,1.2,2.6,2.2,3.5c0.8,0.9,1.7,1.5,2.6,1.7
		c0.5,0.2,1.1,0.2,1.8,0.2s1.8,0,2.9-0.5c1.1-0.3,2.3-0.9,3.7-1.8c1.4-0.9,2.9-2.3,4.6-4.2c1.1-0.9,1.8-1.5,2.5-1.7
		c0.6-0.2,0.6,0,0.2,0.6c-1.1,1.2-2.2,2.3-3.1,3.4s-1.8,2-2.9,2.8c-0.9,0.8-2,1.5-3.2,2.2c-1.1,0.6-2.5,1.1-4,1.2
		c-2.2,0.5-3.8,0.3-5.2-0.3c-1.4-0.6-2.5-1.8-3.4-3.4c-0.9-1.5-1.5-3.4-2.2-5.7c-0.5-2.3-1.1-4.8-1.4-7.7c-0.8,0.2-1.2,0.2-1.7,0.5
		c-0.5,0.2-1.1,0.5-1.8,1.1c-0.3,0-0.5-0.2-0.3-0.5c0.2-0.3,0.3-0.6,0.6-1.1c0.3-0.5,0.8-0.9,1.2-1.4s1.1-0.9,1.5-1.2
		c-0.3-1.7-0.5-3.4-0.8-5.2c-0.2-1.8-0.5-3.5-0.6-5.2c-0.2-1.7-0.3-3.2-0.5-4.5c-0.2-1.4-0.2-2.3-0.2-3.1c0.3-0.2,0.5-0.2,0.6-0.3
		c0.2-0.2,0.3-0.2,0.5-0.2c0.2,0,0.3,0,0.5-0.2c0.2,0,0.5,0,0.9-0.2c0.2,0.2,0.2,0.5,0.2,0.9c0,0.3,0,0.8,0,0.9
		c2.2-0.5,4-1.1,5.7-1.5c1.7-0.5,3.4-0.9,4.9-1.4c1.5-0.5,3.2-0.9,4.9-1.4c1.7-0.5,3.4-0.9,5.4-1.4c0.3-0.2,0.6-0.2,0.9,0
		c0.3,0,0.6,0.2,0.8,0.3c0.2,0.2,0.3,0.3,0.5,0.5C302.5,352.7,302.5,352.9,302.4,352.9z"/>
	<path fill="#FFFFFF" d="M307.8,352.1c0.2,0.3,0.2,1.1,0.3,2.2c0.2,1.1,0.3,2.6,0.5,4.2c0.2,1.5,0.3,3.5,0.6,5.5
		c0.2,2,0.5,4.2,0.6,6.3s0.5,4.3,0.8,6.5c0.3,2.2,0.5,4.2,0.8,5.8c0.3,1.8,0.6,3.4,0.9,4.8c0.3,1.4,0.6,2.3,0.9,2.9
		c0.6,0.6,1.4,0.8,2.2,0.6c0.8-0.2,1.5-0.6,2.5-1.1c0.8-0.6,1.7-1.4,2.5-2.3c0.8-0.9,1.5-1.8,2.2-2.8c0.6-0.9,1.2-1.7,1.7-2.5
		c0.5-0.8,0.8-1.2,1.1-1.5c0.2,0.3,0.3,0.5,0.5,0.6c0.2,0.2,0.2,0.5,0.2,0.6c0,0.2,0,0.3,0,0.5c-0.5,1.1-1.1,2-1.7,3.1s-1.4,2-2,3.1
		c-0.8,0.9-1.4,1.8-2.2,2.6s-1.4,1.4-1.8,1.8c-1.2,0.8-2.3,1.4-3.2,1.7c-0.9,0.3-1.8,0-2.9-0.8c-0.5-0.6-0.8-1.4-1.1-2.2
		s-0.5-1.7-0.6-2.8c-0.2-1.1-0.3-2.3-0.5-3.7c-0.2-1.4-0.3-2.9-0.6-4.6c-0.5-4.9-0.9-8.9-1.4-12.3c-0.5-3.2-0.9-6-1.2-8.1
		s-0.6-3.7-0.9-4.6c-0.3-1.1-0.5-1.7-0.5-2.2c0.3-0.2,0.5-0.3,0.6-0.5c0.2-0.2,0.5-0.3,0.6-0.5c0.2-0.2,0.5-0.3,0.8-0.3
		C307,352.1,307.3,352.1,307.8,352.1z"/>
	<path fill="#FFFFFF" d="M351.1,357.3c0.3,0.8,0.6,1.4,0.8,1.5c0.2,0.3,0.2,0.6,0.3,1.2c-0.5-0.5-0.9-0.8-1.2-1.1s-0.8-0.6-1.1-0.8
		c-0.3-0.2-0.8-0.5-1.2-0.6c-0.5-0.2-0.9-0.3-1.5-0.5c-1.7-0.2-3.2-0.2-4.6,0.2c-1.4,0.3-2.6,0.9-3.7,1.5c-1.1,0.8-1.7,1.5-2.2,2.6
		c-0.5,1.1-0.5,2.2,0,3.4c0.5,1.4,1.1,2.6,2.2,3.8c0.9,1.2,2,2.5,3.2,3.7c1.2,1.2,2.5,2.3,3.8,3.4s2.6,2,4,2.9
		c1.2,0.9,2.5,1.7,3.5,2.5c1.1,0.8,1.8,1.4,2.5,1.8c1.2-0.6,2.5-1.2,3.5-1.7c1.1-0.5,2.3-0.9,3.4-1.4h0.3c0.2,0,0.2,0.2,0,0.3
		c-0.3,0.3-0.8,0.6-1.4,1.1c-0.5,0.3-1.1,0.8-1.5,1.1c-0.5,0.5-1.1,0.8-1.5,1.1c-0.5,0.3-0.9,0.8-1.4,0.9c1.2,1.2,2,2.3,2.3,3.2
		s0.5,1.8,0,2.8c-0.3,0.9-1.1,1.8-2,2.8c-1.1,0.9-2.3,2-4,3.1c-1.1,0.8-2.2,1.4-3.4,1.8c-1.2,0.5-2.3,0.9-3.4,0.9
		c-1.1,0.2-1.8-0.2-2.5-0.6s-0.9-1.4-0.6-2.8c0.6-2.2,1.8-4.3,3.7-6.1c1.8-1.8,3.8-3.8,6.1-5.7c0-0.2-0.5-0.5-1.2-1.1
		c-0.8-0.6-1.8-1.4-3.1-2.2c-1.2-0.8-2.6-2-4.2-3.1c-1.5-1.2-2.9-2.5-4.3-3.7c-1.4-1.4-2.6-2.6-3.7-4.2c-1.1-1.4-1.8-2.9-2.2-4.3
		c-0.5-1.7-0.6-3.2-0.3-4.6s0.8-2.5,1.2-3.2c0.6-0.9,1.2-1.5,2-2c0.8-0.5,1.2-0.8,1.7-0.9c0.9-0.3,1.8-0.5,2.9-0.8
		c0.9-0.2,2-0.3,2.9-0.2c0.9,0.2,2,0.3,2.9,0.8C349.1,355.6,350,356.4,351.1,357.3z M346,396.4c-0.2,0.3,0,0.5,0.3,0.8
		c0.3,0.2,0.8,0.3,1.4,0.2c0.6,0,1.5-0.3,2.5-0.6c1.1-0.3,2.2-0.9,3.5-1.7c1.1-0.8,1.8-1.4,2.3-2.3c0.6-0.8,0.9-1.7,0.9-2.5
		c0.2-0.8,0-1.5-0.5-2.2c-0.3-0.6-0.9-1.2-1.8-1.7c-0.5,0.2-1.1,0.6-2,1.4c-0.9,0.8-2,1.7-2.9,2.6c-1.1,0.9-1.8,2-2.6,3.1
		C346.5,394.5,346,395.4,346,396.4z"/>
	<path fill="#FFFFFF" d="M369,373.5c0.2,0.3,0.9,0.8,2.2,1.5c1.2,0.8,2.8,1.7,4.5,2.6s3.5,1.7,5.2,2.5c1.8,0.8,3.2,1.2,4.5,1.4
		c0.2,0.5,0.2,0.8,0.3,0.9c0,0.2,0.2,0.3,0.2,0.5c0,0.2,0,0.2,0,0.3c0,0.2,0,0.3,0,0.5c-0.5,0-1.4-0.3-2.5-0.6
		c-1.1-0.3-2.5-0.8-4-1.4c-1.5-0.6-3.2-1.2-5.1-2.2c-1.8-0.8-3.7-1.7-5.5-2.6c0,2,0,3.8-0.2,5.7c0,1.8-0.2,3.7-0.2,5.7
		c0,0.2,0,0.5,0,1.1c0,0.6,0,1.4,0,2.3c0,0.8,0,1.7,0,2.5s0,1.2,0,1.5l-1.8-0.6c0-0.5,0-1.2,0-2.2c0-0.9,0-2.2,0-3.4
		c0-1.2,0-2.6,0-4s0-2.6,0-4c0-1.2,0-2.3-0.2-3.4c0-1.1-0.2-1.7-0.2-2.2c-0.2-0.2-0.3-0.3-0.6-0.3c-0.3-0.2-0.5-0.3-0.8-0.5
		s-0.5-0.3-0.8-0.6c-0.2-0.2-0.3-0.5-0.5-0.8c0.2-0.3,0.5-0.6,1.1-0.9c0.5-0.3,1.1-0.6,1.4-0.9c0-0.2-0.2-0.6-0.2-1.4
		s-0.2-1.8-0.2-2.9c0-1.2-0.2-2.5-0.2-3.7c-0.2-1.4-0.2-2.6-0.2-3.8s0-2.3-0.2-3.1c0-0.9,0-1.5,0-1.8c0,0,0.2-0.2,0.3-0.3
		c0.2-0.2,0.5-0.2,0.8-0.3c0.3-0.2,0.6-0.2,0.8-0.2c0.3,0,0.3,0,0.3,0.2c0.2,2.9,0.2,5.7,0.3,8.1c0.2,2.5,0.3,4.9,0.3,7.4
		c0.3-0.3,0.8-0.9,1.4-1.5c0.6-0.8,1.2-1.5,1.8-2.5c0.6-0.9,1.4-1.8,2-2.8c0.6-0.9,1.2-1.8,1.8-2.8c0.6-0.8,1.1-1.5,1.4-2.2
		c0.5-0.6,0.6-1.1,0.8-1.2c0.5-0.2,0.8-0.2,1.1-0.3c0.3-0.2,0.5-0.2,0.6-0.2c0.2,0,0.3-0.2,0.6-0.2c0.2,0,0.5-0.2,0.9-0.2
		c-0.2,0.5-0.5,1.1-0.8,1.7s-0.8,1.2-1.1,1.8c-0.5,0.6-0.8,1.2-1.2,1.8s-0.8,1.1-1.1,1.7c0,0.2-0.3,0.6-0.9,1.4
		c-0.6,0.9-1.2,1.8-2.2,3.1c-0.8,1.1-1.7,2.3-2.5,3.4C370.2,372.2,369.4,373,369,373.5z"/>
	<path fill="#FFFFFF" d="M393.5,395c-0.3,0.3-0.5,0.5-0.8,0.5c-0.2,0-0.5,0-0.6-0.2c-0.2-0.2-0.5-0.3-0.6-0.5
		c-0.2-0.2-0.5-0.3-0.8-0.5c0-0.6-0.2-1.8-0.3-3.8c-0.2-2-0.3-4.3-0.3-7.1c-0.2-2.8-0.3-5.7-0.5-8.8c-0.2-3.1-0.3-6.1-0.3-9.1
		c-0.2-2.9-0.2-5.5-0.3-7.8c-0.2-2.3-0.2-4.2,0-5.2c-0.2,0,0,0,0.2,0c0.2-0.2,0.3-0.2,0.6-0.3c0.3-0.2,0.5-0.3,0.9-0.5
		c0.3-0.2,0.6-0.3,0.9-0.3c0,1.8,0,4.5-0.2,7.7c0,3.2,0,6.8,0.2,10.8c0.2,4,0.3,8.1,0.6,12.5C392.6,386.7,393.1,390.8,393.5,395z"/>
	<path fill="#FFFFFF" d="M404.3,351.6c0.9-0.2,1.5,0.3,2,1.1c0.5,0.8,0.8,1.8,0.9,2.9c0.2,1.1,0.2,2.3,0.2,3.5c0,1.2,0,2.3,0,3.1
		c0,0.6,0,1.4,0,2.6c0,1.1,0,2.3,0,3.7c0,1.4,0,2.8,0,4.2c0,1.4,0,2.8,0,3.8c0,1.2,0,2.2,0,2.9s0,1.2,0,1.2c0.2-0.2,0.2-0.5,0.5-1.4
		c0.2-0.8,0.5-1.7,0.6-2.9c0.3-1.1,0.6-2.3,0.9-3.5s0.8-2.5,1.1-3.5c0-0.2,0.2-0.6,0.5-1.5c0.3-0.9,0.6-1.7,0.9-2.6
		c0.3-0.9,0.9-1.7,1.7-2.5c0.6-0.8,1.4-0.9,2.5-0.8c0.8-0.2,1.4,0.3,2,1.5c0.6,1.2,1.1,2.9,1.4,4.9c0.5,2,0.8,4.3,0.9,6.8
		c0.2,2.5,0.5,4.8,0.8,7.1c0.3,2.3,0.5,4.2,0.6,5.8c0.2,1.7,0.3,2.6,0.6,3.1c0.6,0.9,1.5,0.9,2.6,0.2s2.3-2,3.7-3.7
		c0.2,0.2,0.2,0.3,0.2,0.8c0,0.3,0,0.8-0.3,1.2c-0.2,0.5-0.5,1.1-1.1,1.8c-0.5,0.6-1.2,1.4-2.2,2.2c-1.5,0.8-2.6,0.8-3.5,0.3
		c-0.9-0.6-1.5-1.4-1.8-2.6c-0.2-0.5-0.2-1.4-0.3-2.8c-0.2-1.5-0.3-3.2-0.6-5.2c-0.2-2-0.5-4-0.6-6.1c-0.3-2.2-0.5-4.2-0.8-5.8
		c-0.3-1.8-0.6-3.2-0.9-4.5s-0.6-1.7-0.9-1.5c-0.3-0.2-0.5,0-0.8,0.3c-0.3,0.5-0.6,0.9-0.9,1.7s-0.6,1.5-0.9,2.6s-0.6,2-0.9,2.9
		c-0.3,0.9-0.6,1.8-0.8,2.8c-0.2,0.8-0.5,1.5-0.6,2c-0.5,1.4-0.8,2.6-1.1,3.8c-0.3,1.1-0.6,2.3-0.8,3.7c-0.3,1.4-0.5,2.8-0.6,4.5
		c-0.2,1.7-0.5,3.7-0.6,6c-0.8,0.2-1.4,0-1.5-0.3c-0.3-0.3-0.6-0.6-1.1-0.8c0-0.8,0-2,0-3.7c0-1.7,0-3.7,0-5.8s0-4.5,0-6.8
		s0-4.6,0-6.6c0-0.2,0-0.5,0.2-1.2c0-0.8,0.2-1.7,0.2-2.8c0-1.1,0.2-2.3,0.2-3.7c0-1.4,0-2.6,0-3.8s-0.2-2.3-0.3-3.2
		c-0.2-0.9-0.3-1.7-0.8-2c-0.5-0.3-1.1-0.2-1.7,0.6c-0.6,0.6-1.4,1.5-2.2,2.8c-0.8,1.2-1.5,2.6-2.3,4.2s-1.5,3.2-2.2,4.8
		c-0.6,1.5-1.2,3.1-1.7,4.5c-0.5,1.4-0.8,2.5-0.9,3.4c-0.2,0.3-0.3,0.6-0.6,0.9c-0.3,0.3-0.6,0.5-0.8,0.6c-0.3,0.2-0.6,0.2-0.8,0.2
		c-0.3,0-0.5-0.2-0.6-0.3c0.3-1.5,0.9-3.1,1.5-4.8c0.6-1.7,1.4-3.5,2.2-5.2c0.8-1.8,1.5-3.5,2.5-5.2c0.9-1.7,1.8-3.2,2.8-4.5
		c0.9-1.2,1.8-2.3,2.8-3.1C402.6,351.9,403.4,351.6,404.3,351.6z"/>
	<path fill="#FFFFFF" d="M459.6,353.8c-0.3,0.2-1.1,0.3-2,0.6c-1.1,0.3-2.3,0.8-3.7,1.5c-1.4,0.8-2.9,1.8-4.5,3.4
		c-1.5,1.5-3.1,3.5-4.5,6.1c-0.5,0.9-0.9,2.2-1.4,3.7c-0.5,1.5-0.8,2.9-1.1,4.5c-0.3,1.4-0.6,2.8-0.8,3.8c-0.2,1.1-0.3,1.5-0.2,1.5
		c-0.3,2.8-0.3,5.1,0,6.8c0.3,1.7,0.6,3.1,1.2,4c0.6,0.9,1.2,1.7,2,2c0.8,0.5,1.5,0.6,2.3,0.6c0.8,0,1.4,0,2-0.2
		c0.6-0.2,0.9-0.2,1.1-0.2c1.2-0.5,2.3-1.1,3.4-2c1.1-0.8,2.2-1.7,3.1-2.8s1.8-2.2,2.6-3.4c0.8-1.2,1.5-2.5,2.2-3.8
		c0.2-0.2,0.3-0.5,0.6-0.6c0.3-0.2,0.5-0.3,0.8-0.5c0.3-0.2,0.5-0.2,0.6-0.3c0.2,0,0.3,0,0.3,0.2c-0.8,2.3-1.7,4.3-2.9,6.1
		c-1.2,1.8-2.6,3.5-4,4.9c-1.4,1.4-2.9,2.6-4.5,3.4c-1.5,0.9-2.9,1.5-4.2,1.8c-1.7,0.3-3.4,0-4.9-1.1c-1.5-1.1-2.8-2.9-3.7-5.7
		c-0.3-1.5-0.5-3.1-0.6-4.9c-0.2-1.8,0-3.7,0.2-5.4c0.3-3.5,0.9-6.8,1.8-9.7c1.1-2.9,2.3-5.5,3.8-7.8c1.5-2.3,3.4-4.2,5.2-5.7
		s4-2.5,6.1-3.1c0.2,0,0.5,0,0.9,0.2c0.5,0.2,0.9,0.2,1.4,0.3c0.5,0.2,0.8,0.3,1.1,0.6C459.8,353.3,459.8,353.5,459.6,353.8z"/>
	<path fill="#FFFFFF" d="M466,383.3c-0.6,0-1.2,0-2,0.2c-0.8,0.2-1.4,0.2-2,0.2c-0.6,0-1.2,0-1.7-0.2c-0.5-0.2-0.8-0.3-0.9-0.6
		c-0.3-0.2-0.3-0.5,0-0.8s0.5-0.5,0.6-0.8c0.8-0.2,1.4-0.2,2-0.2c0.6,0,1.1-0.2,1.5-0.2c0.5,0,0.9-0.2,1.4-0.2s0.9-0.2,1.4-0.2
		c0.6-2.3,1.2-4.5,1.7-6.6c0.5-2.2,1.1-4.2,1.5-6.1s0.9-4.2,1.4-6.1c0.5-2.2,0.9-4.3,1.5-6.6c0.3-0.5,0.6-0.8,0.9-0.8
		c0.3,0,0.6,0,1.2,0c0.3,1.4,0.5,2.5,0.6,3.4c0.2,0.9,0.3,1.8,0.3,2.8c0.2,0.9,0.2,2,0.3,3.1c0.2,1.1,0.3,2.6,0.6,4.3
		c0.2,1.7,0.5,3.5,0.6,5.2c0.3,1.7,0.5,3.4,0.8,5.2c1.1-0.2,2.2-0.3,3.1-0.5c0.9-0.2,1.8-0.3,2.6-0.5c0.8-0.2,1.4-0.3,1.8-0.3
		c0.5-0.2,0.8-0.2,0.8,0c0.2,0.3,0,0.8-0.6,1.1c-0.6,0.3-1.2,0.8-2,1.1s-1.7,0.6-2.6,0.9c-0.9,0.3-1.8,0.6-2.5,0.8
		c0.2,0.8,0.2,1.7,0.5,2.9c0.2,1.2,0.5,2.5,0.6,3.7c0.2,1.4,0.5,2.6,0.8,4c0.3,1.4,0.5,2.6,0.6,3.7c0.2,1.1,0.3,2,0.5,2.8
		c0.2,0.8,0.2,1.1,0,1.2c-0.8,0.2-1.2,0-1.5-0.2c-0.3-0.2-0.6-0.5-1.1-0.6c-0.3-2.8-0.8-5.5-1.2-8.3c-0.5-2.8-0.9-5.5-1.2-8.5
		c-0.9,0.2-2.2,0.5-3.5,0.8s-2.9,0.6-4.5,0.9c-0.3,0.9-0.5,1.8-0.6,3.1c-0.2,1.1-0.5,2.2-0.6,3.2c-0.2,1.1-0.3,1.8-0.5,2.8
		c-0.2,0.8-0.3,1.4-0.5,1.5c-0.2,0.2-0.6,0.3-1.1,0.5c-0.5,0-0.9,0-1.2-0.5c0-0.3,0.2-0.8,0.3-1.7c0.2-0.9,0.5-1.8,0.6-2.9
		c0.3-1.1,0.5-2.2,0.8-3.1C465.6,384.7,465.8,383.9,466,383.3z M468.9,380.2c0.6-0.2,1.2-0.3,2-0.5c0.8-0.2,1.4-0.3,2-0.5
		c0.6-0.2,1.2-0.3,1.7-0.5c0.5-0.2,0.8-0.2,0.8-0.2c-0.2-0.9-0.2-1.7-0.2-2.3c0-0.6-0.2-1.2-0.2-1.8c0-0.6-0.2-1.4-0.2-2.3
		c-0.2-0.9-0.2-2.2-0.3-3.5c-0.3-2.6-0.6-4.5-0.8-5.8c-0.2-1.2-0.3-1.7-0.5-1.2c-0.6,2.2-1.1,4.2-1.5,5.7c-0.5,1.7-0.8,3.1-1.2,4.5
		c-0.3,1.4-0.6,2.8-0.9,4C469.3,377,469.2,378.7,468.9,380.2z"/>
	<path fill="#FFFFFF" d="M510.1,366.7c-0.6,0.8-1.5,1.4-2.9,2c-1.4,0.6-2.9,1.2-4.6,1.8c-1.7,0.6-3.4,1.1-4.9,1.5
		c-1.7,0.5-3.1,0.8-4.2,1.1c0.5,1.1,0.9,2,1.5,2.6c0.6,0.6,1.4,1.4,2.2,2.3c1.4,1.1,2.5,2,3.5,2.8c0.9,0.8,1.8,1.4,2.8,2
		c0.9,0.6,1.8,1.2,2.8,1.7c0.9,0.6,2,1.2,3.2,1.8c1.7,0.6,2.9,1.1,3.8,1.4c0.9,0.3,1.5,0.5,2.2,0.6c0.5,0.2,0.8,0.2,1.1,0.2
		c0.2,0,0.5,0,0.6,0.2c0.2,0.3-0.2,0.5-0.6,0.5c-0.5,0.2-0.9,0.2-1.5,0.2c-0.6,0-1.2,0-1.8-0.2c-0.6,0-1.1-0.2-1.4-0.2
		c-0.6-0.2-1.4-0.5-2.2-0.6c-0.8-0.3-1.8-0.6-2.9-1.2c-1.1-0.5-2.3-1.2-3.7-2s-2.9-1.8-4.6-3.2c-0.8-0.5-1.4-0.9-1.8-1.4
		c-0.6-0.5-1.1-0.8-1.5-1.1s-0.9-0.6-1.2-0.9c0.2,0.5,0.2,1.2,0.3,2.2c0.2,0.9,0.3,2,0.5,3.1c0.2,1.1,0.3,2.3,0.5,3.5
		c0.2,1.2,0.3,2.5,0.5,3.5c0.2,1.1,0.3,2.2,0.5,2.9s0.3,1.5,0.5,1.8c-0.6,0.3-1.2,0.3-1.8,0.2c-0.6-0.2-1.1-0.2-1.2-0.2
		c-0.2-2.8-0.5-5.5-0.8-8.6c-0.5-2.9-0.8-6.3-0.9-9.8c0-0.2,0-0.2,0-0.2v0.2l0,0c0,0,0-0.2-0.2-0.5c-0.5-0.6-0.8-1.1-1.1-1.4
		c-0.3-0.3-0.5-0.6-0.8-0.8c-0.3-0.3-0.5-0.5-0.8-0.8s-0.8-0.8-1.2-1.4c0.2-0.2,0.5-0.3,0.9-0.5c0.5-0.2,1.1-0.3,1.7-0.5
		c-0.2-1.4-0.3-2.8-0.5-3.8s-0.3-2.5-0.3-3.5c-0.2-1.1-0.3-2.3-0.3-3.4s-0.3-2.3-0.5-3.5c-0.3,0-1.4,0-2.9-0.2
		c-1.5,0-3.2-0.2-5.2-0.2c-0.3-0.2-0.6-0.3-0.8-0.5c-0.2-0.2-0.3-0.6-0.2-1.2c0.8-0.2,1.5-0.2,2.6-0.2c1.1,0,2.2,0,3.4,0.2
		c1.1,0,2.2,0.2,3.2,0.2c1.1,0.2,1.8,0.2,2.6,0.2c5.1,0.6,9.1,1.4,12,2.3c2.9,0.9,5.1,2,6.3,3.1c1.4,1.1,2,2.2,1.8,3.2
		C511.5,365,511,365.9,510.1,366.7z M492.4,371.1c1.4-0.3,2.9-0.6,4.8-1.2c1.8-0.6,3.7-1.1,5.4-1.8c1.7-0.6,3.1-1.2,4.3-2
		s1.7-1.2,1.7-1.8v-0.6c-0.2-0.6-0.8-1.2-2-1.8c-1.1-0.6-2.6-1.2-4.3-1.8c-1.7-0.6-3.5-1.1-5.5-1.5c-2-0.5-3.8-0.9-5.7-1.1
		c0.2,1.8,0.3,3.8,0.5,6.1C491.8,365.8,492.1,368.4,492.4,371.1z"/>
	<path fill="#FFFFFF" d="M544.8,352.9c-0.9,0.6-2.5,1.2-4.3,1.8c-1.8,0.8-3.8,1.4-6,2.2s-4.3,1.4-6.5,2.2c-2.2,0.8-4,1.4-5.7,2
		c0.2,0.9,0.2,1.7,0.2,2.5s0.2,1.4,0.2,2.2s0.2,1.8,0.3,2.9c0.2,1.2,0.3,2.8,0.6,4.8c1.5-0.8,2.9-1.2,3.8-1.7c0.9-0.5,2-0.8,3.1-1.1
		c1.1-0.3,2.3-0.8,3.8-1.1c1.4-0.5,3.4-0.9,6-1.7c0.2,0,0.5,0.2,0.8,0.5c0.3,0.2,0.5,0.5,0.8,0.8c0.3,0.3,0.3,0.6,0.3,0.9
		s-0.2,0.5-0.5,0.6c-1.7,0.2-3.4,0.5-5.1,0.9c-1.7,0.5-3.2,0.9-4.8,1.5c-1.5,0.6-2.9,1.1-4.2,1.7c-1.2,0.6-2.5,1.1-3.4,1.5
		c0.2,2,0.3,3.8,0.6,5.5c0.3,1.8,0.8,3.4,1.4,4.9c0.6,1.4,1.2,2.6,2.2,3.5c0.8,0.9,1.7,1.5,2.6,1.7c0.5,0.2,1.1,0.2,1.8,0.2
		s1.8,0,2.9-0.5c1.1-0.3,2.3-0.9,3.7-1.8s2.9-2.3,4.6-4.2c1.1-0.9,1.8-1.5,2.5-1.7c0.5-0.2,0.6,0,0.2,0.6c-1.1,1.2-2.2,2.3-3.1,3.4
		c-0.9,1.1-1.8,2-2.9,2.8c-0.9,0.8-2,1.5-3.2,2.2c-1.1,0.6-2.5,1.1-4,1.2c-2.2,0.5-3.8,0.3-5.2-0.3c-1.4-0.6-2.5-1.8-3.4-3.4
		c-0.9-1.5-1.5-3.4-2.2-5.7c-0.5-2.3-1.1-4.8-1.4-7.7c-0.8,0.2-1.2,0.2-1.7,0.5c-0.5,0.2-1.1,0.5-1.8,1.1c-0.3,0-0.5-0.2-0.3-0.5
		c0.2-0.3,0.3-0.6,0.6-1.1c0.3-0.5,0.8-0.9,1.2-1.4c0.5-0.5,1.1-0.9,1.5-1.2c-0.3-1.7-0.5-3.4-0.8-5.2c-0.2-1.8-0.5-3.5-0.6-5.2
		s-0.3-3.2-0.5-4.5c-0.2-1.4-0.2-2.3-0.2-3.1c0.3-0.2,0.5-0.2,0.6-0.3c0.2-0.2,0.3-0.2,0.5-0.2c0.2,0,0.3,0,0.5-0.2
		c0.2,0,0.5,0,0.9-0.2c0.2,0.2,0.2,0.5,0.2,0.9c0,0.3,0,0.8,0,0.9c2.2-0.5,4-1.1,5.7-1.5c1.7-0.5,3.4-0.9,4.9-1.4
		c1.5-0.5,3.2-0.9,4.9-1.4c1.7-0.5,3.4-0.9,5.4-1.4c0.3-0.2,0.6-0.2,0.9,0c0.3,0.2,0.6,0.2,0.8,0.3c0.2,0.2,0.3,0.3,0.5,0.5
		C544.8,352.7,544.8,352.9,544.8,352.9z"/>
</g>
<path fill-rule="evenodd" clip-rule="evenodd" fill="#FFFFFF" d="M153.8,279.8c0.9,5.4-3.3,8.9-3.3,8.9s0.3,1.3,2.2,1.9
	c1.9,0.6,2.1,2.1,1.4,3.2c-0.6,1.2,1.7,1.7,1.7,1.7s-0.4,1.2,0.9,1.7c1.3,0.6,1.5,2.7,1.8,4.4c1.9,10.5,19.7-6.2,21.4-9.5
	c-4.5,5.2-17.8,15.4-19.4,8.5c-0.9-3.6-6.6-10.6-4-16.1c3.3-7-7.7-9.2-1-22.7C151.4,266.2,149.7,271.6,153.8,279.8L153.8,279.8z"/>
<path fill-rule="evenodd" clip-rule="evenodd" fill="#FFFFFF" d="M150.7,281.4c0,0,2.4,2.7,5.9,1.5c0.3-1.4,0.2-1.7,0.2-1.7
	S155.2,282.4,150.7,281.4L150.7,281.4z"/>
<path fill-rule="evenodd" clip-rule="evenodd" fill="#FFFFFF" d="M173.2,300.6c0,0,4.9,4.3,1.2,15.7
	C178.2,314.3,178.8,301.8,173.2,300.6L173.2,300.6z"/>
<path fill-rule="evenodd" clip-rule="evenodd" fill="#FFFFFF" d="M156.9,317.8c-7.7,3.3-6.4,46-9.9,46.9c-3.6,0.9-15.7-20-29.8-17.5
	c12.7,0,19.6,11.1,25.8,17.7c1.6,1.6,2.9,2.3,4.2,1.8C151.1,365.3,148.8,343.3,156.9,317.8L156.9,317.8z"/>
<path fill-rule="evenodd" clip-rule="evenodd" fill="#FFFFFF" d="M161.8,361.5c0.2,2.5,0.5,6.2,3.8,15c3.3,8.8,1,15.6,1,15.6
	s2.4-4.8,1.7-11.5c-0.7-6.1-2.7-7.2-4.1-11c-2.1-5.8,0.4-11-0.9-11.6c-1.3-0.6-9.5,1.8-9.1-8.8c0.9-5.6,5.8-13.1,5.7-13.1
	c0,0-7,10.4-7.7,14.5C151.6,354.7,152.4,359,161.8,361.5L161.8,361.5z"/>
<path fill-rule="evenodd" clip-rule="evenodd" fill="#FFFFFF" d="M194.2,423.5c0,0-60.9-66.6-65.7-67.7c-4.8-1.1-8.4,3.4-8.4,3.4
	s6.4-4.1,10-0.5C133.7,362.2,194,423.5,194.2,423.5L194.2,423.5z"/>
<path fill-rule="evenodd" clip-rule="evenodd" fill="#FFFFFF" d="M117.8,361.3c-13.1,23.5-27.2,43.6-46.5,62.1
	c-8.4,8.1-14.9,15.1-18.1,19.7c-4.5,6.4-9.6,6.4-9.6,6.4s-1.8,2.5,5.9,2.5c-2.7-2-5.5-0.9,2-5.2c7.5-4.3,6.8-10.7,18.3-20.1
	C81.3,417.3,102.7,397.8,117.8,361.3L117.8,361.3z"/>
<path fill-rule="evenodd" clip-rule="evenodd" fill="#FFFFFF" d="M58.7,450.9c0,0,1.8,1.6,7.3-3.4c2.8-2.6,11.9-2.1,11.3-6
	c-0.7-4.3-5-8,1.8-12.6c-4.5,4.3-2.8,5.3-1.1,9.4c4.3,9.9-6.3,5.2-11.8,10C63.7,450.4,61.6,452.4,58.7,450.9L58.7,450.9z"/>
<path fill-rule="evenodd" clip-rule="evenodd" fill="#FFFFFF" d="M81.6,426.8c1.2-0.5,27.5-11.9,34.6-22.3
	c7.1-10.4,9.3-20,11.2-21.2c1.7-1.1,17,22.9,20.1,48.5c-3.5-10.3-13.8-42.4-19.1-41.2C126.6,391.1,127.3,410.8,81.6,426.8
	L81.6,426.8z"/>
<path fill-rule="evenodd" clip-rule="evenodd" fill="#FFFFFF" d="M176.5,356.6c0,0,3.6,4.4,11.4,1.7c7.8-2.6,6.1-11.5,4.2-15.8
	c-1.9-4.3-2.1-4.6-2.1-4.6s9.8,11.1,3.2,19.6C186.5,366,178.3,359.1,176.5,356.6L176.5,356.6z"/>
<path fill-rule="evenodd" clip-rule="evenodd" fill="#FFFFFF" d="M181.6,326.4c0,0,5.2-6.4,15-6.9c-7.1-0.9-14.2,3.3-15.6,4.9
	C179.7,326.1,181.7,326.4,181.6,326.4L181.6,326.4z"/>
<path fill-rule="evenodd" clip-rule="evenodd" fill="#FFFFFF" d="M202.1,311c0,0,7.2-2.4,9.8,4.8c2.6,7.2-1,57.7-0.2,61.9
	c0.8,4.2,11,41.1,13,57c-2.8-17.3-16.4-55.8-16.2-59.4c0.2-2.9,2.6-32.4,2.6-47.2C211.1,321.9,210.6,311,202.1,311L202.1,311z"/>
<path fill-rule="evenodd" clip-rule="evenodd" fill="#FFFFFF" d="M98.7,442.4c-6.3,21.7,17.9,16.7,21.5,16c22.2-4.2,43.5-6,66.3-4.1
	c11.6,1,21.2,1.2,26.8,0.5c7.8-0.9,11.2,2.9,11.2,2.9s3-0.3-2-6.1c0.3,3.3,3,4.7-5.2,2c-8.2-2.8-12.5,2-27.2-0.4
	c-13.1-2.1-37.2-4.8-68.5,3.6C117.6,458,95.6,463.5,98.7,442.4L98.7,442.4z"/>
<path fill-rule="evenodd" clip-rule="evenodd" fill="#FFFFFF" d="M215.5,445.6c0,0,0,0,0-0.1c-0.1-0.5-1-2.4-7.3-3.1
	c-3.8-0.4-9.5-7.5-12-4.4c-2.7,3.4-2.7,9-10.6,7c6.2,0.5,5.9-1.4,7.8-5.5c4.6-9.8,8.1,1.3,15.3,2.2
	C211.8,442.2,214.7,442.4,215.5,445.6L215.5,445.6z"/>
<path fill-rule="evenodd" clip-rule="evenodd" fill="#FFFFFF" d="M101.7,438.3c22-21.3,72.1,2.5,78.5,5.3
	c-9.7-2.7-30.1-11.6-55.3-11C116.3,432.8,108.2,434.6,101.7,438.3L101.7,438.3z"/>
<path fill-rule="evenodd" clip-rule="evenodd" fill="#FFFFFF" d="M204.2,358.6c0,0-3.3,17.9-1,30.3c2.3,12.4,14.2,30.3,14.7,40.4
	c0.5,10.1-3.3,12.4-3.3,12.4s7.1-12.4-7.1-32.1C193.3,390,204.2,358.6,204.2,358.6L204.2,358.6z"/>
<path fill-rule="evenodd" clip-rule="evenodd" fill="#FFFFFF" d="M97.3,368.4c4.5-4.4,5.8-9.8,5.8-9.8l12-10.4
	c-3.2,3.3-8.4,8.2-11,10.5C103.2,361,101,365.6,97.3,368.4L97.3,368.4z M123,350.1c0,0,0.8,3.4-2,6c-2.9,2.6-3.9,2.7-6.2,5.7
	c-2.3,3-4.9,3.4-4.9,3.4s-0.8-0.3,0.9-2c1.7-1.8,3.9-5.5,3.2-6.3c-0.8-0.7-8.8,3.7-9.2,4.2c-0.4,0.5-3.5,6.5-6.3,7.5
	c-1.1,0.3-1.1,0.3-1.1,0.3s2.3,1,6.3-3.9c1.6-2.5,1.9-2.7,1.9-2.7l1.3-0.5l-2.1,3.3l-3.8,6.2c0,0,2.9-1.1,5.5-6.6
	c0.9-1.3,2.1-2.6,2.1-2.6l-1.8,2.9l0.1,6.2c0,0,1.6-4,0.9-6c2-2.1,2.4-2.2,2.4-2.2s-1.5,2.1-0.5,2.4c0.9,0.3,3.3,0.1,7.3-5.4
	C121,357.7,126,354.6,123,350.1L123,350.1z"/>
<path fill-rule="evenodd" clip-rule="evenodd" fill="#FFFFFF" d="M250.3,443.8c-6.1-1.6-9.9-5.7-9.9-5.7l-15.5-3.3
	c4.4,1.3,11.3,3.1,14.7,3.8C241.6,440.2,245.8,443.2,250.3,443.8L250.3,443.8z M219,440.4c0,0,0.9,3.4,4.7,4.3
	c3.8,0.8,4.7,0.4,8.2,1.9c3.5,1.5,5.9,0.5,5.9,0.5s0.5-0.6-1.8-1.3c-2.3-0.7-6.1-2.9-5.9-3.9c0.3-1,9.5-1,10.1-0.8
	c0.6,0.2,6.2,3.9,9.2,3.4c1.1-0.2,1.1-0.2,1.1-0.2s-1.5,2-7.4-0.3c-2.6-1.4-3-1.4-3-1.4l-1.4,0.2l3.5,1.8l6.4,3.6c0,0-3,0.5-8-3.1
	c-1.4-0.7-3.1-1.3-3.1-1.3l3,1.6l3,5.4c0,0-3.4-2.6-3.7-4.8c-2.8-0.9-3.2-0.8-3.2-0.8s2.3,1.1,1.7,1.9c-0.6,0.8-2.8,1.7-9-1.2
	C224.5,446.1,218.6,445.8,219,440.4L219,440.4z"/>
<path fill-rule="evenodd" clip-rule="evenodd" fill="#FFFFFF" d="M156.5,261.1c0,0,6.9-10,21.4-9.9c14.6,0.1,26.7,13.2,29.3,30.9
	c2.6,17.7,2.6,25.9,15.9,25.3c-6.6,1.6-15.7,1-17.7-14.2c-2-15.2-2.6-36.2-24.6-40C174.3,252.4,168.5,251.2,156.5,261.1L156.5,261.1
	z"/>
<path fill-rule="evenodd" clip-rule="evenodd" fill="#FFFFFF" d="M156,263c0,0-6.4,13.7,12.9,19.2c19.3,5.5,16.4,30.2,11.5,37.1
	c6.4-9.1,6.8-15.9,5-22.3C178.9,273.2,152.6,285.9,156,263L156,263z"/>
</svg>
